<?xml version="1.0" encoding="UTF-8" standalone="no"?>
<!DOCTYPE svg PUBLIC "-//W3C//DTD SVG 1.1//EN"
 "http://www.w3.org/Graphics/SVG/1.1/DTD/svg11.dtd">
<!-- Generated by graphviz version 2.43.0 (0)
 -->
<!-- Title: includes/Channel.hpp Pages: 1 -->
<!--zoomable 196 -->
<svg id="main" version="1.1" xmlns="http://www.w3.org/2000/svg" xmlns:xlink="http://www.w3.org/1999/xlink" xml:space="preserve" onload="init(evt)">
<style type="text/css"><![CDATA[
.edge:hover path { stroke: red; }
.edge:hover polygon { stroke: red; fill: red; }
]]></style>
<script type="text/javascript"><![CDATA[
var edges = document.getElementsByTagName('g');
if (edges && edges.length) {
  for (var i=0;i<edges.length;i++) {
    if (edges[i].id.substr(0,4)=='edge') {
      edges[i].setAttribute('class','edge');
    }
  }
}
]]></script>
        <defs>
                <circle id="rim" cx="0" cy="0" r="7"/>
                <circle id="rim2" cx="0" cy="0" r="3.5"/>
                <g id="zoomPlus">
                        <use xlink:href="#rim" fill="#404040">
                                <set attributeName="fill" to="#808080" begin="zoomplus.mouseover" end="zoomplus.mouseout"/>
                        </use>
                        <path d="M-4,0h8M0,-4v8" fill="none" stroke="white" stroke-width="1.5" pointer-events="none"/>
                </g>
                <g id="zoomMin">
                        <use xlink:href="#rim" fill="#404040">
                                <set attributeName="fill" to="#808080" begin="zoomminus.mouseover" end="zoomminus.mouseout"/>
                        </use>
                        <path d="M-4,0h8" fill="none" stroke="white" stroke-width="1.5" pointer-events="none"/>
                </g>
                <g id="dirArrow">
                        <path fill="none" stroke="white" stroke-width="1.5" d="M0,-3.0v7 M-2.5,-0.5L0,-3.0L2.5,-0.5"/>
                </g>
               <g id="resetDef">
                       <use xlink:href="#rim2" fill="#404040">
                               <set attributeName="fill" to="#808080" begin="reset.mouseover" end="reset.mouseout"/>
                       </use>
               </g>
        </defs>

<script type="text/javascript">
var viewWidth = 826;
var viewHeight = 196;
var sectionId = 'dynsection-0';
</script>
<script xlink:href="svgpan.js"/>
<svg id="graph" class="graph">
<g id="viewport">
<title>includes/Channel.hpp</title>
<polygon fill="white" stroke="transparent" points="-4,4 -4,-192 821.91,-192 821.91,4 -4,4"/>
<!-- Node1 -->
<g id="node1" class="node">
<title>Node1</title>
<g id="a_node1"><a xlink:title=" ">
<polygon fill="#bfbfbf" stroke="black" points="589.91,-168.5 589.91,-187.5 710.91,-187.5 710.91,-168.5 589.91,-168.5"/>
<text text-anchor="middle" x="650.41" y="-175.5" font-family="Helvetica,sans-Serif" font-size="10.00">includes/Channel.hpp</text>
</a>
</g>
</g>
<!-- Node2 -->
<g id="node2" class="node">
<title>Node2</title>
<g id="a_node2"><a xlink:href="Client_8hpp.html" target="_top" xlink:title=" ">
<polygon fill="white" stroke="black" points="407.41,-112.5 407.41,-131.5 479.41,-131.5 479.41,-112.5 407.41,-112.5"/>
<text text-anchor="middle" x="443.41" y="-119.5" font-family="Helvetica,sans-Serif" font-size="10.00">./Client.hpp</text>
</a>
</g>
</g>
<!-- Node1&#45;&gt;Node2 -->
<g id="edge1" class="edge">
<title>Node1&#45;&gt;Node2</title>
<path fill="none" stroke="midnightblue" d="M617.61,-168.44C582.03,-159.16 525.09,-144.31 486.06,-134.13"/>
<polygon fill="midnightblue" stroke="midnightblue" points="486.61,-130.65 476.06,-131.52 484.85,-137.43 486.61,-130.65"/>
</g>
<!-- Node8 -->
<g id="node8" class="node">
<title>Node8</title>
<g id="a_node8"><a xlink:title=" ">
<polygon fill="white" stroke="#bfbfbf" points="770.91,-56.5 770.91,-75.5 817.91,-75.5 817.91,-56.5 770.91,-56.5"/>
<text text-anchor="middle" x="794.41" y="-63.5" font-family="Helvetica,sans-Serif" font-size="10.00">vector</text>
</a>
</g>
</g>
<!-- Node1&#45;&gt;Node8 -->
<g id="edge19" class="edge">
<title>Node1&#45;&gt;Node8</title>
<path fill="none" stroke="midnightblue" d="M650.55,-168.21C651.26,-154.44 654.59,-127.76 669.41,-112 682.14,-98.47 728.33,-84.15 760.84,-75.39"/>
<polygon fill="midnightblue" stroke="midnightblue" points="762.08,-78.69 770.85,-72.75 760.29,-71.92 762.08,-78.69"/>
</g>
<!-- Node16 -->
<g id="node16" class="node">
<title>Node16</title>
<g id="a_node16"><a xlink:title=" ">
<polygon fill="white" stroke="#bfbfbf" points="678.41,-112.5 678.41,-131.5 722.41,-131.5 722.41,-112.5 678.41,-112.5"/>
<text text-anchor="middle" x="700.41" y="-119.5" font-family="Helvetica,sans-Serif" font-size="10.00">ctime</text>
</a>
</g>
</g>
<!-- Node1&#45;&gt;Node16 -->
<g id="edge18" class="edge">
<title>Node1&#45;&gt;Node16</title>
<path fill="none" stroke="midnightblue" d="M658.67,-168.08C665.87,-160.3 676.52,-148.8 685.25,-139.37"/>
<polygon fill="midnightblue" stroke="midnightblue" points="688.08,-141.47 692.31,-131.75 682.94,-136.71 688.08,-141.47"/>
</g>
<!-- Node3 -->
<g id="node3" class="node">
<title>Node3</title>
<g id="a_node3"><a xlink:title=" ">
<polygon fill="white" stroke="#bfbfbf" points="238.41,-0.5 238.41,-19.5 288.41,-19.5 288.41,-0.5 238.41,-0.5"/>
<text text-anchor="middle" x="263.41" y="-7.5" font-family="Helvetica,sans-Serif" font-size="10.00">cstring</text>
</a>
</g>
</g>
<!-- Node2&#45;&gt;Node3 -->
<g id="edge2" class="edge">
<title>Node2&#45;&gt;Node3</title>
<path fill="none" stroke="midnightblue" d="M407.16,-120.01C306.86,-116.9 31.23,-105.71 4.41,-76 -1.55,-69.4 -1.31,-62.8 4.41,-56 32.59,-22.5 163.95,-13.94 228.05,-11.75"/>
<polygon fill="midnightblue" stroke="midnightblue" points="228.21,-15.25 238.1,-11.44 228,-8.25 228.21,-15.25"/>
</g>
<!-- Node4 -->
<g id="node4" class="node">
<title>Node4</title>
<g id="a_node4"><a xlink:title=" ">
<polygon fill="white" stroke="#bfbfbf" points="645.41,-0.5 645.41,-19.5 705.41,-19.5 705.41,-0.5 645.41,-0.5"/>
<text text-anchor="middle" x="675.41" y="-7.5" font-family="Helvetica,sans-Serif" font-size="10.00">iostream</text>
</a>
</g>
</g>
<!-- Node2&#45;&gt;Node4 -->
<g id="edge3" class="edge">
<title>Node2&#45;&gt;Node4</title>
<path fill="none" stroke="midnightblue" d="M479.49,-119.7C540.23,-116.67 658.78,-106.86 684.41,-76 695.19,-63.02 690.49,-43.31 684.61,-29"/>
<polygon fill="midnightblue" stroke="midnightblue" points="687.69,-27.32 680.32,-19.71 681.33,-30.25 687.69,-27.32"/>
</g>
<!-- Node5 -->
<g id="node5" class="node">
<title>Node5</title>
<g id="a_node5"><a xlink:title=" ">
<polygon fill="white" stroke="#bfbfbf" points="723.41,-0.5 723.41,-19.5 761.41,-19.5 761.41,-0.5 723.41,-0.5"/>
<text text-anchor="middle" x="742.41" y="-7.5" font-family="Helvetica,sans-Serif" font-size="10.00">map</text>
</a>
</g>
</g>
<!-- Node2&#45;&gt;Node5 -->
<g id="edge4" class="edge">
<title>Node2&#45;&gt;Node5</title>
<path fill="none" stroke="midnightblue" d="M479.51,-118.38C541.89,-113.26 666.61,-100.26 702.41,-76 718.83,-64.87 729.72,-44.54 735.94,-29.57"/>
<polygon fill="midnightblue" stroke="midnightblue" points="739.36,-30.41 739.65,-19.82 732.82,-27.92 739.36,-30.41"/>
</g>
<!-- Node6 -->
<g id="node6" class="node">
<title>Node6</title>
<g id="a_node6"><a xlink:title=" ">
<polygon fill="white" stroke="#bfbfbf" points="13.41,-56.5 13.41,-75.5 57.41,-75.5 57.41,-56.5 13.41,-56.5"/>
<text text-anchor="middle" x="35.41" y="-63.5" font-family="Helvetica,sans-Serif" font-size="10.00">poll.h</text>
</a>
</g>
</g>
<!-- Node2&#45;&gt;Node6 -->
<g id="edge5" class="edge">
<title>Node2&#45;&gt;Node6</title>
<path fill="none" stroke="midnightblue" d="M407.23,-118.66C341.41,-113.98 197.65,-101.8 67.77,-75.98"/>
<polygon fill="midnightblue" stroke="midnightblue" points="68.15,-72.48 57.65,-73.93 66.76,-79.34 68.15,-72.48"/>
</g>
<!-- Node7 -->
<g id="node7" class="node">
<title>Node7</title>
<g id="a_node7"><a xlink:title=" ">
<polygon fill="white" stroke="#bfbfbf" points="75.41,-56.5 75.41,-75.5 131.41,-75.5 131.41,-56.5 75.41,-56.5"/>
<text text-anchor="middle" x="103.41" y="-63.5" font-family="Helvetica,sans-Serif" font-size="10.00">unistd.h</text>
</a>
</g>
</g>
<!-- Node2&#45;&gt;Node7 -->
<g id="edge6" class="edge">
<title>Node2&#45;&gt;Node7</title>
<path fill="none" stroke="midnightblue" d="M407.31,-116.72C352.12,-109.94 243.26,-95.65 141.46,-76.06"/>
<polygon fill="midnightblue" stroke="midnightblue" points="142.12,-72.62 131.63,-74.15 140.78,-79.49 142.12,-72.62"/>
</g>
<!-- Node2&#45;&gt;Node8 -->
<g id="edge7" class="edge">
<title>Node2&#45;&gt;Node8</title>
<path fill="none" stroke="midnightblue" d="M479.73,-116.85C538.25,-109.93 656.9,-94.9 756.41,-76 757.87,-75.72 759.35,-75.43 760.85,-75.12"/>
<polygon fill="midnightblue" stroke="midnightblue" points="761.74,-78.51 770.76,-72.95 760.24,-71.67 761.74,-78.51"/>
</g>
<!-- Node9 -->
<g id="node9" class="node">
<title>Node9</title>
<g id="a_node9"><a xlink:title=" ">
<polygon fill="white" stroke="#bfbfbf" points="149.91,-56.5 149.91,-75.5 202.91,-75.5 202.91,-56.5 149.91,-56.5"/>
<text text-anchor="middle" x="176.41" y="-63.5" font-family="Helvetica,sans-Serif" font-size="10.00">netdb.h</text>
</a>
</g>
</g>
<!-- Node2&#45;&gt;Node9 -->
<g id="edge8" class="edge">
<title>Node2&#45;&gt;Node9</title>
<path fill="none" stroke="midnightblue" d="M407.28,-114.57C363.66,-106.67 287.88,-92.53 213.16,-76.07"/>
<polygon fill="midnightblue" stroke="midnightblue" points="213.63,-72.59 203.11,-73.84 212.11,-79.42 213.63,-72.59"/>
</g>
<!-- Node10 -->
<g id="node10" class="node">
<title>Node10</title>
<g id="a_node10"><a xlink:title=" ">
<polygon fill="white" stroke="#bfbfbf" points="221.41,-56.5 221.41,-75.5 293.41,-75.5 293.41,-56.5 221.41,-56.5"/>
<text text-anchor="middle" x="257.41" y="-63.5" font-family="Helvetica,sans-Serif" font-size="10.00">netinet/in.h</text>
</a>
</g>
</g>
<!-- Node2&#45;&gt;Node10 -->
<g id="edge9" class="edge">
<title>Node2&#45;&gt;Node10</title>
<path fill="none" stroke="midnightblue" d="M413.94,-112.44C382.24,-103.24 331.68,-88.56 296.63,-78.39"/>
<polygon fill="midnightblue" stroke="midnightblue" points="297.32,-74.94 286.74,-75.52 295.37,-81.67 297.32,-74.94"/>
</g>
<!-- Node11 -->
<g id="node11" class="node">
<title>Node11</title>
<g id="a_node11"><a xlink:title=" ">
<polygon fill="white" stroke="#bfbfbf" points="311.91,-56.5 311.91,-75.5 388.91,-75.5 388.91,-56.5 311.91,-56.5"/>
<text text-anchor="middle" x="350.41" y="-63.5" font-family="Helvetica,sans-Serif" font-size="10.00">sys/socket.h</text>
</a>
</g>
</g>
<!-- Node2&#45;&gt;Node11 -->
<g id="edge10" class="edge">
<title>Node2&#45;&gt;Node11</title>
<path fill="none" stroke="midnightblue" d="M428.47,-112.32C413.82,-103.82 391.28,-90.73 374.17,-80.8"/>
<polygon fill="midnightblue" stroke="midnightblue" points="375.72,-77.65 365.31,-75.65 372.2,-83.7 375.72,-77.65"/>
</g>
<!-- Node12 -->
<g id="node12" class="node">
<title>Node12</title>
<g id="a_node12"><a xlink:title=" ">
<polygon fill="white" stroke="#bfbfbf" points="407.41,-56.5 407.41,-75.5 479.41,-75.5 479.41,-56.5 407.41,-56.5"/>
<text text-anchor="middle" x="443.41" y="-63.5" font-family="Helvetica,sans-Serif" font-size="10.00">sys/types.h</text>
</a>
</g>
</g>
<!-- Node2&#45;&gt;Node12 -->
<g id="edge11" class="edge">
<title>Node2&#45;&gt;Node12</title>
<path fill="none" stroke="midnightblue" d="M443.41,-112.08C443.41,-105.01 443.41,-94.86 443.41,-85.99"/>
<polygon fill="midnightblue" stroke="midnightblue" points="446.91,-85.75 443.41,-75.75 439.91,-85.75 446.91,-85.75"/>
</g>
<!-- Node13 -->
<g id="node13" class="node">
<title>Node13</title>
<g id="a_node13"><a xlink:href="Message_8hpp.html" target="_top" xlink:title=" ">
<polygon fill="white" stroke="black" points="588.91,-56.5 588.91,-75.5 675.91,-75.5 675.91,-56.5 588.91,-56.5"/>
<text text-anchor="middle" x="632.41" y="-63.5" font-family="Helvetica,sans-Serif" font-size="10.00">./Message.hpp</text>
</a>
</g>
</g>
<!-- Node2&#45;&gt;Node13 -->
<g id="edge12" class="edge">
<title>Node2&#45;&gt;Node13</title>
<path fill="none" stroke="midnightblue" d="M473.36,-112.44C505.57,-103.24 556.94,-88.56 592.55,-78.39"/>
<polygon fill="midnightblue" stroke="midnightblue" points="593.95,-81.63 602.6,-75.52 592.02,-74.9 593.95,-81.63"/>
</g>
<!-- Node15 -->
<g id="node15" class="node">
<title>Node15</title>
<g id="a_node15"><a xlink:href="config_8hpp.html" target="_top" xlink:title=" ">
<polygon fill="white" stroke="black" points="497.91,-56.5 497.91,-75.5 570.91,-75.5 570.91,-56.5 497.91,-56.5"/>
<text text-anchor="middle" x="534.41" y="-63.5" font-family="Helvetica,sans-Serif" font-size="10.00">./config.hpp</text>
</a>
</g>
</g>
<!-- Node2&#45;&gt;Node15 -->
<g id="edge17" class="edge">
<title>Node2&#45;&gt;Node15</title>
<path fill="none" stroke="midnightblue" d="M458.03,-112.32C472.36,-103.82 494.42,-90.73 511.16,-80.8"/>
<polygon fill="midnightblue" stroke="midnightblue" points="513.01,-83.77 519.82,-75.65 509.44,-77.75 513.01,-83.77"/>
</g>
<!-- Node13&#45;&gt;Node3 -->
<g id="edge13" class="edge">
<title>Node13&#45;&gt;Node3</title>
<path fill="none" stroke="midnightblue" d="M588.75,-57.49C585.59,-56.98 582.45,-56.47 579.41,-56 477.61,-40.11 357,-23.57 298.59,-15.7"/>
<polygon fill="midnightblue" stroke="midnightblue" points="298.81,-12.2 288.43,-14.33 297.88,-19.13 298.81,-12.2"/>
</g>
<!-- Node13&#45;&gt;Node4 -->
<g id="edge14" class="edge">
<title>Node13&#45;&gt;Node4</title>
<path fill="none" stroke="midnightblue" d="M639.51,-56.08C645.65,-48.38 654.68,-37.03 662.15,-27.65"/>
<polygon fill="midnightblue" stroke="midnightblue" points="664.95,-29.75 668.44,-19.75 659.47,-25.39 664.95,-29.75"/>
</g>
<!-- Node13&#45;&gt;Node5 -->
<g id="edge15" class="edge">
<title>Node13&#45;&gt;Node5</title>
<path fill="none" stroke="midnightblue" d="M650.08,-56.32C667.8,-47.62 695.31,-34.12 715.7,-24.11"/>
<polygon fill="midnightblue" stroke="midnightblue" points="717.34,-27.2 724.78,-19.65 714.26,-20.92 717.34,-27.2"/>
</g>
<!-- Node14 -->
<g id="node14" class="node">
<title>Node14</title>
<g id="a_node14"><a xlink:title=" ">
<polygon fill="white" stroke="#bfbfbf" points="583.41,-0.5 583.41,-19.5 627.41,-19.5 627.41,-0.5 583.41,-0.5"/>
<text text-anchor="middle" x="605.41" y="-7.5" font-family="Helvetica,sans-Serif" font-size="10.00">string</text>
</a>
</g>
</g>
<!-- Node13&#45;&gt;Node14 -->
<g id="edge16" class="edge">
<title>Node13&#45;&gt;Node14</title>
<path fill="none" stroke="midnightblue" d="M627.95,-56.08C624.25,-48.69 618.89,-37.95 614.31,-28.81"/>
<polygon fill="midnightblue" stroke="midnightblue" points="617.39,-27.13 609.78,-19.75 611.13,-30.26 617.39,-27.13"/>
</g>
</g>
</svg>
        <g id="navigator" transform="translate(0 0)" fill="#404254">
                <rect fill="#f2f5e9" fill-opacity="0.5" stroke="#606060" stroke-width=".5" x="0" y="0" width="60" height="60"/>
                <use id="zoomplus" xlink:href="#zoomPlus" x="17" y="9" onmousedown="handleZoom(evt,'in')"/>
                <use id="zoomminus" xlink:href="#zoomMin" x="42" y="9" onmousedown="handleZoom(evt,'out')"/>
                <use id="reset" xlink:href="#resetDef" x="30" y="36" onmousedown="handleReset()"/>
                <g id="arrowUp" xlink:href="#dirArrow" transform="translate(30 24)" onmousedown="handlePan(0,-1)">
                  <use xlink:href="#rim" fill="#404040">
                        <set attributeName="fill" to="#808080" begin="arrowUp.mouseover" end="arrowUp.mouseout"/>
                  </use>
                  <path fill="none" stroke="white" stroke-width="1.5" d="M0,-3.0v7 M-2.5,-0.5L0,-3.0L2.5,-0.5"/>
                </g>
                <g id="arrowRight" xlink:href="#dirArrow" transform="rotate(90) translate(36 -43)" onmousedown="handlePan(1,0)">
                  <use xlink:href="#rim" fill="#404040">
                        <set attributeName="fill" to="#808080" begin="arrowRight.mouseover" end="arrowRight.mouseout"/>
                  </use>
                  <path fill="none" stroke="white" stroke-width="1.5" d="M0,-3.0v7 M-2.5,-0.5L0,-3.0L2.5,-0.5"/>
                </g>
                <g id="arrowDown" xlink:href="#dirArrow" transform="rotate(180) translate(-30 -48)" onmousedown="handlePan(0,1)">
                  <use xlink:href="#rim" fill="#404040">
                        <set attributeName="fill" to="#808080" begin="arrowDown.mouseover" end="arrowDown.mouseout"/>
                  </use>
                  <path fill="none" stroke="white" stroke-width="1.5" d="M0,-3.0v7 M-2.5,-0.5L0,-3.0L2.5,-0.5"/>
                </g>
                <g id="arrowLeft" xlink:href="#dirArrow" transform="rotate(270) translate(-36 17)" onmousedown="handlePan(-1,0)">
                  <use xlink:href="#rim" fill="#404040">
                        <set attributeName="fill" to="#808080" begin="arrowLeft.mouseover" end="arrowLeft.mouseout"/>
                  </use>
                  <path fill="none" stroke="white" stroke-width="1.5" d="M0,-3.0v7 M-2.5,-0.5L0,-3.0L2.5,-0.5"/>
                </g>
        </g>
        <svg viewBox="0 0 15 15" width="100%" height="30px" preserveAspectRatio="xMaxYMin meet">
         <g id="arrow_out" transform="scale(0.3 0.3)">
          <a xlink:href="Channel_8hpp__incl_org.svg" target="_base">
           <rect id="button" ry="5" rx="5" y="6" x="6" height="38" width="38"
                fill="#f2f5e9" fill-opacity="0.5" stroke="#606060" stroke-width="1.0"/>
           <path id="arrow"
             d="M 11.500037,31.436501 C 11.940474,20.09759 22.043105,11.32322 32.158766,21.979434 L 37.068811,17.246167 C 37.068811,17.246167 37.088388,32 37.088388,32 L 22.160133,31.978069 C 22.160133,31.978069 26.997745,27.140456 26.997745,27.140456 C 18.528582,18.264221 13.291696,25.230495 11.500037,31.436501 z"
             style="fill:#404040;"/>
          </a>
         </g>
        </svg>
</svg>
