<?xml version="1.0" encoding="UTF-8" standalone="no"?>
<!DOCTYPE svg PUBLIC "-//W3C//DTD SVG 1.1//EN"
 "http://www.w3.org/Graphics/SVG/1.1/DTD/svg11.dtd">
<!-- Generated by graphviz version 2.43.0 (0)
 -->
<!-- Title: Message::getParams Pages: 1 -->
<svg width="377pt" height="446pt"
 viewBox="0.00 0.00 377.00 446.00" xmlns="http://www.w3.org/2000/svg" xmlns:xlink="http://www.w3.org/1999/xlink">
<g id="graph0" class="graph" transform="scale(1 1) rotate(0) translate(4 442)">
<title>Message::getParams</title>
<polygon fill="white" stroke="transparent" points="-4,4 -4,-442 373,-442 373,4 -4,4"/>
<!-- Node1 -->
<g id="node1" class="node">
<title>Node1</title>
<g id="a_node1"><a xlink:title=" ">
<polygon fill="#bfbfbf" stroke="black" points="251,-209.5 251,-228.5 369,-228.5 369,-209.5 251,-209.5"/>
<text text-anchor="middle" x="310" y="-216.5" font-family="Helvetica,sans-Serif" font-size="10.00">Message::getParams</text>
</a>
</g>
</g>
<!-- Node2 -->
<g id="node2" class="node">
<title>Node2</title>
<g id="a_node2"><a xlink:href="className.html#a8087bee4e452ab6efa7d7b5a24babc14" target="_top" xlink:title=" ">
<polygon fill="white" stroke="black" points="119.5,-418.5 119.5,-437.5 209.5,-437.5 209.5,-418.5 119.5,-418.5"/>
<text text-anchor="middle" x="164.5" y="-425.5" font-family="Helvetica,sans-Serif" font-size="10.00">Name::execute</text>
</a>
</g>
</g>
<!-- Node1&#45;&gt;Node2 -->
<g id="edge1" class="edge">
<title>Node1&#45;&gt;Node2</title>
<path fill="none" stroke="midnightblue" d="M304.4,-238.65C294.51,-276.71 267.74,-360.95 215,-409 210.78,-412.84 205.7,-415.94 200.43,-418.43"/>
<polygon fill="midnightblue" stroke="midnightblue" points="307.83,-239.36 306.84,-228.81 301.03,-237.67 307.83,-239.36"/>
</g>
<!-- Node3 -->
<g id="node3" class="node">
<title>Node3</title>
<g id="a_node3"><a xlink:href="classHelp.html#ac8da533c9e52b7c4b6db6bb204ac1ea2" target="_top" xlink:title=" ">
<polygon fill="white" stroke="black" points="123,-380.5 123,-399.5 206,-399.5 206,-380.5 123,-380.5"/>
<text text-anchor="middle" x="164.5" y="-387.5" font-family="Helvetica,sans-Serif" font-size="10.00">Help::execute</text>
</a>
</g>
</g>
<!-- Node1&#45;&gt;Node3 -->
<g id="edge2" class="edge">
<title>Node1&#45;&gt;Node3</title>
<path fill="none" stroke="midnightblue" d="M301.91,-238.17C289.21,-270.03 259.66,-334.02 215,-371 210.39,-374.82 204.93,-377.92 199.35,-380.43"/>
<polygon fill="midnightblue" stroke="midnightblue" points="305.23,-239.28 305.57,-228.69 298.7,-236.76 305.23,-239.28"/>
</g>
<!-- Node4 -->
<g id="node4" class="node">
<title>Node4</title>
<g id="a_node4"><a xlink:href="classEcho.html#a0c42829482db8d34dbf1e53a6bb7ead1" target="_top" xlink:title=" ">
<polygon fill="white" stroke="black" points="122.5,-342.5 122.5,-361.5 206.5,-361.5 206.5,-342.5 122.5,-342.5"/>
<text text-anchor="middle" x="164.5" y="-349.5" font-family="Helvetica,sans-Serif" font-size="10.00">Echo::execute</text>
</a>
</g>
</g>
<!-- Node1&#45;&gt;Node4 -->
<g id="edge3" class="edge">
<title>Node1&#45;&gt;Node4</title>
<path fill="none" stroke="midnightblue" d="M298.08,-237.48C282.53,-262.35 251.76,-306.54 215,-333 209.77,-336.76 203.7,-339.89 197.64,-342.45"/>
<polygon fill="midnightblue" stroke="midnightblue" points="301.23,-239.04 303.45,-228.68 295.25,-235.39 301.23,-239.04"/>
</g>
<!-- Node5 -->
<g id="node5" class="node">
<title>Node5</title>
<g id="a_node5"><a xlink:href="classOpe.html#a17e5dc74c6e7daa30922ca1c8ac57b14" target="_top" xlink:title=" ">
<polygon fill="white" stroke="black" points="124.5,-304.5 124.5,-323.5 204.5,-323.5 204.5,-304.5 124.5,-304.5"/>
<text text-anchor="middle" x="164.5" y="-311.5" font-family="Helvetica,sans-Serif" font-size="10.00">Ope::execute</text>
</a>
</g>
</g>
<!-- Node1&#45;&gt;Node5 -->
<g id="edge4" class="edge">
<title>Node1&#45;&gt;Node5</title>
<path fill="none" stroke="midnightblue" d="M289.72,-235.34C271.26,-250.55 242.26,-273.32 215,-290 206.37,-295.28 196.39,-300.31 187.67,-304.38"/>
<polygon fill="midnightblue" stroke="midnightblue" points="292.21,-237.82 297.65,-228.74 287.73,-232.45 292.21,-237.82"/>
</g>
<!-- Node6 -->
<g id="node6" class="node">
<title>Node6</title>
<g id="a_node6"><a xlink:href="classList.html#aff51763e0db147807a8ba7d3f15e1559" target="_top" xlink:title=" ">
<polygon fill="white" stroke="black" points="0,-171.5 0,-190.5 78,-190.5 78,-171.5 0,-171.5"/>
<text text-anchor="middle" x="39" y="-178.5" font-family="Helvetica,sans-Serif" font-size="10.00">List::execute</text>
</a>
</g>
</g>
<!-- Node1&#45;&gt;Node6 -->
<g id="edge5" class="edge">
<title>Node1&#45;&gt;Node6</title>
<path fill="none" stroke="midnightblue" d="M283.21,-233.22C244.93,-252.33 171.42,-281.23 114,-257 81.59,-243.32 56.35,-207.75 45.62,-190.57"/>
<polygon fill="midnightblue" stroke="midnightblue" points="284.86,-236.31 292.15,-228.62 281.66,-230.08 284.86,-236.31"/>
</g>
<!-- Node7 -->
<g id="node7" class="node">
<title>Node7</title>
<g id="a_node7"><a xlink:href="classBan.html#aab15f55f6d7848dc3eb810b4c905fea7" target="_top" xlink:title=" ">
<polygon fill="white" stroke="black" points="124.5,-228.5 124.5,-247.5 204.5,-247.5 204.5,-228.5 124.5,-228.5"/>
<text text-anchor="middle" x="164.5" y="-235.5" font-family="Helvetica,sans-Serif" font-size="10.00">Ban::execute</text>
</a>
</g>
</g>
<!-- Node1&#45;&gt;Node7 -->
<g id="edge6" class="edge">
<title>Node1&#45;&gt;Node7</title>
<path fill="none" stroke="midnightblue" d="M240.36,-228.09C228.05,-229.72 215.62,-231.36 204.52,-232.83"/>
<polygon fill="midnightblue" stroke="midnightblue" points="241.18,-231.51 250.63,-226.73 240.26,-224.57 241.18,-231.51"/>
</g>
<!-- Node8 -->
<g id="node8" class="node">
<title>Node8</title>
<g id="a_node8"><a xlink:href="classJoin.html#a77631ed35ab8829cd152d82db3b51578" target="_top" xlink:title=" ">
<polygon fill="white" stroke="black" points="125,-190.5 125,-209.5 204,-209.5 204,-190.5 125,-190.5"/>
<text text-anchor="middle" x="164.5" y="-197.5" font-family="Helvetica,sans-Serif" font-size="10.00">Join::execute</text>
</a>
</g>
</g>
<!-- Node1&#45;&gt;Node8 -->
<g id="edge7" class="edge">
<title>Node1&#45;&gt;Node8</title>
<path fill="none" stroke="midnightblue" d="M240.63,-209.95C228.07,-208.29 215.38,-206.6 204.1,-205.11"/>
<polygon fill="midnightblue" stroke="midnightblue" points="240.26,-213.43 250.63,-211.27 241.18,-206.49 240.26,-213.43"/>
</g>
<!-- Node9 -->
<g id="node9" class="node">
<title>Node9</title>
<g id="a_node9"><a xlink:href="classPrivMsg.html#adce8dbb65a1d11bc5b46e2ad77333404" target="_top" xlink:title=" ">
<polygon fill="white" stroke="black" points="114.5,-152.5 114.5,-171.5 214.5,-171.5 214.5,-152.5 114.5,-152.5"/>
<text text-anchor="middle" x="164.5" y="-159.5" font-family="Helvetica,sans-Serif" font-size="10.00">PrivMsg::execute</text>
</a>
</g>
</g>
<!-- Node1&#45;&gt;Node9 -->
<g id="edge8" class="edge">
<title>Node1&#45;&gt;Node9</title>
<path fill="none" stroke="midnightblue" d="M276.01,-205.5C258.01,-198.17 235.31,-189 215,-181 207.12,-177.9 198.51,-174.57 190.72,-171.58"/>
<polygon fill="midnightblue" stroke="midnightblue" points="274.9,-208.82 285.48,-209.36 277.54,-202.34 274.9,-208.82"/>
</g>
<!-- Node10 -->
<g id="node10" class="node">
<title>Node10</title>
<g id="a_node10"><a xlink:href="classBan.html#a7f38b7260f84fa4612f9ac28bc03170e" target="_top" xlink:title=" ">
<polygon fill="white" stroke="black" points="124,-114.5 124,-133.5 205,-133.5 205,-114.5 124,-114.5"/>
<text text-anchor="middle" x="164.5" y="-121.5" font-family="Helvetica,sans-Serif" font-size="10.00">Ban::validate</text>
</a>
</g>
</g>
<!-- Node1&#45;&gt;Node10 -->
<g id="edge9" class="edge">
<title>Node1&#45;&gt;Node10</title>
<path fill="none" stroke="midnightblue" d="M291.96,-202.44C274.01,-185.68 244.32,-159.91 215,-143 208.78,-139.41 201.76,-136.25 194.99,-133.58"/>
<polygon fill="midnightblue" stroke="midnightblue" points="289.68,-205.09 299.34,-209.44 294.5,-200.01 289.68,-205.09"/>
</g>
<!-- Node11 -->
<g id="node11" class="node">
<title>Node11</title>
<g id="a_node11"><a xlink:href="classList.html#abe68a85c129511265f9e03260f788ba4" target="_top" xlink:title=" ">
<polygon fill="white" stroke="black" points="124.5,-76.5 124.5,-95.5 204.5,-95.5 204.5,-76.5 124.5,-76.5"/>
<text text-anchor="middle" x="164.5" y="-83.5" font-family="Helvetica,sans-Serif" font-size="10.00">List::validate</text>
</a>
</g>
</g>
<!-- Node1&#45;&gt;Node11 -->
<g id="edge10" class="edge">
<title>Node1&#45;&gt;Node11</title>
<path fill="none" stroke="midnightblue" d="M298.08,-200.52C282.53,-175.65 251.76,-131.46 215,-105 209.77,-101.24 203.7,-98.11 197.64,-95.55"/>
<polygon fill="midnightblue" stroke="midnightblue" points="295.25,-202.61 303.45,-209.32 301.23,-198.96 295.25,-202.61"/>
</g>
<!-- Node12 -->
<g id="node12" class="node">
<title>Node12</title>
<g id="a_node12"><a xlink:href="classJoin.html#a207289889718fa33c1a6892241aa60d4" target="_top" xlink:title=" ">
<polygon fill="white" stroke="black" points="124.5,-38.5 124.5,-57.5 204.5,-57.5 204.5,-38.5 124.5,-38.5"/>
<text text-anchor="middle" x="164.5" y="-45.5" font-family="Helvetica,sans-Serif" font-size="10.00">Join::validate</text>
</a>
</g>
</g>
<!-- Node1&#45;&gt;Node12 -->
<g id="edge12" class="edge">
<title>Node1&#45;&gt;Node12</title>
<path fill="none" stroke="midnightblue" d="M301.91,-199.83C289.21,-167.97 259.66,-103.98 215,-67 210.39,-63.18 204.93,-60.08 199.35,-57.57"/>
<polygon fill="midnightblue" stroke="midnightblue" points="298.7,-201.24 305.57,-209.31 305.23,-198.72 298.7,-201.24"/>
</g>
<!-- Node13 -->
<g id="node13" class="node">
<title>Node13</title>
<g id="a_node13"><a xlink:href="classPrivMsg.html#a5c569ecdef5c59b9aee0e6ee1156ffd5" target="_top" xlink:title=" ">
<polygon fill="white" stroke="black" points="114,-0.5 114,-19.5 215,-19.5 215,-0.5 114,-0.5"/>
<text text-anchor="middle" x="164.5" y="-7.5" font-family="Helvetica,sans-Serif" font-size="10.00">PrivMsg::validate</text>
</a>
</g>
</g>
<!-- Node1&#45;&gt;Node13 -->
<g id="edge13" class="edge">
<title>Node1&#45;&gt;Node13</title>
<path fill="none" stroke="midnightblue" d="M304.4,-199.35C294.51,-161.29 267.74,-77.05 215,-29 210.78,-25.16 205.7,-22.06 200.43,-19.57"/>
<polygon fill="midnightblue" stroke="midnightblue" points="301.03,-200.33 306.84,-209.19 307.83,-198.64 301.03,-200.33"/>
</g>
<!-- Node11&#45;&gt;Node6 -->
<g id="edge11" class="edge">
<title>Node11&#45;&gt;Node6</title>
<path fill="none" stroke="midnightblue" d="M123.21,-99.73C120.01,-101.34 116.89,-103.09 114,-105 85.4,-123.85 59.29,-155.43 47.16,-171.29"/>
<polygon fill="midnightblue" stroke="midnightblue" points="124.71,-102.89 132.38,-95.58 121.83,-96.51 124.71,-102.89"/>
</g>
</g>
</svg>
