<?xml version="1.0" encoding="UTF-8" standalone="no"?>
<!DOCTYPE svg PUBLIC "-//W3C//DTD SVG 1.1//EN"
 "http://www.w3.org/Graphics/SVG/1.1/DTD/svg11.dtd">
<!-- Generated by graphviz version 2.43.0 (0)
 -->
<!-- Title: Channel::joined Pages: 1 -->
<svg width="236pt" height="104pt"
 viewBox="0.00 0.00 236.00 104.00" xmlns="http://www.w3.org/2000/svg" xmlns:xlink="http://www.w3.org/1999/xlink">
<g id="graph0" class="graph" transform="scale(1 1) rotate(0) translate(4 100)">
<title>Channel::joined</title>
<polygon fill="white" stroke="transparent" points="-4,4 -4,-100 232,-100 232,4 -4,4"/>
<!-- Node1 -->
<g id="node1" class="node">
<title>Node1</title>
<g id="a_node1"><a xlink:title=" ">
<polygon fill="#bfbfbf" stroke="black" points="136,-38.5 136,-57.5 228,-57.5 228,-38.5 136,-38.5"/>
<text text-anchor="middle" x="182" y="-45.5" font-family="Helvetica,sans-Serif" font-size="10.00">Channel::joined</text>
</a>
</g>
</g>
<!-- Node2 -->
<g id="node2" class="node">
<title>Node2</title>
<g id="a_node2"><a xlink:href="classList.html#aff51763e0db147807a8ba7d3f15e1559" target="_top" xlink:title=" ">
<polygon fill="white" stroke="black" points="11,-76.5 11,-95.5 89,-95.5 89,-76.5 11,-76.5"/>
<text text-anchor="middle" x="50" y="-83.5" font-family="Helvetica,sans-Serif" font-size="10.00">List::execute</text>
</a>
</g>
</g>
<!-- Node1&#45;&gt;Node2 -->
<g id="edge1" class="edge">
<title>Node1&#45;&gt;Node2</title>
<path fill="none" stroke="midnightblue" d="M138.12,-60.54C120.43,-65.7 100.27,-71.6 83.79,-76.41"/>
<polygon fill="midnightblue" stroke="midnightblue" points="139.58,-63.75 148.2,-57.59 137.62,-57.04 139.58,-63.75"/>
</g>
<!-- Node3 -->
<g id="node3" class="node">
<title>Node3</title>
<g id="a_node3"><a xlink:href="classPrivMsg.html#adce8dbb65a1d11bc5b46e2ad77333404" target="_top" xlink:title=" ">
<polygon fill="white" stroke="black" points="0,-38.5 0,-57.5 100,-57.5 100,-38.5 0,-38.5"/>
<text text-anchor="middle" x="50" y="-45.5" font-family="Helvetica,sans-Serif" font-size="10.00">PrivMsg::execute</text>
</a>
</g>
</g>
<!-- Node1&#45;&gt;Node3 -->
<g id="edge2" class="edge">
<title>Node1&#45;&gt;Node3</title>
<path fill="none" stroke="midnightblue" d="M125.66,-48C117.13,-48 108.39,-48 100.02,-48"/>
<polygon fill="midnightblue" stroke="midnightblue" points="125.9,-51.5 135.9,-48 125.9,-44.5 125.9,-51.5"/>
</g>
<!-- Node4 -->
<g id="node4" class="node">
<title>Node4</title>
<g id="a_node4"><a xlink:href="classJoin.html#a207289889718fa33c1a6892241aa60d4" target="_top" xlink:title=" ">
<polygon fill="white" stroke="black" points="10,-0.5 10,-19.5 90,-19.5 90,-0.5 10,-0.5"/>
<text text-anchor="middle" x="50" y="-7.5" font-family="Helvetica,sans-Serif" font-size="10.00">Join::validate</text>
</a>
</g>
</g>
<!-- Node1&#45;&gt;Node4 -->
<g id="edge3" class="edge">
<title>Node1&#45;&gt;Node4</title>
<path fill="none" stroke="midnightblue" d="M138.12,-35.46C120.43,-30.3 100.27,-24.4 83.79,-19.59"/>
<polygon fill="midnightblue" stroke="midnightblue" points="137.62,-38.96 148.2,-38.41 139.58,-32.25 137.62,-38.96"/>
</g>
</g>
</svg>
