<?xml version="1.0" encoding="UTF-8" standalone="no"?>
<!DOCTYPE svg PUBLIC "-//W3C//DTD SVG 1.1//EN"
 "http://www.w3.org/Graphics/SVG/1.1/DTD/svg11.dtd">
<!-- Generated by graphviz version 2.43.0 (0)
 -->
<!-- Title: Whois Pages: 1 -->
<svg width="204pt" height="152pt"
 viewBox="0.00 0.00 204.00 152.00" xmlns="http://www.w3.org/2000/svg" xmlns:xlink="http://www.w3.org/1999/xlink">
<g id="graph0" class="graph" transform="scale(1 1) rotate(0) translate(4 148)">
<title>Whois</title>
<polygon fill="white" stroke="transparent" points="-4,4 -4,-148 200,-148 200,4 -4,4"/>
<!-- Node1 -->
<g id="node1" class="node">
<title>Node1</title>
<g id="a_node1"><a xlink:title=" ">
<polygon fill="#bfbfbf" stroke="black" points="65.5,-0.5 65.5,-19.5 112.5,-19.5 112.5,-0.5 65.5,-0.5"/>
<text text-anchor="middle" x="89" y="-7.5" font-family="Helvetica,sans-Serif" font-size="10.00">Whois</text>
</a>
</g>
</g>
<!-- Node2 -->
<g id="node2" class="node">
<title>Node2</title>
<g id="a_node2"><a xlink:href="classCommand.html" target="_top" xlink:title=" ">
<polygon fill="white" stroke="black" points="55.5,-57.5 55.5,-76.5 122.5,-76.5 122.5,-57.5 55.5,-57.5"/>
<text text-anchor="middle" x="89" y="-64.5" font-family="Helvetica,sans-Serif" font-size="10.00">Command</text>
</a>
</g>
</g>
<!-- Node2&#45;&gt;Node1 -->
<g id="edge1" class="edge">
<title>Node2&#45;&gt;Node1</title>
<path fill="none" stroke="midnightblue" d="M89,-47.12C89,-37.82 89,-27.06 89,-19.71"/>
<polygon fill="midnightblue" stroke="midnightblue" points="85.5,-47.41 89,-57.41 92.5,-47.41 85.5,-47.41"/>
</g>
<!-- Node3 -->
<g id="node3" class="node">
<title>Node3</title>
<g id="a_node3"><a xlink:href="classServer.html" target="_top" xlink:title=" ">
<polygon fill="white" stroke="black" points="0,-124.5 0,-143.5 48,-143.5 48,-124.5 0,-124.5"/>
<text text-anchor="middle" x="24" y="-131.5" font-family="Helvetica,sans-Serif" font-size="10.00">Server</text>
</a>
</g>
</g>
<!-- Node3&#45;&gt;Node2 -->
<g id="edge2" class="edge">
<title>Node3&#45;&gt;Node2</title>
<path fill="none" stroke="#9a32cd" stroke-dasharray="5,2" d="M31.48,-115.13C34.92,-108.31 39.47,-100.79 45,-95 52.18,-87.48 61.89,-81.23 70.36,-76.65"/>
<polygon fill="#9a32cd" stroke="#9a32cd" points="28.24,-113.79 27.26,-124.34 34.61,-116.71 28.24,-113.79"/>
<text text-anchor="middle" x="65" y="-98" font-family="Helvetica,sans-Serif" font-size="10.00"> _server</text>
</g>
<!-- Node4 -->
<g id="node4" class="node">
<title>Node4</title>
<g id="a_node4"><a xlink:href="classClient.html" target="_top" xlink:title=" ">
<polygon fill="white" stroke="black" points="66.5,-124.5 66.5,-143.5 111.5,-143.5 111.5,-124.5 66.5,-124.5"/>
<text text-anchor="middle" x="89" y="-131.5" font-family="Helvetica,sans-Serif" font-size="10.00">Client</text>
</a>
</g>
</g>
<!-- Node4&#45;&gt;Node2 -->
<g id="edge3" class="edge">
<title>Node4&#45;&gt;Node2</title>
<path fill="none" stroke="#9a32cd" stroke-dasharray="5,2" d="M89,-114.04C89,-101.67 89,-86.12 89,-76.63"/>
<polygon fill="#9a32cd" stroke="#9a32cd" points="85.5,-114.23 89,-124.23 92.5,-114.23 85.5,-114.23"/>
<text text-anchor="middle" x="110" y="-98" font-family="Helvetica,sans-Serif" font-size="10.00"> _sender</text>
</g>
<!-- Node5 -->
<g id="node5" class="node">
<title>Node5</title>
<g id="a_node5"><a xlink:href="classMessage.html" target="_top" xlink:title=" ">
<polygon fill="white" stroke="black" points="130,-124.5 130,-143.5 190,-143.5 190,-124.5 130,-124.5"/>
<text text-anchor="middle" x="160" y="-131.5" font-family="Helvetica,sans-Serif" font-size="10.00">Message</text>
</a>
</g>
</g>
<!-- Node5&#45;&gt;Node2 -->
<g id="edge4" class="edge">
<title>Node5&#45;&gt;Node2</title>
<path fill="none" stroke="#9a32cd" stroke-dasharray="5,2" d="M150.87,-115.59C146.66,-108.64 141.22,-100.91 135,-95 127.08,-87.47 116.69,-81.15 107.78,-76.52"/>
<polygon fill="#9a32cd" stroke="#9a32cd" points="147.83,-117.34 155.79,-124.34 153.93,-113.91 147.83,-117.34"/>
<text text-anchor="middle" x="169.5" y="-98" font-family="Helvetica,sans-Serif" font-size="10.00"> _message</text>
</g>
</g>
</svg>
