<?xml version="1.0" encoding="UTF-8" standalone="no"?>
<!DOCTYPE svg PUBLIC "-//W3C//DTD SVG 1.1//EN"
 "http://www.w3.org/Graphics/SVG/1.1/DTD/svg11.dtd">
<!-- Generated by graphviz version 2.43.0 (0)
 -->
<!-- Title: Client::message Pages: 1 -->
<!--zoomable 598 -->
<svg id="main" version="1.1" xmlns="http://www.w3.org/2000/svg" xmlns:xlink="http://www.w3.org/1999/xlink" xml:space="preserve" onload="init(evt)">
<style type="text/css"><![CDATA[
.edge:hover path { stroke: red; }
.edge:hover polygon { stroke: red; fill: red; }
]]></style>
<script type="text/javascript"><![CDATA[
var edges = document.getElementsByTagName('g');
if (edges && edges.length) {
  for (var i=0;i<edges.length;i++) {
    if (edges[i].id.substr(0,4)=='edge') {
      edges[i].setAttribute('class','edge');
    }
  }
}
]]></script>
        <defs>
                <circle id="rim" cx="0" cy="0" r="7"/>
                <circle id="rim2" cx="0" cy="0" r="3.5"/>
                <g id="zoomPlus">
                        <use xlink:href="#rim" fill="#404040">
                                <set attributeName="fill" to="#808080" begin="zoomplus.mouseover" end="zoomplus.mouseout"/>
                        </use>
                        <path d="M-4,0h8M0,-4v8" fill="none" stroke="white" stroke-width="1.5" pointer-events="none"/>
                </g>
                <g id="zoomMin">
                        <use xlink:href="#rim" fill="#404040">
                                <set attributeName="fill" to="#808080" begin="zoomminus.mouseover" end="zoomminus.mouseout"/>
                        </use>
                        <path d="M-4,0h8" fill="none" stroke="white" stroke-width="1.5" pointer-events="none"/>
                </g>
                <g id="dirArrow">
                        <path fill="none" stroke="white" stroke-width="1.5" d="M0,-3.0v7 M-2.5,-0.5L0,-3.0L2.5,-0.5"/>
                </g>
               <g id="resetDef">
                       <use xlink:href="#rim2" fill="#404040">
                               <set attributeName="fill" to="#808080" begin="reset.mouseover" end="reset.mouseout"/>
                       </use>
               </g>
        </defs>

<script type="text/javascript">
var viewWidth = 396;
var viewHeight = 598;
var sectionId = 'dynsection-0';
</script>
<script xlink:href="svgpan.js"/>
<svg id="graph" class="graph">
<g id="viewport">
<title>Client::message</title>
<polygon fill="white" stroke="transparent" points="-4,4 -4,-594 392,-594 392,4 -4,4"/>
<!-- Node1 -->
<g id="node1" class="node">
<title>Node1</title>
<g id="a_node1"><a xlink:title=" ">
<polygon fill="#bfbfbf" stroke="black" points="293,-285.5 293,-304.5 388,-304.5 388,-285.5 293,-285.5"/>
<text text-anchor="middle" x="340.5" y="-292.5" font-family="Helvetica,sans-Serif" font-size="10.00">Client::message</text>
</a>
</g>
</g>
<!-- Node2 -->
<g id="node2" class="node">
<title>Node2</title>
<g id="a_node2"><a xlink:href="classPing.html#a2d0a96efcb954426b31d5a6a3f792ec8" target="_top" xlink:title=" ">
<polygon fill="white" stroke="black" points="150.5,-570.5 150.5,-589.5 232.5,-589.5 232.5,-570.5 150.5,-570.5"/>
<text text-anchor="middle" x="191.5" y="-577.5" font-family="Helvetica,sans-Serif" font-size="10.00">Ping::execute</text>
</a>
</g>
</g>
<!-- Node1&#45;&gt;Node2 -->
<g id="edge1" class="edge">
<title>Node1&#45;&gt;Node2</title>
<path fill="none" stroke="midnightblue" d="M339.37,-314.8C337.94,-363.79 327.29,-491.71 257,-561 250.35,-567.56 241.56,-571.87 232.61,-574.7"/>
<polygon fill="midnightblue" stroke="midnightblue" points="342.87,-314.67 339.56,-304.61 335.87,-314.54 342.87,-314.67"/>
</g>
<!-- Node3 -->
<g id="node3" class="node">
<title>Node3</title>
<g id="a_node3"><a xlink:href="classInfo.html#a83ffd57e16a927917842a8e3b8e88726" target="_top" xlink:title=" ">
<polygon fill="white" stroke="black" points="151.5,-532.5 151.5,-551.5 231.5,-551.5 231.5,-532.5 151.5,-532.5"/>
<text text-anchor="middle" x="191.5" y="-539.5" font-family="Helvetica,sans-Serif" font-size="10.00">Info::execute</text>
</a>
</g>
</g>
<!-- Node1&#45;&gt;Node3 -->
<g id="edge2" class="edge">
<title>Node1&#45;&gt;Node3</title>
<path fill="none" stroke="midnightblue" d="M337.67,-314.74C332.65,-357.59 314.97,-459.92 257,-518 250.08,-524.93 240.97,-529.89 231.79,-533.42"/>
<polygon fill="midnightblue" stroke="midnightblue" points="341.17,-314.85 338.75,-304.54 334.21,-314.11 341.17,-314.85"/>
</g>
<!-- Node4 -->
<g id="node4" class="node">
<title>Node4</title>
<g id="a_node4"><a xlink:href="className.html#a8087bee4e452ab6efa7d7b5a24babc14" target="_top" xlink:title=" ">
<polygon fill="white" stroke="black" points="0,-437.5 0,-456.5 90,-456.5 90,-437.5 0,-437.5"/>
<text text-anchor="middle" x="45" y="-444.5" font-family="Helvetica,sans-Serif" font-size="10.00">Name::execute</text>
</a>
</g>
</g>
<!-- Node1&#45;&gt;Node4 -->
<g id="edge3" class="edge">
<title>Node1&#45;&gt;Node4</title>
<path fill="none" stroke="midnightblue" d="M337.75,-314.98C333,-355.41 315.97,-446.32 257,-485 193.82,-526.44 98.16,-478.27 61.26,-456.54"/>
<polygon fill="midnightblue" stroke="midnightblue" points="341.25,-315.1 338.8,-304.8 334.29,-314.38 341.25,-315.1"/>
</g>
<!-- Node5 -->
<g id="node5" class="node">
<title>Node5</title>
<g id="a_node5"><a xlink:href="classHelp.html#ac8da533c9e52b7c4b6db6bb204ac1ea2" target="_top" xlink:title=" ">
<polygon fill="white" stroke="black" points="150,-456.5 150,-475.5 233,-475.5 233,-456.5 150,-456.5"/>
<text text-anchor="middle" x="191.5" y="-463.5" font-family="Helvetica,sans-Serif" font-size="10.00">Help::execute</text>
</a>
</g>
</g>
<!-- Node1&#45;&gt;Node5 -->
<g id="edge4" class="edge">
<title>Node1&#45;&gt;Node5</title>
<path fill="none" stroke="midnightblue" d="M334.25,-314.55C324.52,-346.95 300.63,-411.72 257,-447 250.1,-452.58 241.61,-456.52 233.09,-459.3"/>
<polygon fill="midnightblue" stroke="midnightblue" points="337.62,-315.46 337.01,-304.89 330.89,-313.54 337.62,-315.46"/>
</g>
<!-- Node6 -->
<g id="node6" class="node">
<title>Node6</title>
<g id="a_node6"><a xlink:href="classOpe.html#a17e5dc74c6e7daa30922ca1c8ac57b14" target="_top" xlink:title=" ">
<polygon fill="white" stroke="black" points="151.5,-418.5 151.5,-437.5 231.5,-437.5 231.5,-418.5 151.5,-418.5"/>
<text text-anchor="middle" x="191.5" y="-425.5" font-family="Helvetica,sans-Serif" font-size="10.00">Ope::execute</text>
</a>
</g>
</g>
<!-- Node1&#45;&gt;Node6 -->
<g id="edge5" class="edge">
<title>Node1&#45;&gt;Node6</title>
<path fill="none" stroke="midnightblue" d="M330.79,-313.88C318.13,-339.27 292.24,-384.08 257,-409 249.47,-414.32 240.44,-418.17 231.56,-420.95"/>
<polygon fill="midnightblue" stroke="midnightblue" points="334.08,-315.13 335.26,-304.6 327.77,-312.09 334.08,-315.13"/>
</g>
<!-- Node7 -->
<g id="node7" class="node">
<title>Node7</title>
<g id="a_node7"><a xlink:href="classList.html#aff51763e0db147807a8ba7d3f15e1559" target="_top" xlink:title=" ">
<polygon fill="white" stroke="black" points="6,-95.5 6,-114.5 84,-114.5 84,-95.5 6,-95.5"/>
<text text-anchor="middle" x="45" y="-102.5" font-family="Helvetica,sans-Serif" font-size="10.00">List::execute</text>
</a>
</g>
</g>
<!-- Node1&#45;&gt;Node7 -->
<g id="edge6" class="edge">
<title>Node1&#45;&gt;Node7</title>
<path fill="none" stroke="midnightblue" d="M339.33,-275.29C337.72,-229.44 326.57,-115.81 257,-67 194.99,-23.5 98.24,-73.17 61.16,-95.37"/>
<polygon fill="midnightblue" stroke="midnightblue" points="335.83,-275.49 339.56,-285.41 342.83,-275.33 335.83,-275.49"/>
</g>
<!-- Node8 -->
<g id="node8" class="node">
<title>Node8</title>
<g id="a_node8"><a xlink:href="classBan.html#aab15f55f6d7848dc3eb810b4c905fea7" target="_top" xlink:title=" ">
<polygon fill="white" stroke="black" points="151.5,-342.5 151.5,-361.5 231.5,-361.5 231.5,-342.5 151.5,-342.5"/>
<text text-anchor="middle" x="191.5" y="-349.5" font-family="Helvetica,sans-Serif" font-size="10.00">Ban::execute</text>
</a>
</g>
</g>
<!-- Node1&#45;&gt;Node8 -->
<g id="edge7" class="edge">
<title>Node1&#45;&gt;Node8</title>
<path fill="none" stroke="midnightblue" d="M311.63,-309.07C295.84,-316.72 275.58,-326.03 257,-333 247.82,-336.45 237.72,-339.68 228.29,-342.46"/>
<polygon fill="midnightblue" stroke="midnightblue" points="313.39,-312.1 320.83,-304.55 310.31,-305.82 313.39,-312.1"/>
</g>
<!-- Node9 -->
<g id="node9" class="node">
<title>Node9</title>
<g id="a_node9"><a xlink:href="classJoin.html#a77631ed35ab8829cd152d82db3b51578" target="_top" xlink:title=" ">
<polygon fill="white" stroke="black" points="152,-304.5 152,-323.5 231,-323.5 231,-304.5 152,-304.5"/>
<text text-anchor="middle" x="191.5" y="-311.5" font-family="Helvetica,sans-Serif" font-size="10.00">Join::execute</text>
</a>
</g>
</g>
<!-- Node1&#45;&gt;Node9 -->
<g id="edge8" class="edge">
<title>Node1&#45;&gt;Node9</title>
<path fill="none" stroke="midnightblue" d="M283,-302.3C265.73,-304.53 247.13,-306.94 231.31,-308.98"/>
<polygon fill="midnightblue" stroke="midnightblue" points="283.52,-305.76 292.99,-301.01 282.62,-298.82 283.52,-305.76"/>
</g>
<!-- Node10 -->
<g id="node10" class="node">
<title>Node10</title>
<g id="a_node10"><a xlink:href="classPrivMsg.html#adce8dbb65a1d11bc5b46e2ad77333404" target="_top" xlink:title=" ">
<polygon fill="white" stroke="black" points="141.5,-266.5 141.5,-285.5 241.5,-285.5 241.5,-266.5 141.5,-266.5"/>
<text text-anchor="middle" x="191.5" y="-273.5" font-family="Helvetica,sans-Serif" font-size="10.00">PrivMsg::execute</text>
</a>
</g>
</g>
<!-- Node1&#45;&gt;Node10 -->
<g id="edge9" class="edge">
<title>Node1&#45;&gt;Node10</title>
<path fill="none" stroke="midnightblue" d="M282.82,-287.67C269.28,-285.92 254.93,-284.07 241.76,-282.37"/>
<polygon fill="midnightblue" stroke="midnightblue" points="282.62,-291.18 292.99,-288.99 283.52,-284.24 282.62,-291.18"/>
</g>
<!-- Node11 -->
<g id="node11" class="node">
<title>Node11</title>
<g id="a_node11"><a xlink:href="classClient.html#aa8b80aa00cdf8d687138511725c33a91" target="_top" xlink:title=" ">
<polygon fill="white" stroke="black" points="144,-228.5 144,-247.5 239,-247.5 239,-228.5 144,-228.5"/>
<text text-anchor="middle" x="191.5" y="-235.5" font-family="Helvetica,sans-Serif" font-size="10.00">Client::message</text>
</a>
</g>
</g>
<!-- Node1&#45;&gt;Node11 -->
<g id="edge10" class="edge">
<title>Node1&#45;&gt;Node11</title>
<path fill="none" stroke="midnightblue" d="M311.63,-280.93C295.84,-273.28 275.58,-263.97 257,-257 247.82,-253.55 237.72,-250.32 228.29,-247.54"/>
<polygon fill="midnightblue" stroke="midnightblue" points="310.31,-284.18 320.83,-285.45 313.39,-277.9 310.31,-284.18"/>
</g>
<!-- Node12 -->
<g id="node12" class="node">
<title>Node12</title>
<g id="a_node12"><a xlink:href="classCommand.html#abd59bde053da57d6b7aaa1ba647ae179" target="_top" xlink:title=" ">
<polygon fill="white" stroke="black" points="126,-190.5 126,-209.5 257,-209.5 257,-190.5 126,-190.5"/>
<text text-anchor="middle" x="191.5" y="-197.5" font-family="Helvetica,sans-Serif" font-size="10.00">Command::missingOpe</text>
</a>
</g>
</g>
<!-- Node1&#45;&gt;Node12 -->
<g id="edge11" class="edge">
<title>Node1&#45;&gt;Node12</title>
<path fill="none" stroke="midnightblue" d="M325.03,-277.66C309.78,-260.43 284.23,-234.43 257,-219 250.3,-215.2 242.76,-212.1 235.27,-209.59"/>
<polygon fill="midnightblue" stroke="midnightblue" points="322.47,-280.05 331.66,-285.32 327.77,-275.47 322.47,-280.05"/>
</g>
<!-- Node13 -->
<g id="node13" class="node">
<title>Node13</title>
<g id="a_node13"><a xlink:href="classClient.html#a80fea5c83b9122fb8e50a646d5f66c6f" target="_top" xlink:title=" ">
<polygon fill="white" stroke="black" points="144,-380.5 144,-399.5 239,-399.5 239,-380.5 144,-380.5"/>
<text text-anchor="middle" x="191.5" y="-387.5" font-family="Helvetica,sans-Serif" font-size="10.00">Client::setName</text>
</a>
</g>
</g>
<!-- Node1&#45;&gt;Node13 -->
<g id="edge12" class="edge">
<title>Node1&#45;&gt;Node13</title>
<path fill="none" stroke="midnightblue" d="M325.03,-312.34C309.78,-329.57 284.23,-355.57 257,-371 250.3,-374.8 242.76,-377.9 235.27,-380.41"/>
<polygon fill="midnightblue" stroke="midnightblue" points="327.77,-314.53 331.66,-304.68 322.47,-309.95 327.77,-314.53"/>
</g>
<!-- Node14 -->
<g id="node14" class="node">
<title>Node14</title>
<g id="a_node14"><a xlink:href="classBan.html#a7f38b7260f84fa4612f9ac28bc03170e" target="_top" xlink:title=" ">
<polygon fill="white" stroke="black" points="151,-114.5 151,-133.5 232,-133.5 232,-114.5 151,-114.5"/>
<text text-anchor="middle" x="191.5" y="-121.5" font-family="Helvetica,sans-Serif" font-size="10.00">Ban::validate</text>
</a>
</g>
</g>
<!-- Node1&#45;&gt;Node14 -->
<g id="edge14" class="edge">
<title>Node1&#45;&gt;Node14</title>
<path fill="none" stroke="midnightblue" d="M334.25,-275.45C324.52,-243.05 300.63,-178.28 257,-143 249.83,-137.2 240.94,-133.17 232.08,-130.37"/>
<polygon fill="midnightblue" stroke="midnightblue" points="330.89,-276.46 337.01,-285.11 337.62,-274.54 330.89,-276.46"/>
</g>
<!-- Node15 -->
<g id="node15" class="node">
<title>Node15</title>
<g id="a_node15"><a xlink:href="classJoin.html#a207289889718fa33c1a6892241aa60d4" target="_top" xlink:title=" ">
<polygon fill="white" stroke="black" points="151.5,-76.5 151.5,-95.5 231.5,-95.5 231.5,-76.5 151.5,-76.5"/>
<text text-anchor="middle" x="191.5" y="-83.5" font-family="Helvetica,sans-Serif" font-size="10.00">Join::validate</text>
</a>
</g>
</g>
<!-- Node1&#45;&gt;Node15 -->
<g id="edge15" class="edge">
<title>Node1&#45;&gt;Node15</title>
<path fill="none" stroke="midnightblue" d="M336.61,-275.55C329.86,-237.17 309.48,-151.39 257,-105 249.91,-98.74 240.86,-94.54 231.78,-91.72"/>
<polygon fill="midnightblue" stroke="midnightblue" points="333.16,-276.15 338.22,-285.45 340.06,-275.02 333.16,-276.15"/>
</g>
<!-- Node16 -->
<g id="node16" class="node">
<title>Node16</title>
<g id="a_node16"><a xlink:href="classList.html#abe68a85c129511265f9e03260f788ba4" target="_top" xlink:title=" ">
<polygon fill="white" stroke="black" points="151.5,-152.5 151.5,-171.5 231.5,-171.5 231.5,-152.5 151.5,-152.5"/>
<text text-anchor="middle" x="191.5" y="-159.5" font-family="Helvetica,sans-Serif" font-size="10.00">List::validate</text>
</a>
</g>
</g>
<!-- Node1&#45;&gt;Node16 -->
<g id="edge16" class="edge">
<title>Node1&#45;&gt;Node16</title>
<path fill="none" stroke="midnightblue" d="M330.79,-276.12C318.13,-250.73 292.24,-205.92 257,-181 249.47,-175.68 240.44,-171.83 231.56,-169.05"/>
<polygon fill="midnightblue" stroke="midnightblue" points="327.77,-277.91 335.26,-285.4 334.08,-274.87 327.77,-277.91"/>
</g>
<!-- Node17 -->
<g id="node17" class="node">
<title>Node17</title>
<g id="a_node17"><a xlink:href="classPrivMsg.html#a5c569ecdef5c59b9aee0e6ee1156ffd5" target="_top" xlink:title=" ">
<polygon fill="white" stroke="black" points="141,-0.5 141,-19.5 242,-19.5 242,-0.5 141,-0.5"/>
<text text-anchor="middle" x="191.5" y="-7.5" font-family="Helvetica,sans-Serif" font-size="10.00">PrivMsg::validate</text>
</a>
</g>
</g>
<!-- Node1&#45;&gt;Node17 -->
<g id="edge18" class="edge">
<title>Node1&#45;&gt;Node17</title>
<path fill="none" stroke="midnightblue" d="M338.91,-275.23C336.44,-227.35 323.57,-103.98 257,-34 250.99,-27.68 243.16,-23.01 235.04,-19.57"/>
<polygon fill="midnightblue" stroke="midnightblue" points="335.43,-275.62 339.34,-285.46 342.42,-275.32 335.43,-275.62"/>
</g>
<!-- Node13&#45;&gt;Node4 -->
<g id="edge13" class="edge">
<title>Node13&#45;&gt;Node4</title>
<path fill="none" stroke="midnightblue" d="M144.56,-402.57C138.27,-404.57 131.94,-406.73 126,-409 104.17,-417.34 80.06,-429.17 64.07,-437.41"/>
<polygon fill="midnightblue" stroke="midnightblue" points="145.81,-405.84 154.34,-399.57 143.76,-399.15 145.81,-405.84"/>
</g>
<!-- Node16&#45;&gt;Node7 -->
<g id="edge17" class="edge">
<title>Node16&#45;&gt;Node7</title>
<path fill="none" stroke="midnightblue" d="M144.56,-149.43C138.27,-147.43 131.94,-145.27 126,-143 104.17,-134.66 80.06,-122.83 64.07,-114.59"/>
<polygon fill="midnightblue" stroke="midnightblue" points="143.76,-152.85 154.34,-152.43 145.81,-146.16 143.76,-152.85"/>
</g>
</g>
</svg>
        <g id="navigator" transform="translate(0 0)" fill="#404254">
                <rect fill="#f2f5e9" fill-opacity="0.5" stroke="#606060" stroke-width=".5" x="0" y="0" width="60" height="60"/>
                <use id="zoomplus" xlink:href="#zoomPlus" x="17" y="9" onmousedown="handleZoom(evt,'in')"/>
                <use id="zoomminus" xlink:href="#zoomMin" x="42" y="9" onmousedown="handleZoom(evt,'out')"/>
                <use id="reset" xlink:href="#resetDef" x="30" y="36" onmousedown="handleReset()"/>
                <g id="arrowUp" xlink:href="#dirArrow" transform="translate(30 24)" onmousedown="handlePan(0,-1)">
                  <use xlink:href="#rim" fill="#404040">
                        <set attributeName="fill" to="#808080" begin="arrowUp.mouseover" end="arrowUp.mouseout"/>
                  </use>
                  <path fill="none" stroke="white" stroke-width="1.5" d="M0,-3.0v7 M-2.5,-0.5L0,-3.0L2.5,-0.5"/>
                </g>
                <g id="arrowRight" xlink:href="#dirArrow" transform="rotate(90) translate(36 -43)" onmousedown="handlePan(1,0)">
                  <use xlink:href="#rim" fill="#404040">
                        <set attributeName="fill" to="#808080" begin="arrowRight.mouseover" end="arrowRight.mouseout"/>
                  </use>
                  <path fill="none" stroke="white" stroke-width="1.5" d="M0,-3.0v7 M-2.5,-0.5L0,-3.0L2.5,-0.5"/>
                </g>
                <g id="arrowDown" xlink:href="#dirArrow" transform="rotate(180) translate(-30 -48)" onmousedown="handlePan(0,1)">
                  <use xlink:href="#rim" fill="#404040">
                        <set attributeName="fill" to="#808080" begin="arrowDown.mouseover" end="arrowDown.mouseout"/>
                  </use>
                  <path fill="none" stroke="white" stroke-width="1.5" d="M0,-3.0v7 M-2.5,-0.5L0,-3.0L2.5,-0.5"/>
                </g>
                <g id="arrowLeft" xlink:href="#dirArrow" transform="rotate(270) translate(-36 17)" onmousedown="handlePan(-1,0)">
                  <use xlink:href="#rim" fill="#404040">
                        <set attributeName="fill" to="#808080" begin="arrowLeft.mouseover" end="arrowLeft.mouseout"/>
                  </use>
                  <path fill="none" stroke="white" stroke-width="1.5" d="M0,-3.0v7 M-2.5,-0.5L0,-3.0L2.5,-0.5"/>
                </g>
        </g>
        <svg viewBox="0 0 15 15" width="100%" height="30px" preserveAspectRatio="xMaxYMin meet">
         <g id="arrow_out" transform="scale(0.3 0.3)">
          <a xlink:href="classClient_a9ee33da0a8d00f8416b934b6027d35cd_icgraph_org.svg" target="_base">
           <rect id="button" ry="5" rx="5" y="6" x="6" height="38" width="38"
                fill="#f2f5e9" fill-opacity="0.5" stroke="#606060" stroke-width="1.0"/>
           <path id="arrow"
             d="M 11.500037,31.436501 C 11.940474,20.09759 22.043105,11.32322 32.158766,21.979434 L 37.068811,17.246167 C 37.068811,17.246167 37.088388,32 37.088388,32 L 22.160133,31.978069 C 22.160133,31.978069 26.997745,27.140456 26.997745,27.140456 C 18.528582,18.264221 13.291696,25.230495 11.500037,31.436501 z"
             style="fill:#404040;"/>
          </a>
         </g>
        </svg>
</svg>
