<?xml version="1.0" encoding="UTF-8" standalone="no"?>
<!DOCTYPE svg PUBLIC "-//W3C//DTD SVG 1.1//EN"
 "http://www.w3.org/Graphics/SVG/1.1/DTD/svg11.dtd">
<!-- Generated by graphviz version 2.43.0 (0)
 -->
<!-- Title: List::validate Pages: 1 -->
<svg width="242pt" height="66pt"
 viewBox="0.00 0.00 242.00 66.00" xmlns="http://www.w3.org/2000/svg" xmlns:xlink="http://www.w3.org/1999/xlink">
<g id="graph0" class="graph" transform="scale(1 1) rotate(0) translate(4 62)">
<title>List::validate</title>
<polygon fill="white" stroke="transparent" points="-4,4 -4,-62 238,-62 238,4 -4,4"/>
<!-- Node1 -->
<g id="node1" class="node">
<title>Node1</title>
<g id="a_node1"><a xlink:title=" ">
<polygon fill="#bfbfbf" stroke="black" points="0,-19.5 0,-38.5 80,-38.5 80,-19.5 0,-19.5"/>
<text text-anchor="middle" x="40" y="-26.5" font-family="Helvetica,sans-Serif" font-size="10.00">List::validate</text>
</a>
</g>
</g>
<!-- Node2 -->
<g id="node2" class="node">
<title>Node2</title>
<g id="a_node2"><a xlink:href="classMessage.html#ae175384074674e34978f40261238d701" target="_top" xlink:title=" ">
<polygon fill="white" stroke="black" points="116,-38.5 116,-57.5 234,-57.5 234,-38.5 116,-38.5"/>
<text text-anchor="middle" x="175" y="-45.5" font-family="Helvetica,sans-Serif" font-size="10.00">Message::getParams</text>
</a>
</g>
</g>
<!-- Node1&#45;&gt;Node2 -->
<g id="edge1" class="edge">
<title>Node1&#45;&gt;Node2</title>
<path fill="none" stroke="midnightblue" d="M80.19,-34.6C88.31,-35.76 97.1,-37.01 105.92,-38.27"/>
<polygon fill="midnightblue" stroke="midnightblue" points="105.48,-41.75 115.87,-39.7 106.47,-34.82 105.48,-41.75"/>
</g>
<!-- Node3 -->
<g id="node3" class="node">
<title>Node3</title>
<g id="a_node3"><a xlink:href="classClient.html#a9ee33da0a8d00f8416b934b6027d35cd" target="_top" xlink:title=" ">
<polygon fill="white" stroke="black" points="127.5,-0.5 127.5,-19.5 222.5,-19.5 222.5,-0.5 127.5,-0.5"/>
<text text-anchor="middle" x="175" y="-7.5" font-family="Helvetica,sans-Serif" font-size="10.00">Client::message</text>
</a>
</g>
</g>
<!-- Node1&#45;&gt;Node3 -->
<g id="edge2" class="edge">
<title>Node1&#45;&gt;Node3</title>
<path fill="none" stroke="midnightblue" d="M80.19,-23.4C91.68,-21.76 104.49,-19.93 116.86,-18.16"/>
<polygon fill="midnightblue" stroke="midnightblue" points="117.7,-21.58 127.11,-16.7 116.71,-14.65 117.7,-21.58"/>
</g>
</g>
</svg>
