<?xml version="1.0" encoding="UTF-8" standalone="no"?>
<!DOCTYPE svg PUBLIC "-//W3C//DTD SVG 1.1//EN"
 "http://www.w3.org/Graphics/SVG/1.1/DTD/svg11.dtd">
<!-- Generated by graphviz version 2.43.0 (0)
 -->
<!-- Title: List::execute Pages: 1 -->
<svg width="394pt" height="319pt"
 viewBox="0.00 0.00 394.00 319.16" xmlns="http://www.w3.org/2000/svg" xmlns:xlink="http://www.w3.org/1999/xlink">
<g id="graph0" class="graph" transform="scale(1 1) rotate(0) translate(4 315.16)">
<title>List::execute</title>
<polygon fill="white" stroke="transparent" points="-4,4 -4,-315.16 390,-315.16 390,4 -4,4"/>
<!-- Node1 -->
<g id="node1" class="node">
<title>Node1</title>
<g id="a_node1"><a xlink:title=" ">
<polygon fill="#bfbfbf" stroke="black" points="0,-139.66 0,-158.66 78,-158.66 78,-139.66 0,-139.66"/>
<text text-anchor="middle" x="39" y="-146.66" font-family="Helvetica,sans-Serif" font-size="10.00">List::execute</text>
</a>
</g>
</g>
<!-- Node2 -->
<g id="node2" class="node">
<title>Node2</title>
<g id="a_node2"><a xlink:href="classServer.html#a4fa910b5f5d034edcd67145c1df2d2cc" target="_top" xlink:title=" ">
<polygon fill="white" stroke="black" points="118,-291.66 118,-310.66 228,-310.66 228,-291.66 118,-291.66"/>
<text text-anchor="middle" x="173" y="-298.66" font-family="Helvetica,sans-Serif" font-size="10.00">Server::getChannel</text>
</a>
</g>
</g>
<!-- Node1&#45;&gt;Node2 -->
<g id="edge1" class="edge">
<title>Node1&#45;&gt;Node2</title>
<path fill="none" stroke="midnightblue" d="M42.67,-158.79C49.9,-183.14 72.22,-247.69 114,-282.16 116.04,-283.84 118.23,-285.38 120.53,-286.78"/>
<polygon fill="midnightblue" stroke="midnightblue" points="119.3,-290.08 129.79,-291.54 122.49,-283.85 119.3,-290.08"/>
</g>
<!-- Node3 -->
<g id="node3" class="node">
<title>Node3</title>
<g id="a_node3"><a xlink:href="classServer.html#aa2cfc9cb9ab81f42d6fd6e7f9e5185c2" target="_top" xlink:title=" ">
<polygon fill="white" stroke="black" points="115.5,-253.66 115.5,-272.66 230.5,-272.66 230.5,-253.66 115.5,-253.66"/>
<text text-anchor="middle" x="173" y="-260.66" font-family="Helvetica,sans-Serif" font-size="10.00">Server::getChannels</text>
</a>
</g>
</g>
<!-- Node1&#45;&gt;Node3 -->
<g id="edge2" class="edge">
<title>Node1&#45;&gt;Node3</title>
<path fill="none" stroke="midnightblue" d="M44.92,-158.78C55.17,-177.87 80.65,-220.71 114,-244.16 116.73,-246.08 119.67,-247.82 122.72,-249.38"/>
<polygon fill="midnightblue" stroke="midnightblue" points="121.56,-252.7 132.12,-253.59 124.42,-246.31 121.56,-252.7"/>
</g>
<!-- Node4 -->
<g id="node4" class="node">
<title>Node4</title>
<g id="a_node4"><a xlink:href="classCommand.html#a2686b48bc3d0fa0d5934396c72f0bdfc" target="_top" xlink:title=" ">
<polygon fill="white" stroke="black" points="114,-215.66 114,-234.66 232,-234.66 232,-215.66 114,-215.66"/>
<text text-anchor="middle" x="173" y="-222.66" font-family="Helvetica,sans-Serif" font-size="10.00">Command::getName</text>
</a>
</g>
</g>
<!-- Node1&#45;&gt;Node4 -->
<g id="edge3" class="edge">
<title>Node1&#45;&gt;Node4</title>
<path fill="none" stroke="midnightblue" d="M50.24,-158.9C63.83,-171.38 89.06,-192.97 114,-206.16 118.01,-208.28 122.29,-210.22 126.66,-211.99"/>
<polygon fill="midnightblue" stroke="midnightblue" points="125.65,-215.35 136.25,-215.56 128.1,-208.79 125.65,-215.35"/>
</g>
<!-- Node5 -->
<g id="node5" class="node">
<title>Node5</title>
<g id="a_node5"><a xlink:href="classChannel.html#a082fd9c1f37bbbb26bdb28b285659b2c" target="_top" xlink:title=" ">
<polygon fill="white" stroke="black" points="119.5,-177.66 119.5,-196.66 226.5,-196.66 226.5,-177.66 119.5,-177.66"/>
<text text-anchor="middle" x="173" y="-184.66" font-family="Helvetica,sans-Serif" font-size="10.00">Channel::getName</text>
</a>
</g>
</g>
<!-- Node1&#45;&gt;Node5 -->
<g id="edge4" class="edge">
<title>Node1&#45;&gt;Node5</title>
<path fill="none" stroke="midnightblue" d="M73.31,-158.75C90.19,-163.61 110.89,-169.57 128.97,-174.77"/>
<polygon fill="midnightblue" stroke="midnightblue" points="128.12,-178.17 138.7,-177.58 130.06,-171.45 128.12,-178.17"/>
</g>
<!-- Node6 -->
<g id="node6" class="node">
<title>Node6</title>
<g id="a_node6"><a xlink:href="classMessage.html#ae175384074674e34978f40261238d701" target="_top" xlink:title=" ">
<polygon fill="white" stroke="black" points="268,-91.66 268,-110.66 386,-110.66 386,-91.66 268,-91.66"/>
<text text-anchor="middle" x="327" y="-98.66" font-family="Helvetica,sans-Serif" font-size="10.00">Message::getParams</text>
</a>
</g>
</g>
<!-- Node1&#45;&gt;Node6 -->
<g id="edge5" class="edge">
<title>Node1&#45;&gt;Node6</title>
<path fill="none" stroke="midnightblue" d="M78.22,-147.64C117.21,-145.56 179.3,-140.79 232,-130.16 251.59,-126.21 272.92,-119.81 290.29,-114.03"/>
<polygon fill="midnightblue" stroke="midnightblue" points="291.69,-117.25 300.03,-110.72 289.43,-110.63 291.69,-117.25"/>
</g>
<!-- Node7 -->
<g id="node7" class="node">
<title>Node7</title>
<g id="a_node7"><a xlink:href="classChannel.html#acc7d04f494e076b78a8affae33d3bcf8" target="_top" xlink:title=" ">
<polygon fill="white" stroke="black" points="127,-101.66 127,-120.66 219,-120.66 219,-101.66 127,-101.66"/>
<text text-anchor="middle" x="173" y="-108.66" font-family="Helvetica,sans-Serif" font-size="10.00">Channel::joined</text>
</a>
</g>
</g>
<!-- Node1&#45;&gt;Node7 -->
<g id="edge6" class="edge">
<title>Node1&#45;&gt;Node7</title>
<path fill="none" stroke="midnightblue" d="M73.31,-139.57C90.19,-134.71 110.89,-128.75 128.97,-123.55"/>
<polygon fill="midnightblue" stroke="midnightblue" points="130.06,-126.88 138.7,-120.75 128.12,-120.15 130.06,-126.88"/>
</g>
<!-- Node8 -->
<g id="node8" class="node">
<title>Node8</title>
<g id="a_node8"><a xlink:href="classClient.html#a9ee33da0a8d00f8416b934b6027d35cd" target="_top" xlink:title=" ">
<polygon fill="white" stroke="black" points="279.5,-34.66 279.5,-53.66 374.5,-53.66 374.5,-34.66 279.5,-34.66"/>
<text text-anchor="middle" x="327" y="-41.66" font-family="Helvetica,sans-Serif" font-size="10.00">Client::message</text>
</a>
</g>
</g>
<!-- Node1&#45;&gt;Node8 -->
<g id="edge7" class="edge">
<title>Node1&#45;&gt;Node8</title>
<path fill="none" stroke="midnightblue" d="M41.91,-139.46C47.57,-113.73 66.85,-43.89 114,-16.16 172.64,18.32 255.94,-10.9 298.56,-30.3"/>
<polygon fill="midnightblue" stroke="midnightblue" points="297.21,-33.53 307.75,-34.62 300.19,-27.2 297.21,-33.53"/>
</g>
<!-- Node9 -->
<g id="node9" class="node">
<title>Node9</title>
<g id="a_node9"><a xlink:href="functions_8hpp.html#a9f2ce856ffec652145a26842617b63e1" target="_top" xlink:title=" ">
<polygon fill="white" stroke="black" points="154,-25.66 154,-44.66 192,-44.66 192,-25.66 154,-25.66"/>
<text text-anchor="middle" x="173" y="-32.66" font-family="Helvetica,sans-Serif" font-size="10.00">split</text>
</a>
</g>
</g>
<!-- Node1&#45;&gt;Node9 -->
<g id="edge8" class="edge">
<title>Node1&#45;&gt;Node9</title>
<path fill="none" stroke="midnightblue" d="M44.92,-139.54C55.17,-120.46 80.65,-77.61 114,-54.16 122.81,-47.97 133.78,-43.69 143.79,-40.8"/>
<polygon fill="midnightblue" stroke="midnightblue" points="144.93,-44.12 153.75,-38.25 143.2,-37.33 144.93,-44.12"/>
</g>
<!-- Node10 -->
<g id="node10" class="node">
<title>Node10</title>
<g id="a_node10"><a xlink:href="classList.html#abe68a85c129511265f9e03260f788ba4" target="_top" xlink:title=" ">
<polygon fill="white" stroke="black" points="133,-63.66 133,-82.66 213,-82.66 213,-63.66 133,-63.66"/>
<text text-anchor="middle" x="173" y="-70.66" font-family="Helvetica,sans-Serif" font-size="10.00">List::validate</text>
</a>
</g>
</g>
<!-- Node1&#45;&gt;Node10 -->
<g id="edge9" class="edge">
<title>Node1&#45;&gt;Node10</title>
<path fill="none" stroke="midnightblue" d="M50.24,-139.42C63.83,-126.95 89.06,-105.35 114,-92.16 118.01,-90.04 122.29,-88.1 126.66,-86.34"/>
<polygon fill="midnightblue" stroke="midnightblue" points="128.1,-89.53 136.25,-82.76 125.65,-82.98 128.1,-89.53"/>
</g>
<!-- Node10&#45;&gt;Node6 -->
<g id="edge10" class="edge">
<title>Node10&#45;&gt;Node6</title>
<path fill="none" stroke="midnightblue" d="M213.14,-80.37C228.73,-83.24 247.05,-86.62 264.34,-89.8"/>
<polygon fill="midnightblue" stroke="midnightblue" points="263.91,-93.28 274.37,-91.65 265.17,-86.4 263.91,-93.28"/>
</g>
<!-- Node10&#45;&gt;Node8 -->
<g id="edge11" class="edge">
<title>Node10&#45;&gt;Node8</title>
<path fill="none" stroke="midnightblue" d="M213.14,-65.69C230.29,-62.42 250.75,-58.52 269.5,-54.94"/>
<polygon fill="midnightblue" stroke="midnightblue" points="270.25,-58.36 279.42,-53.05 268.94,-51.49 270.25,-58.36"/>
</g>
</g>
</svg>
