<?xml version="1.0" encoding="UTF-8" standalone="no"?>
<!DOCTYPE svg PUBLIC "-//W3C//DTD SVG 1.1//EN"
 "http://www.w3.org/Graphics/SVG/1.1/DTD/svg11.dtd">
<!-- Generated by graphviz version 2.43.0 (0)
 -->
<!-- Title: Help::execute Pages: 1 -->
<svg width="245pt" height="66pt"
 viewBox="0.00 0.00 245.00 66.00" xmlns="http://www.w3.org/2000/svg" xmlns:xlink="http://www.w3.org/1999/xlink">
<g id="graph0" class="graph" transform="scale(1 1) rotate(0) translate(4 62)">
<title>Help::execute</title>
<polygon fill="white" stroke="transparent" points="-4,4 -4,-62 241,-62 241,4 -4,4"/>
<!-- Node1 -->
<g id="node1" class="node">
<title>Node1</title>
<g id="a_node1"><a xlink:title=" ">
<polygon fill="#bfbfbf" stroke="black" points="0,-19.5 0,-38.5 83,-38.5 83,-19.5 0,-19.5"/>
<text text-anchor="middle" x="41.5" y="-26.5" font-family="Helvetica,sans-Serif" font-size="10.00">Help::execute</text>
</a>
</g>
</g>
<!-- Node2 -->
<g id="node2" class="node">
<title>Node2</title>
<g id="a_node2"><a xlink:href="classMessage.html#ae175384074674e34978f40261238d701" target="_top" xlink:title=" ">
<polygon fill="white" stroke="black" points="119,-38.5 119,-57.5 237,-57.5 237,-38.5 119,-38.5"/>
<text text-anchor="middle" x="178" y="-45.5" font-family="Helvetica,sans-Serif" font-size="10.00">Message::getParams</text>
</a>
</g>
</g>
<!-- Node1&#45;&gt;Node2 -->
<g id="edge1" class="edge">
<title>Node1&#45;&gt;Node2</title>
<path fill="none" stroke="midnightblue" d="M83.22,-34.75C91.22,-35.88 99.82,-37.1 108.45,-38.32"/>
<polygon fill="midnightblue" stroke="midnightblue" points="108.17,-41.81 118.56,-39.74 109.14,-34.88 108.17,-41.81"/>
</g>
<!-- Node3 -->
<g id="node3" class="node">
<title>Node3</title>
<g id="a_node3"><a xlink:href="classClient.html#a9ee33da0a8d00f8416b934b6027d35cd" target="_top" xlink:title=" ">
<polygon fill="white" stroke="black" points="130.5,-0.5 130.5,-19.5 225.5,-19.5 225.5,-0.5 130.5,-0.5"/>
<text text-anchor="middle" x="178" y="-7.5" font-family="Helvetica,sans-Serif" font-size="10.00">Client::message</text>
</a>
</g>
</g>
<!-- Node1&#45;&gt;Node3 -->
<g id="edge2" class="edge">
<title>Node1&#45;&gt;Node3</title>
<path fill="none" stroke="midnightblue" d="M83.22,-23.25C94.82,-21.61 107.67,-19.79 120.04,-18.05"/>
<polygon fill="midnightblue" stroke="midnightblue" points="120.88,-21.46 130.29,-16.6 119.9,-14.53 120.88,-21.46"/>
</g>
</g>
</svg>
