<?xml version="1.0" encoding="UTF-8" standalone="no"?>
<!DOCTYPE svg PUBLIC "-//W3C//DTD SVG 1.1//EN"
 "http://www.w3.org/Graphics/SVG/1.1/DTD/svg11.dtd">
<!-- Generated by graphviz version 2.43.0 (0)
 -->
<!-- Title: PrivMsg::validate Pages: 1 -->
<svg width="263pt" height="180pt"
 viewBox="0.00 0.00 263.00 180.00" xmlns="http://www.w3.org/2000/svg" xmlns:xlink="http://www.w3.org/1999/xlink">
<g id="graph0" class="graph" transform="scale(1 1) rotate(0) translate(4 176)">
<title>PrivMsg::validate</title>
<polygon fill="white" stroke="transparent" points="-4,4 -4,-176 259,-176 259,4 -4,4"/>
<!-- Node1 -->
<g id="node1" class="node">
<title>Node1</title>
<g id="a_node1"><a xlink:title=" ">
<polygon fill="#bfbfbf" stroke="black" points="0,-76.5 0,-95.5 101,-95.5 101,-76.5 0,-76.5"/>
<text text-anchor="middle" x="50.5" y="-83.5" font-family="Helvetica,sans-Serif" font-size="10.00">PrivMsg::validate</text>
</a>
</g>
</g>
<!-- Node2 -->
<g id="node2" class="node">
<title>Node2</title>
<g id="a_node2"><a xlink:href="classServer.html#a4fa910b5f5d034edcd67145c1df2d2cc" target="_top" xlink:title=" ">
<polygon fill="white" stroke="black" points="141,-152.5 141,-171.5 251,-171.5 251,-152.5 141,-152.5"/>
<text text-anchor="middle" x="196" y="-159.5" font-family="Helvetica,sans-Serif" font-size="10.00">Server::getChannel</text>
</a>
</g>
</g>
<!-- Node1&#45;&gt;Node2 -->
<g id="edge1" class="edge">
<title>Node1&#45;&gt;Node2</title>
<path fill="none" stroke="midnightblue" d="M63.6,-95.62C79.61,-107.98 109.08,-129.43 137,-143 141.41,-145.14 146.13,-147.14 150.89,-148.96"/>
<polygon fill="midnightblue" stroke="midnightblue" points="150.06,-152.38 160.65,-152.46 152.42,-145.79 150.06,-152.38"/>
</g>
<!-- Node3 -->
<g id="node3" class="node">
<title>Node3</title>
<g id="a_node3"><a xlink:href="classServer.html#ae4313a2ec9463bf58b75860457c737fb" target="_top" xlink:title=" ">
<polygon fill="white" stroke="black" points="147,-114.5 147,-133.5 245,-133.5 245,-114.5 147,-114.5"/>
<text text-anchor="middle" x="196" y="-121.5" font-family="Helvetica,sans-Serif" font-size="10.00">Server::getClient</text>
</a>
</g>
</g>
<!-- Node1&#45;&gt;Node3 -->
<g id="edge2" class="edge">
<title>Node1&#45;&gt;Node3</title>
<path fill="none" stroke="midnightblue" d="M87.71,-95.59C106.32,-100.52 129.2,-106.57 149.04,-111.83"/>
<polygon fill="midnightblue" stroke="midnightblue" points="148.24,-115.24 158.8,-114.41 150.03,-108.47 148.24,-115.24"/>
</g>
<!-- Node4 -->
<g id="node4" class="node">
<title>Node4</title>
<g id="a_node4"><a xlink:href="classMessage.html#ae175384074674e34978f40261238d701" target="_top" xlink:title=" ">
<polygon fill="white" stroke="black" points="137,-76.5 137,-95.5 255,-95.5 255,-76.5 137,-76.5"/>
<text text-anchor="middle" x="196" y="-83.5" font-family="Helvetica,sans-Serif" font-size="10.00">Message::getParams</text>
</a>
</g>
</g>
<!-- Node1&#45;&gt;Node4 -->
<g id="edge3" class="edge">
<title>Node1&#45;&gt;Node4</title>
<path fill="none" stroke="midnightblue" d="M101.29,-86C109.55,-86 118.24,-86 126.86,-86"/>
<polygon fill="midnightblue" stroke="midnightblue" points="126.92,-89.5 136.92,-86 126.92,-82.5 126.92,-89.5"/>
</g>
<!-- Node5 -->
<g id="node5" class="node">
<title>Node5</title>
<g id="a_node5"><a xlink:href="classClient.html#a9ee33da0a8d00f8416b934b6027d35cd" target="_top" xlink:title=" ">
<polygon fill="white" stroke="black" points="148.5,-38.5 148.5,-57.5 243.5,-57.5 243.5,-38.5 148.5,-38.5"/>
<text text-anchor="middle" x="196" y="-45.5" font-family="Helvetica,sans-Serif" font-size="10.00">Client::message</text>
</a>
</g>
</g>
<!-- Node1&#45;&gt;Node5 -->
<g id="edge4" class="edge">
<title>Node1&#45;&gt;Node5</title>
<path fill="none" stroke="midnightblue" d="M87.71,-76.41C106.32,-71.48 129.2,-65.43 149.04,-60.17"/>
<polygon fill="midnightblue" stroke="midnightblue" points="150.03,-63.53 158.8,-57.59 148.24,-56.76 150.03,-63.53"/>
</g>
<!-- Node6 -->
<g id="node6" class="node">
<title>Node6</title>
<g id="a_node6"><a xlink:href="functions_8hpp.html#a9f2ce856ffec652145a26842617b63e1" target="_top" xlink:title=" ">
<polygon fill="white" stroke="black" points="177,-0.5 177,-19.5 215,-19.5 215,-0.5 177,-0.5"/>
<text text-anchor="middle" x="196" y="-7.5" font-family="Helvetica,sans-Serif" font-size="10.00">split</text>
</a>
</g>
</g>
<!-- Node1&#45;&gt;Node6 -->
<g id="edge5" class="edge">
<title>Node1&#45;&gt;Node6</title>
<path fill="none" stroke="midnightblue" d="M63.6,-76.38C79.61,-64.02 109.08,-42.57 137,-29 146.55,-24.36 157.51,-20.44 167.31,-17.39"/>
<polygon fill="midnightblue" stroke="midnightblue" points="168.4,-20.72 177,-14.53 166.42,-14.01 168.4,-20.72"/>
</g>
</g>
</svg>
