<?xml version="1.0" encoding="UTF-8" standalone="no"?>
<!DOCTYPE svg PUBLIC "-//W3C//DTD SVG 1.1//EN"
 "http://www.w3.org/Graphics/SVG/1.1/DTD/svg11.dtd">
<!-- Generated by graphviz version 2.43.0 (0)
 -->
<!-- Title: Command Pages: 1 -->
<svg width="204pt" height="95pt"
 viewBox="0.00 0.00 204.00 95.00" xmlns="http://www.w3.org/2000/svg" xmlns:xlink="http://www.w3.org/1999/xlink">
<g id="graph0" class="graph" transform="scale(1 1) rotate(0) translate(4 91)">
<title>Command</title>
<polygon fill="white" stroke="transparent" points="-4,4 -4,-91 200,-91 200,4 -4,4"/>
<!-- Node1 -->
<g id="node1" class="node">
<title>Node1</title>
<g id="a_node1"><a xlink:title=" ">
<polygon fill="#bfbfbf" stroke="black" points="55.5,-0.5 55.5,-19.5 122.5,-19.5 122.5,-0.5 55.5,-0.5"/>
<text text-anchor="middle" x="89" y="-7.5" font-family="Helvetica,sans-Serif" font-size="10.00">Command</text>
</a>
</g>
</g>
<!-- Node2 -->
<g id="node2" class="node">
<title>Node2</title>
<g id="a_node2"><a xlink:href="classServer.html" target="_top" xlink:title=" ">
<polygon fill="white" stroke="black" points="0,-67.5 0,-86.5 48,-86.5 48,-67.5 0,-67.5"/>
<text text-anchor="middle" x="24" y="-74.5" font-family="Helvetica,sans-Serif" font-size="10.00">Server</text>
</a>
</g>
</g>
<!-- Node2&#45;&gt;Node1 -->
<g id="edge1" class="edge">
<title>Node2&#45;&gt;Node1</title>
<path fill="none" stroke="#9a32cd" stroke-dasharray="5,2" d="M31.48,-58.13C34.92,-51.31 39.47,-43.79 45,-38 52.18,-30.48 61.89,-24.23 70.36,-19.65"/>
<polygon fill="#9a32cd" stroke="#9a32cd" points="28.24,-56.79 27.26,-67.34 34.61,-59.71 28.24,-56.79"/>
<text text-anchor="middle" x="65" y="-41" font-family="Helvetica,sans-Serif" font-size="10.00"> _server</text>
</g>
<!-- Node3 -->
<g id="node3" class="node">
<title>Node3</title>
<g id="a_node3"><a xlink:href="classClient.html" target="_top" xlink:title=" ">
<polygon fill="white" stroke="black" points="66.5,-67.5 66.5,-86.5 111.5,-86.5 111.5,-67.5 66.5,-67.5"/>
<text text-anchor="middle" x="89" y="-74.5" font-family="Helvetica,sans-Serif" font-size="10.00">Client</text>
</a>
</g>
</g>
<!-- Node3&#45;&gt;Node1 -->
<g id="edge2" class="edge">
<title>Node3&#45;&gt;Node1</title>
<path fill="none" stroke="#9a32cd" stroke-dasharray="5,2" d="M89,-57.04C89,-44.67 89,-29.12 89,-19.63"/>
<polygon fill="#9a32cd" stroke="#9a32cd" points="85.5,-57.23 89,-67.23 92.5,-57.23 85.5,-57.23"/>
<text text-anchor="middle" x="110" y="-41" font-family="Helvetica,sans-Serif" font-size="10.00"> _sender</text>
</g>
<!-- Node4 -->
<g id="node4" class="node">
<title>Node4</title>
<g id="a_node4"><a xlink:href="classMessage.html" target="_top" xlink:title=" ">
<polygon fill="white" stroke="black" points="130,-67.5 130,-86.5 190,-86.5 190,-67.5 130,-67.5"/>
<text text-anchor="middle" x="160" y="-74.5" font-family="Helvetica,sans-Serif" font-size="10.00">Message</text>
</a>
</g>
</g>
<!-- Node4&#45;&gt;Node1 -->
<g id="edge3" class="edge">
<title>Node4&#45;&gt;Node1</title>
<path fill="none" stroke="#9a32cd" stroke-dasharray="5,2" d="M150.87,-58.59C146.66,-51.64 141.22,-43.91 135,-38 127.08,-30.47 116.69,-24.15 107.78,-19.52"/>
<polygon fill="#9a32cd" stroke="#9a32cd" points="147.83,-60.34 155.79,-67.34 153.93,-56.91 147.83,-60.34"/>
<text text-anchor="middle" x="169.5" y="-41" font-family="Helvetica,sans-Serif" font-size="10.00"> _message</text>
</g>
</g>
</svg>
