<?xml version="1.0" encoding="UTF-8" standalone="no"?>
<!DOCTYPE svg PUBLIC "-//W3C//DTD SVG 1.1//EN"
 "http://www.w3.org/Graphics/SVG/1.1/DTD/svg11.dtd">
<!-- Generated by graphviz version 2.43.0 (0)
 -->
<!-- Title: Join::execute Pages: 1 -->
<svg width="248pt" height="256pt"
 viewBox="0.00 0.00 248.00 256.00" xmlns="http://www.w3.org/2000/svg" xmlns:xlink="http://www.w3.org/1999/xlink">
<g id="graph0" class="graph" transform="scale(1 1) rotate(0) translate(4 252)">
<title>Join::execute</title>
<polygon fill="white" stroke="transparent" points="-4,4 -4,-252 244,-252 244,4 -4,4"/>
<!-- Node1 -->
<g id="node1" class="node">
<title>Node1</title>
<g id="a_node1"><a xlink:title=" ">
<polygon fill="#bfbfbf" stroke="black" points="0,-114.5 0,-133.5 79,-133.5 79,-114.5 0,-114.5"/>
<text text-anchor="middle" x="39.5" y="-121.5" font-family="Helvetica,sans-Serif" font-size="10.00">Join::execute</text>
</a>
</g>
</g>
<!-- Node2 -->
<g id="node2" class="node">
<title>Node2</title>
<g id="a_node2"><a xlink:href="classServer.html#aa6b758514ffdc34ac3c5a1bcf245a3ed" target="_top" xlink:title=" ">
<polygon fill="white" stroke="black" points="115,-228.5 115,-247.5 240,-247.5 240,-228.5 115,-228.5"/>
<text text-anchor="middle" x="177.5" y="-235.5" font-family="Helvetica,sans-Serif" font-size="10.00">Server::createChannel</text>
</a>
</g>
</g>
<!-- Node1&#45;&gt;Node2 -->
<g id="edge1" class="edge">
<title>Node1&#45;&gt;Node2</title>
<path fill="none" stroke="midnightblue" d="M45.44,-133.66C55.73,-152.84 81.33,-195.83 115,-219 117.9,-220.99 121.01,-222.78 124.24,-224.39"/>
<polygon fill="midnightblue" stroke="midnightblue" points="123.02,-227.67 133.59,-228.45 125.81,-221.25 123.02,-227.67"/>
</g>
<!-- Node3 -->
<g id="node3" class="node">
<title>Node3</title>
<g id="a_node3"><a xlink:href="classServer.html#a4fa910b5f5d034edcd67145c1df2d2cc" target="_top" xlink:title=" ">
<polygon fill="white" stroke="black" points="122.5,-190.5 122.5,-209.5 232.5,-209.5 232.5,-190.5 122.5,-190.5"/>
<text text-anchor="middle" x="177.5" y="-197.5" font-family="Helvetica,sans-Serif" font-size="10.00">Server::getChannel</text>
</a>
</g>
</g>
<!-- Node1&#45;&gt;Node3 -->
<g id="edge2" class="edge">
<title>Node1&#45;&gt;Node3</title>
<path fill="none" stroke="midnightblue" d="M50.78,-133.8C64.45,-146.34 89.82,-168.01 115,-181 119.3,-183.22 123.91,-185.23 128.6,-187.05"/>
<polygon fill="midnightblue" stroke="midnightblue" points="127.67,-190.43 138.26,-190.49 130.02,-183.84 127.67,-190.43"/>
</g>
<!-- Node4 -->
<g id="node4" class="node">
<title>Node4</title>
<g id="a_node4"><a xlink:href="classMessage.html#ae175384074674e34978f40261238d701" target="_top" xlink:title=" ">
<polygon fill="white" stroke="black" points="118.5,-152.5 118.5,-171.5 236.5,-171.5 236.5,-152.5 118.5,-152.5"/>
<text text-anchor="middle" x="177.5" y="-159.5" font-family="Helvetica,sans-Serif" font-size="10.00">Message::getParams</text>
</a>
</g>
</g>
<!-- Node1&#45;&gt;Node4 -->
<g id="edge3" class="edge">
<title>Node1&#45;&gt;Node4</title>
<path fill="none" stroke="midnightblue" d="M74.82,-133.59C92.29,-138.47 113.74,-144.46 132.43,-149.68"/>
<polygon fill="midnightblue" stroke="midnightblue" points="131.62,-153.09 142.19,-152.41 133.5,-146.35 131.62,-153.09"/>
</g>
<!-- Node5 -->
<g id="node5" class="node">
<title>Node5</title>
<g id="a_node5"><a xlink:href="classChannel.html#a5220250205f35b248205e2a4ba41519d" target="_top" xlink:title=" ">
<polygon fill="white" stroke="black" points="115.5,-114.5 115.5,-133.5 239.5,-133.5 239.5,-114.5 115.5,-114.5"/>
<text text-anchor="middle" x="177.5" y="-121.5" font-family="Helvetica,sans-Serif" font-size="10.00">Channel::getPassword</text>
</a>
</g>
</g>
<!-- Node1&#45;&gt;Node5 -->
<g id="edge4" class="edge">
<title>Node1&#45;&gt;Node5</title>
<path fill="none" stroke="midnightblue" d="M79.11,-124C87.32,-124 96.25,-124 105.25,-124"/>
<polygon fill="midnightblue" stroke="midnightblue" points="105.41,-127.5 115.41,-124 105.41,-120.5 105.41,-127.5"/>
</g>
<!-- Node6 -->
<g id="node6" class="node">
<title>Node6</title>
<g id="a_node6"><a xlink:href="classClient.html#a9ee33da0a8d00f8416b934b6027d35cd" target="_top" xlink:title=" ">
<polygon fill="white" stroke="black" points="130,-76.5 130,-95.5 225,-95.5 225,-76.5 130,-76.5"/>
<text text-anchor="middle" x="177.5" y="-83.5" font-family="Helvetica,sans-Serif" font-size="10.00">Client::message</text>
</a>
</g>
</g>
<!-- Node1&#45;&gt;Node6 -->
<g id="edge5" class="edge">
<title>Node1&#45;&gt;Node6</title>
<path fill="none" stroke="midnightblue" d="M74.82,-114.41C92.29,-109.53 113.74,-103.54 132.43,-98.32"/>
<polygon fill="midnightblue" stroke="midnightblue" points="133.5,-101.65 142.19,-95.59 131.62,-94.91 133.5,-101.65"/>
</g>
<!-- Node7 -->
<g id="node7" class="node">
<title>Node7</title>
<g id="a_node7"><a xlink:href="classChannel.html#a1cc547a4312634c68769f1c62d2b4df9" target="_top" xlink:title=" ">
<polygon fill="white" stroke="black" points="121,-38.5 121,-57.5 234,-57.5 234,-38.5 121,-38.5"/>
<text text-anchor="middle" x="177.5" y="-45.5" font-family="Helvetica,sans-Serif" font-size="10.00">Channel::setCreator</text>
</a>
</g>
</g>
<!-- Node1&#45;&gt;Node7 -->
<g id="edge6" class="edge">
<title>Node1&#45;&gt;Node7</title>
<path fill="none" stroke="midnightblue" d="M50.78,-114.2C64.45,-101.66 89.82,-79.99 115,-67 119.3,-64.78 123.91,-62.77 128.6,-60.95"/>
<polygon fill="midnightblue" stroke="midnightblue" points="130.02,-64.16 138.26,-57.51 127.67,-57.57 130.02,-64.16"/>
</g>
<!-- Node8 -->
<g id="node8" class="node">
<title>Node8</title>
<g id="a_node8"><a xlink:href="functions_8hpp.html#a9f2ce856ffec652145a26842617b63e1" target="_top" xlink:title=" ">
<polygon fill="white" stroke="black" points="158.5,-0.5 158.5,-19.5 196.5,-19.5 196.5,-0.5 158.5,-0.5"/>
<text text-anchor="middle" x="177.5" y="-7.5" font-family="Helvetica,sans-Serif" font-size="10.00">split</text>
</a>
</g>
</g>
<!-- Node1&#45;&gt;Node8 -->
<g id="edge7" class="edge">
<title>Node1&#45;&gt;Node8</title>
<path fill="none" stroke="midnightblue" d="M45.44,-114.34C55.73,-95.16 81.33,-52.17 115,-29 124.84,-22.23 137.18,-17.8 148.22,-14.94"/>
<polygon fill="midnightblue" stroke="midnightblue" points="149.3,-18.28 158.28,-12.65 147.75,-11.46 149.3,-18.28"/>
</g>
</g>
</svg>
