<?xml version="1.0" encoding="UTF-8" standalone="no"?>
<!DOCTYPE svg PUBLIC "-//W3C//DTD SVG 1.1//EN"
 "http://www.w3.org/Graphics/SVG/1.1/DTD/svg11.dtd">
<!-- Generated by graphviz version 2.43.0 (0)
 -->
<!-- Title: Server::getClient Pages: 1 -->
<svg width="243pt" height="142pt"
 viewBox="0.00 0.00 243.00 142.00" xmlns="http://www.w3.org/2000/svg" xmlns:xlink="http://www.w3.org/1999/xlink">
<g id="graph0" class="graph" transform="scale(1 1) rotate(0) translate(4 138)">
<title>Server::getClient</title>
<polygon fill="white" stroke="transparent" points="-4,4 -4,-138 239,-138 239,4 -4,4"/>
<!-- Node1 -->
<g id="node1" class="node">
<title>Node1</title>
<g id="a_node1"><a xlink:title=" ">
<polygon fill="#bfbfbf" stroke="black" points="137,-57.5 137,-76.5 235,-76.5 235,-57.5 137,-57.5"/>
<text text-anchor="middle" x="186" y="-64.5" font-family="Helvetica,sans-Serif" font-size="10.00">Server::getClient</text>
</a>
</g>
</g>
<!-- Node2 -->
<g id="node2" class="node">
<title>Node2</title>
<g id="a_node2"><a xlink:href="classBan.html#aab15f55f6d7848dc3eb810b4c905fea7" target="_top" xlink:title=" ">
<polygon fill="white" stroke="black" points="10.5,-114.5 10.5,-133.5 90.5,-133.5 90.5,-114.5 10.5,-114.5"/>
<text text-anchor="middle" x="50.5" y="-121.5" font-family="Helvetica,sans-Serif" font-size="10.00">Ban::execute</text>
</a>
</g>
</g>
<!-- Node1&#45;&gt;Node2 -->
<g id="edge1" class="edge">
<title>Node1&#45;&gt;Node2</title>
<path fill="none" stroke="midnightblue" d="M155.4,-80.9C139.4,-88.29 119.22,-97.39 101,-105 93.36,-108.19 84.97,-111.49 77.3,-114.42"/>
<polygon fill="midnightblue" stroke="midnightblue" points="157.18,-83.93 164.78,-76.55 154.23,-77.58 157.18,-83.93"/>
</g>
<!-- Node3 -->
<g id="node3" class="node">
<title>Node3</title>
<g id="a_node3"><a xlink:href="classPrivMsg.html#adce8dbb65a1d11bc5b46e2ad77333404" target="_top" xlink:title=" ">
<polygon fill="white" stroke="black" points="0.5,-76.5 0.5,-95.5 100.5,-95.5 100.5,-76.5 0.5,-76.5"/>
<text text-anchor="middle" x="50.5" y="-83.5" font-family="Helvetica,sans-Serif" font-size="10.00">PrivMsg::execute</text>
</a>
</g>
</g>
<!-- Node1&#45;&gt;Node3 -->
<g id="edge2" class="edge">
<title>Node1&#45;&gt;Node3</title>
<path fill="none" stroke="midnightblue" d="M126.68,-75.3C117.96,-76.54 109.03,-77.81 100.52,-79.02"/>
<polygon fill="midnightblue" stroke="midnightblue" points="127.4,-78.73 136.8,-73.86 126.41,-71.8 127.4,-78.73"/>
</g>
<!-- Node4 -->
<g id="node4" class="node">
<title>Node4</title>
<g id="a_node4"><a xlink:href="classBan.html#a7f38b7260f84fa4612f9ac28bc03170e" target="_top" xlink:title=" ">
<polygon fill="white" stroke="black" points="10,-38.5 10,-57.5 91,-57.5 91,-38.5 10,-38.5"/>
<text text-anchor="middle" x="50.5" y="-45.5" font-family="Helvetica,sans-Serif" font-size="10.00">Ban::validate</text>
</a>
</g>
</g>
<!-- Node1&#45;&gt;Node4 -->
<g id="edge3" class="edge">
<title>Node1&#45;&gt;Node4</title>
<path fill="none" stroke="midnightblue" d="M126.84,-58.72C114.84,-57.01 102.45,-55.25 91.28,-53.66"/>
<polygon fill="midnightblue" stroke="midnightblue" points="126.41,-62.2 136.8,-60.14 127.4,-55.27 126.41,-62.2"/>
</g>
<!-- Node5 -->
<g id="node5" class="node">
<title>Node5</title>
<g id="a_node5"><a xlink:href="classPrivMsg.html#a5c569ecdef5c59b9aee0e6ee1156ffd5" target="_top" xlink:title=" ">
<polygon fill="white" stroke="black" points="0,-0.5 0,-19.5 101,-19.5 101,-0.5 0,-0.5"/>
<text text-anchor="middle" x="50.5" y="-7.5" font-family="Helvetica,sans-Serif" font-size="10.00">PrivMsg::validate</text>
</a>
</g>
</g>
<!-- Node1&#45;&gt;Node5 -->
<g id="edge4" class="edge">
<title>Node1&#45;&gt;Node5</title>
<path fill="none" stroke="midnightblue" d="M155.4,-53.1C139.4,-45.71 119.22,-36.61 101,-29 93.36,-25.81 84.97,-22.51 77.3,-19.58"/>
<polygon fill="midnightblue" stroke="midnightblue" points="154.23,-56.42 164.78,-57.45 157.18,-50.07 154.23,-56.42"/>
</g>
</g>
</svg>
