<?xml version="1.0" encoding="UTF-8" standalone="no"?>
<!DOCTYPE svg PUBLIC "-//W3C//DTD SVG 1.1//EN"
 "http://www.w3.org/Graphics/SVG/1.1/DTD/svg11.dtd">
<!-- Generated by graphviz version 2.43.0 (0)
 -->
<!-- Title: Server::getChannel Pages: 1 -->
<svg width="255pt" height="180pt"
 viewBox="0.00 0.00 255.00 180.00" xmlns="http://www.w3.org/2000/svg" xmlns:xlink="http://www.w3.org/1999/xlink">
<g id="graph0" class="graph" transform="scale(1 1) rotate(0) translate(4 176)">
<title>Server::getChannel</title>
<polygon fill="white" stroke="transparent" points="-4,4 -4,-176 251,-176 251,4 -4,4"/>
<!-- Node1 -->
<g id="node1" class="node">
<title>Node1</title>
<g id="a_node1"><a xlink:title=" ">
<polygon fill="#bfbfbf" stroke="black" points="137,-76.5 137,-95.5 247,-95.5 247,-76.5 137,-76.5"/>
<text text-anchor="middle" x="192" y="-83.5" font-family="Helvetica,sans-Serif" font-size="10.00">Server::getChannel</text>
</a>
</g>
</g>
<!-- Node2 -->
<g id="node2" class="node">
<title>Node2</title>
<g id="a_node2"><a xlink:href="classList.html#aff51763e0db147807a8ba7d3f15e1559" target="_top" xlink:title=" ">
<polygon fill="white" stroke="black" points="11.5,-152.5 11.5,-171.5 89.5,-171.5 89.5,-152.5 11.5,-152.5"/>
<text text-anchor="middle" x="50.5" y="-159.5" font-family="Helvetica,sans-Serif" font-size="10.00">List::execute</text>
</a>
</g>
</g>
<!-- Node1&#45;&gt;Node2 -->
<g id="edge1" class="edge">
<title>Node1&#45;&gt;Node2</title>
<path fill="none" stroke="midnightblue" d="M169.28,-101.48C151.48,-113.74 125.35,-130.77 101,-143 94.09,-146.47 86.39,-149.71 79.15,-152.5"/>
<polygon fill="midnightblue" stroke="midnightblue" points="171.57,-104.15 177.77,-95.56 167.56,-98.41 171.57,-104.15"/>
</g>
<!-- Node3 -->
<g id="node3" class="node">
<title>Node3</title>
<g id="a_node3"><a xlink:href="classJoin.html#a77631ed35ab8829cd152d82db3b51578" target="_top" xlink:title=" ">
<polygon fill="white" stroke="black" points="11,-114.5 11,-133.5 90,-133.5 90,-114.5 11,-114.5"/>
<text text-anchor="middle" x="50.5" y="-121.5" font-family="Helvetica,sans-Serif" font-size="10.00">Join::execute</text>
</a>
</g>
</g>
<!-- Node1&#45;&gt;Node3 -->
<g id="edge2" class="edge">
<title>Node1&#45;&gt;Node3</title>
<path fill="none" stroke="midnightblue" d="M146.04,-98.25C126.82,-103.48 104.7,-109.51 86.69,-114.41"/>
<polygon fill="midnightblue" stroke="midnightblue" points="147.07,-101.59 155.8,-95.59 145.23,-94.84 147.07,-101.59"/>
</g>
<!-- Node4 -->
<g id="node4" class="node">
<title>Node4</title>
<g id="a_node4"><a xlink:href="classPrivMsg.html#adce8dbb65a1d11bc5b46e2ad77333404" target="_top" xlink:title=" ">
<polygon fill="white" stroke="black" points="0.5,-76.5 0.5,-95.5 100.5,-95.5 100.5,-76.5 0.5,-76.5"/>
<text text-anchor="middle" x="50.5" y="-83.5" font-family="Helvetica,sans-Serif" font-size="10.00">PrivMsg::execute</text>
</a>
</g>
</g>
<!-- Node1&#45;&gt;Node4 -->
<g id="edge3" class="edge">
<title>Node1&#45;&gt;Node4</title>
<path fill="none" stroke="midnightblue" d="M126.61,-86C117.98,-86 109.23,-86 100.91,-86"/>
<polygon fill="midnightblue" stroke="midnightblue" points="126.67,-89.5 136.67,-86 126.67,-82.5 126.67,-89.5"/>
</g>
<!-- Node5 -->
<g id="node5" class="node">
<title>Node5</title>
<g id="a_node5"><a xlink:href="classJoin.html#a207289889718fa33c1a6892241aa60d4" target="_top" xlink:title=" ">
<polygon fill="white" stroke="black" points="10.5,-38.5 10.5,-57.5 90.5,-57.5 90.5,-38.5 10.5,-38.5"/>
<text text-anchor="middle" x="50.5" y="-45.5" font-family="Helvetica,sans-Serif" font-size="10.00">Join::validate</text>
</a>
</g>
</g>
<!-- Node1&#45;&gt;Node5 -->
<g id="edge4" class="edge">
<title>Node1&#45;&gt;Node5</title>
<path fill="none" stroke="midnightblue" d="M146.04,-73.75C126.82,-68.52 104.7,-62.49 86.69,-57.59"/>
<polygon fill="midnightblue" stroke="midnightblue" points="145.23,-77.16 155.8,-76.41 147.07,-70.41 145.23,-77.16"/>
</g>
<!-- Node6 -->
<g id="node6" class="node">
<title>Node6</title>
<g id="a_node6"><a xlink:href="classPrivMsg.html#a5c569ecdef5c59b9aee0e6ee1156ffd5" target="_top" xlink:title=" ">
<polygon fill="white" stroke="black" points="0,-0.5 0,-19.5 101,-19.5 101,-0.5 0,-0.5"/>
<text text-anchor="middle" x="50.5" y="-7.5" font-family="Helvetica,sans-Serif" font-size="10.00">PrivMsg::validate</text>
</a>
</g>
</g>
<!-- Node1&#45;&gt;Node6 -->
<g id="edge5" class="edge">
<title>Node1&#45;&gt;Node6</title>
<path fill="none" stroke="midnightblue" d="M169.28,-70.52C151.48,-58.26 125.35,-41.23 101,-29 94.09,-25.53 86.39,-22.29 79.15,-19.5"/>
<polygon fill="midnightblue" stroke="midnightblue" points="167.56,-73.59 177.77,-76.44 171.57,-67.85 167.56,-73.59"/>
</g>
</g>
</svg>
