<?xml version="1.0" encoding="UTF-8" standalone="no"?>
<!DOCTYPE svg PUBLIC "-//W3C//DTD SVG 1.1//EN"
 "http://www.w3.org/Graphics/SVG/1.1/DTD/svg11.dtd">
<!-- Generated by graphviz version 2.43.0 (0)
 -->
<!-- Title: Join::validate Pages: 1 -->
<svg width="242pt" height="180pt"
 viewBox="0.00 0.00 242.00 180.00" xmlns="http://www.w3.org/2000/svg" xmlns:xlink="http://www.w3.org/1999/xlink">
<g id="graph0" class="graph" transform="scale(1 1) rotate(0) translate(4 176)">
<title>Join::validate</title>
<polygon fill="white" stroke="transparent" points="-4,4 -4,-176 238,-176 238,4 -4,4"/>
<!-- Node1 -->
<g id="node1" class="node">
<title>Node1</title>
<g id="a_node1"><a xlink:title=" ">
<polygon fill="#bfbfbf" stroke="black" points="0,-76.5 0,-95.5 80,-95.5 80,-76.5 0,-76.5"/>
<text text-anchor="middle" x="40" y="-83.5" font-family="Helvetica,sans-Serif" font-size="10.00">Join::validate</text>
</a>
</g>
</g>
<!-- Node2 -->
<g id="node2" class="node">
<title>Node2</title>
<g id="a_node2"><a xlink:href="classServer.html#a4fa910b5f5d034edcd67145c1df2d2cc" target="_top" xlink:title=" ">
<polygon fill="white" stroke="black" points="120,-152.5 120,-171.5 230,-171.5 230,-152.5 120,-152.5"/>
<text text-anchor="middle" x="175" y="-159.5" font-family="Helvetica,sans-Serif" font-size="10.00">Server::getChannel</text>
</a>
</g>
</g>
<!-- Node1&#45;&gt;Node2 -->
<g id="edge1" class="edge">
<title>Node1&#45;&gt;Node2</title>
<path fill="none" stroke="midnightblue" d="M51.4,-95.73C65.21,-108.2 90.8,-129.78 116,-143 120.07,-145.13 124.42,-147.09 128.85,-148.87"/>
<polygon fill="midnightblue" stroke="midnightblue" points="127.98,-152.28 138.57,-152.47 130.41,-145.72 127.98,-152.28"/>
</g>
<!-- Node3 -->
<g id="node3" class="node">
<title>Node3</title>
<g id="a_node3"><a xlink:href="classMessage.html#ae175384074674e34978f40261238d701" target="_top" xlink:title=" ">
<polygon fill="white" stroke="black" points="116,-114.5 116,-133.5 234,-133.5 234,-114.5 116,-114.5"/>
<text text-anchor="middle" x="175" y="-121.5" font-family="Helvetica,sans-Serif" font-size="10.00">Message::getParams</text>
</a>
</g>
</g>
<!-- Node1&#45;&gt;Node3 -->
<g id="edge2" class="edge">
<title>Node1&#45;&gt;Node3</title>
<path fill="none" stroke="midnightblue" d="M74.56,-95.59C91.57,-100.45 112.43,-106.41 130.64,-111.61"/>
<polygon fill="midnightblue" stroke="midnightblue" points="129.87,-115.03 140.45,-114.41 131.8,-108.3 129.87,-115.03"/>
</g>
<!-- Node4 -->
<g id="node4" class="node">
<title>Node4</title>
<g id="a_node4"><a xlink:href="classChannel.html#acc7d04f494e076b78a8affae33d3bcf8" target="_top" xlink:title=" ">
<polygon fill="white" stroke="black" points="129,-76.5 129,-95.5 221,-95.5 221,-76.5 129,-76.5"/>
<text text-anchor="middle" x="175" y="-83.5" font-family="Helvetica,sans-Serif" font-size="10.00">Channel::joined</text>
</a>
</g>
</g>
<!-- Node1&#45;&gt;Node4 -->
<g id="edge3" class="edge">
<title>Node1&#45;&gt;Node4</title>
<path fill="none" stroke="midnightblue" d="M80.19,-86C92.16,-86 105.56,-86 118.4,-86"/>
<polygon fill="midnightblue" stroke="midnightblue" points="118.54,-89.5 128.54,-86 118.54,-82.5 118.54,-89.5"/>
</g>
<!-- Node5 -->
<g id="node5" class="node">
<title>Node5</title>
<g id="a_node5"><a xlink:href="classClient.html#a9ee33da0a8d00f8416b934b6027d35cd" target="_top" xlink:title=" ">
<polygon fill="white" stroke="black" points="127.5,-38.5 127.5,-57.5 222.5,-57.5 222.5,-38.5 127.5,-38.5"/>
<text text-anchor="middle" x="175" y="-45.5" font-family="Helvetica,sans-Serif" font-size="10.00">Client::message</text>
</a>
</g>
</g>
<!-- Node1&#45;&gt;Node5 -->
<g id="edge4" class="edge">
<title>Node1&#45;&gt;Node5</title>
<path fill="none" stroke="midnightblue" d="M74.56,-76.41C91.57,-71.55 112.43,-65.59 130.64,-60.39"/>
<polygon fill="midnightblue" stroke="midnightblue" points="131.8,-63.7 140.45,-57.59 129.87,-56.97 131.8,-63.7"/>
</g>
<!-- Node6 -->
<g id="node6" class="node">
<title>Node6</title>
<g id="a_node6"><a xlink:href="functions_8hpp.html#a9f2ce856ffec652145a26842617b63e1" target="_top" xlink:title=" ">
<polygon fill="white" stroke="black" points="156,-0.5 156,-19.5 194,-19.5 194,-0.5 156,-0.5"/>
<text text-anchor="middle" x="175" y="-7.5" font-family="Helvetica,sans-Serif" font-size="10.00">split</text>
</a>
</g>
</g>
<!-- Node1&#45;&gt;Node6 -->
<g id="edge5" class="edge">
<title>Node1&#45;&gt;Node6</title>
<path fill="none" stroke="midnightblue" d="M51.4,-76.27C65.21,-63.8 90.8,-42.22 116,-29 125.4,-24.07 136.33,-20.09 146.15,-17.07"/>
<polygon fill="midnightblue" stroke="midnightblue" points="147.22,-20.4 155.87,-14.27 145.29,-13.67 147.22,-20.4"/>
</g>
</g>
</svg>
