<?xml version="1.0" encoding="UTF-8" standalone="no"?>
<!DOCTYPE svg PUBLIC "-//W3C//DTD SVG 1.1//EN"
 "http://www.w3.org/Graphics/SVG/1.1/DTD/svg11.dtd">
<!-- Generated by graphviz version 2.43.0 (0)
 -->
<!-- Title: PrivMsg::execute Pages: 1 -->
<svg width="262pt" height="218pt"
 viewBox="0.00 0.00 262.00 218.00" xmlns="http://www.w3.org/2000/svg" xmlns:xlink="http://www.w3.org/1999/xlink">
<g id="graph0" class="graph" transform="scale(1 1) rotate(0) translate(4 214)">
<title>PrivMsg::execute</title>
<polygon fill="white" stroke="transparent" points="-4,4 -4,-214 258,-214 258,4 -4,4"/>
<!-- Node1 -->
<g id="node1" class="node">
<title>Node1</title>
<g id="a_node1"><a xlink:title=" ">
<polygon fill="#bfbfbf" stroke="black" points="0,-95.5 0,-114.5 100,-114.5 100,-95.5 0,-95.5"/>
<text text-anchor="middle" x="50" y="-102.5" font-family="Helvetica,sans-Serif" font-size="10.00">PrivMsg::execute</text>
</a>
</g>
</g>
<!-- Node2 -->
<g id="node2" class="node">
<title>Node2</title>
<g id="a_node2"><a xlink:href="classServer.html#a4fa910b5f5d034edcd67145c1df2d2cc" target="_top" xlink:title=" ">
<polygon fill="white" stroke="black" points="140,-190.5 140,-209.5 250,-209.5 250,-190.5 140,-190.5"/>
<text text-anchor="middle" x="195" y="-197.5" font-family="Helvetica,sans-Serif" font-size="10.00">Server::getChannel</text>
</a>
</g>
</g>
<!-- Node1&#45;&gt;Node2 -->
<g id="edge1" class="edge">
<title>Node1&#45;&gt;Node2</title>
<path fill="none" stroke="midnightblue" d="M59.21,-114.56C73.36,-130.48 103.93,-162.51 136,-181 139.67,-183.11 143.6,-185.03 147.63,-186.76"/>
<polygon fill="midnightblue" stroke="midnightblue" points="146.53,-190.09 157.12,-190.46 149.07,-183.57 146.53,-190.09"/>
</g>
<!-- Node3 -->
<g id="node3" class="node">
<title>Node3</title>
<g id="a_node3"><a xlink:href="classServer.html#ae4313a2ec9463bf58b75860457c737fb" target="_top" xlink:title=" ">
<polygon fill="white" stroke="black" points="146,-152.5 146,-171.5 244,-171.5 244,-152.5 146,-152.5"/>
<text text-anchor="middle" x="195" y="-159.5" font-family="Helvetica,sans-Serif" font-size="10.00">Server::getClient</text>
</a>
</g>
</g>
<!-- Node1&#45;&gt;Node3 -->
<g id="edge2" class="edge">
<title>Node1&#45;&gt;Node3</title>
<path fill="none" stroke="midnightblue" d="M71.02,-114.66C88.09,-122.72 113.38,-134.27 136,-143 141.51,-145.13 147.37,-147.23 153.16,-149.22"/>
<polygon fill="midnightblue" stroke="midnightblue" points="152.19,-152.58 162.79,-152.43 154.41,-145.94 152.19,-152.58"/>
</g>
<!-- Node4 -->
<g id="node4" class="node">
<title>Node4</title>
<g id="a_node4"><a xlink:href="classMessage.html#ae175384074674e34978f40261238d701" target="_top" xlink:title=" ">
<polygon fill="white" stroke="black" points="136,-114.5 136,-133.5 254,-133.5 254,-114.5 136,-114.5"/>
<text text-anchor="middle" x="195" y="-121.5" font-family="Helvetica,sans-Serif" font-size="10.00">Message::getParams</text>
</a>
</g>
</g>
<!-- Node1&#45;&gt;Node4 -->
<g id="edge3" class="edge">
<title>Node1&#45;&gt;Node4</title>
<path fill="none" stroke="midnightblue" d="M100.21,-111.54C108.46,-112.63 117.14,-113.79 125.76,-114.93"/>
<polygon fill="midnightblue" stroke="midnightblue" points="125.45,-118.42 135.83,-116.27 126.37,-111.48 125.45,-118.42"/>
</g>
<!-- Node5 -->
<g id="node5" class="node">
<title>Node5</title>
<g id="a_node5"><a xlink:href="classChannel.html#acc7d04f494e076b78a8affae33d3bcf8" target="_top" xlink:title=" ">
<polygon fill="white" stroke="black" points="149,-76.5 149,-95.5 241,-95.5 241,-76.5 149,-76.5"/>
<text text-anchor="middle" x="195" y="-83.5" font-family="Helvetica,sans-Serif" font-size="10.00">Channel::joined</text>
</a>
</g>
</g>
<!-- Node1&#45;&gt;Node5 -->
<g id="edge4" class="edge">
<title>Node1&#45;&gt;Node5</title>
<path fill="none" stroke="midnightblue" d="M100.21,-98.46C112.58,-96.82 125.94,-95.04 138.58,-93.36"/>
<polygon fill="midnightblue" stroke="midnightblue" points="139.09,-96.83 148.54,-92.04 138.17,-89.89 139.09,-96.83"/>
</g>
<!-- Node6 -->
<g id="node6" class="node">
<title>Node6</title>
<g id="a_node6"><a xlink:href="classClient.html#a9ee33da0a8d00f8416b934b6027d35cd" target="_top" xlink:title=" ">
<polygon fill="white" stroke="black" points="147.5,-38.5 147.5,-57.5 242.5,-57.5 242.5,-38.5 147.5,-38.5"/>
<text text-anchor="middle" x="195" y="-45.5" font-family="Helvetica,sans-Serif" font-size="10.00">Client::message</text>
</a>
</g>
</g>
<!-- Node1&#45;&gt;Node6 -->
<g id="edge5" class="edge">
<title>Node1&#45;&gt;Node6</title>
<path fill="none" stroke="midnightblue" d="M71.02,-95.34C88.09,-87.28 113.38,-75.73 136,-67 141.51,-64.87 147.37,-62.77 153.16,-60.78"/>
<polygon fill="midnightblue" stroke="midnightblue" points="154.41,-64.06 162.79,-57.57 152.19,-57.42 154.41,-64.06"/>
</g>
<!-- Node7 -->
<g id="node7" class="node">
<title>Node7</title>
<g id="a_node7"><a xlink:href="functions_8hpp.html#a9f2ce856ffec652145a26842617b63e1" target="_top" xlink:title=" ">
<polygon fill="white" stroke="black" points="176,-0.5 176,-19.5 214,-19.5 214,-0.5 176,-0.5"/>
<text text-anchor="middle" x="195" y="-7.5" font-family="Helvetica,sans-Serif" font-size="10.00">split</text>
</a>
</g>
</g>
<!-- Node1&#45;&gt;Node7 -->
<g id="edge6" class="edge">
<title>Node1&#45;&gt;Node7</title>
<path fill="none" stroke="midnightblue" d="M59.21,-95.44C73.36,-79.52 103.93,-47.49 136,-29 145.27,-23.66 156.24,-19.57 166.14,-16.59"/>
<polygon fill="midnightblue" stroke="midnightblue" points="167.24,-19.91 175.94,-13.87 165.37,-13.17 167.24,-19.91"/>
</g>
</g>
</svg>
