<?xml version="1.0" encoding="UTF-8" standalone="no"?>
<!DOCTYPE svg PUBLIC "-//W3C//DTD SVG 1.1//EN"
 "http://www.w3.org/Graphics/SVG/1.1/DTD/svg11.dtd">
<!-- Generated by graphviz version 2.43.0 (0)
 -->
<!-- Title: srcs/client.cpp Pages: 1 -->
<svg width="886pt" height="196pt"
 viewBox="0.00 0.00 885.50 196.00" xmlns="http://www.w3.org/2000/svg" xmlns:xlink="http://www.w3.org/1999/xlink">
<g id="graph0" class="graph" transform="scale(1 1) rotate(0) translate(4 192)">
<title>srcs/client.cpp</title>
<polygon fill="white" stroke="transparent" points="-4,4 -4,-192 881.5,-192 881.5,4 -4,4"/>
<!-- Node1 -->
<g id="node1" class="node">
<title>Node1</title>
<g id="a_node1"><a xlink:title=" ">
<polygon fill="#bfbfbf" stroke="black" points="337,-168.5 337,-187.5 423,-187.5 423,-168.5 337,-168.5"/>
<text text-anchor="middle" x="380" y="-175.5" font-family="Helvetica,sans-Serif" font-size="10.00">srcs/client.cpp</text>
</a>
</g>
</g>
<!-- Node2 -->
<g id="node2" class="node">
<title>Node2</title>
<g id="a_node2"><a xlink:href="Client_8hpp.html" target="_top" xlink:title=" ">
<polygon fill="white" stroke="black" points="320.5,-112.5 320.5,-131.5 439.5,-131.5 439.5,-112.5 320.5,-112.5"/>
<text text-anchor="middle" x="380" y="-119.5" font-family="Helvetica,sans-Serif" font-size="10.00">../includes/Client.hpp</text>
</a>
</g>
</g>
<!-- Node1&#45;&gt;Node2 -->
<g id="edge1" class="edge">
<title>Node1&#45;&gt;Node2</title>
<path fill="none" stroke="midnightblue" d="M380,-168.08C380,-161.01 380,-150.86 380,-141.99"/>
<polygon fill="midnightblue" stroke="midnightblue" points="383.5,-141.75 380,-131.75 376.5,-141.75 383.5,-141.75"/>
</g>
<!-- Node3 -->
<g id="node3" class="node">
<title>Node3</title>
<g id="a_node3"><a xlink:title=" ">
<polygon fill="white" stroke="#bfbfbf" points="0,-0.5 0,-19.5 50,-19.5 50,-0.5 0,-0.5"/>
<text text-anchor="middle" x="25" y="-7.5" font-family="Helvetica,sans-Serif" font-size="10.00">cstring</text>
</a>
</g>
</g>
<!-- Node2&#45;&gt;Node3 -->
<g id="edge2" class="edge">
<title>Node2&#45;&gt;Node3</title>
<path fill="none" stroke="midnightblue" d="M320.39,-116.14C247.58,-109.45 129.24,-95.92 90,-76 67.87,-64.77 48.65,-43.2 36.96,-28"/>
<polygon fill="midnightblue" stroke="midnightblue" points="39.74,-25.87 30.98,-19.91 34.11,-30.03 39.74,-25.87"/>
</g>
<!-- Node4 -->
<g id="node4" class="node">
<title>Node4</title>
<g id="a_node4"><a xlink:title=" ">
<polygon fill="white" stroke="#bfbfbf" points="68,-0.5 68,-19.5 128,-19.5 128,-0.5 68,-0.5"/>
<text text-anchor="middle" x="98" y="-7.5" font-family="Helvetica,sans-Serif" font-size="10.00">iostream</text>
</a>
</g>
</g>
<!-- Node2&#45;&gt;Node4 -->
<g id="edge3" class="edge">
<title>Node2&#45;&gt;Node4</title>
<path fill="none" stroke="midnightblue" d="M320.21,-119.65C247.66,-116.64 131.48,-106.98 103,-76 91.77,-63.78 91.76,-44.24 93.81,-29.77"/>
<polygon fill="midnightblue" stroke="midnightblue" points="97.26,-30.36 95.62,-19.89 90.37,-29.1 97.26,-30.36"/>
</g>
<!-- Node5 -->
<g id="node5" class="node">
<title>Node5</title>
<g id="a_node5"><a xlink:title=" ">
<polygon fill="white" stroke="#bfbfbf" points="208,-0.5 208,-19.5 246,-19.5 246,-0.5 208,-0.5"/>
<text text-anchor="middle" x="227" y="-7.5" font-family="Helvetica,sans-Serif" font-size="10.00">map</text>
</a>
</g>
</g>
<!-- Node2&#45;&gt;Node5 -->
<g id="edge4" class="edge">
<title>Node2&#45;&gt;Node5</title>
<path fill="none" stroke="midnightblue" d="M320.29,-113.52C294.33,-107.4 265.47,-96.26 246,-76 234.17,-63.69 229.65,-44.44 227.95,-30.08"/>
<polygon fill="midnightblue" stroke="midnightblue" points="231.41,-29.51 227.11,-19.83 224.44,-30.08 231.41,-29.51"/>
</g>
<!-- Node6 -->
<g id="node6" class="node">
<title>Node6</title>
<g id="a_node6"><a xlink:title=" ">
<polygon fill="white" stroke="#bfbfbf" points="255,-56.5 255,-75.5 299,-75.5 299,-56.5 255,-56.5"/>
<text text-anchor="middle" x="277" y="-63.5" font-family="Helvetica,sans-Serif" font-size="10.00">poll.h</text>
</a>
</g>
</g>
<!-- Node2&#45;&gt;Node6 -->
<g id="edge5" class="edge">
<title>Node2&#45;&gt;Node6</title>
<path fill="none" stroke="midnightblue" d="M363.45,-112.32C347.01,-103.7 321.57,-90.36 302.53,-80.39"/>
<polygon fill="midnightblue" stroke="midnightblue" points="303.99,-77.2 293.51,-75.65 300.74,-83.4 303.99,-77.2"/>
</g>
<!-- Node7 -->
<g id="node7" class="node">
<title>Node7</title>
<g id="a_node7"><a xlink:title=" ">
<polygon fill="white" stroke="#bfbfbf" points="317,-56.5 317,-75.5 373,-75.5 373,-56.5 317,-56.5"/>
<text text-anchor="middle" x="345" y="-63.5" font-family="Helvetica,sans-Serif" font-size="10.00">unistd.h</text>
</a>
</g>
</g>
<!-- Node2&#45;&gt;Node7 -->
<g id="edge6" class="edge">
<title>Node2&#45;&gt;Node7</title>
<path fill="none" stroke="midnightblue" d="M374.22,-112.08C369.33,-104.53 362.17,-93.49 356.17,-84.23"/>
<polygon fill="midnightblue" stroke="midnightblue" points="359.05,-82.24 350.67,-75.75 353.17,-86.05 359.05,-82.24"/>
</g>
<!-- Node8 -->
<g id="node8" class="node">
<title>Node8</title>
<g id="a_node8"><a xlink:title=" ">
<polygon fill="white" stroke="#bfbfbf" points="391.5,-56.5 391.5,-75.5 438.5,-75.5 438.5,-56.5 391.5,-56.5"/>
<text text-anchor="middle" x="415" y="-63.5" font-family="Helvetica,sans-Serif" font-size="10.00">vector</text>
</a>
</g>
</g>
<!-- Node2&#45;&gt;Node8 -->
<g id="edge7" class="edge">
<title>Node2&#45;&gt;Node8</title>
<path fill="none" stroke="midnightblue" d="M385.78,-112.08C390.67,-104.53 397.83,-93.49 403.83,-84.23"/>
<polygon fill="midnightblue" stroke="midnightblue" points="406.83,-86.05 409.33,-75.75 400.95,-82.24 406.83,-86.05"/>
</g>
<!-- Node9 -->
<g id="node9" class="node">
<title>Node9</title>
<g id="a_node9"><a xlink:title=" ">
<polygon fill="white" stroke="#bfbfbf" points="456.5,-56.5 456.5,-75.5 509.5,-75.5 509.5,-56.5 456.5,-56.5"/>
<text text-anchor="middle" x="483" y="-63.5" font-family="Helvetica,sans-Serif" font-size="10.00">netdb.h</text>
</a>
</g>
</g>
<!-- Node2&#45;&gt;Node9 -->
<g id="edge8" class="edge">
<title>Node2&#45;&gt;Node9</title>
<path fill="none" stroke="midnightblue" d="M396.55,-112.32C412.99,-103.7 438.43,-90.36 457.47,-80.39"/>
<polygon fill="midnightblue" stroke="midnightblue" points="459.26,-83.4 466.49,-75.65 456.01,-77.2 459.26,-83.4"/>
</g>
<!-- Node10 -->
<g id="node10" class="node">
<title>Node10</title>
<g id="a_node10"><a xlink:title=" ">
<polygon fill="white" stroke="#bfbfbf" points="528,-56.5 528,-75.5 600,-75.5 600,-56.5 528,-56.5"/>
<text text-anchor="middle" x="564" y="-63.5" font-family="Helvetica,sans-Serif" font-size="10.00">netinet/in.h</text>
</a>
</g>
</g>
<!-- Node2&#45;&gt;Node10 -->
<g id="edge9" class="edge">
<title>Node2&#45;&gt;Node10</title>
<path fill="none" stroke="midnightblue" d="M409.16,-112.44C440.51,-103.24 490.53,-88.56 525.2,-78.39"/>
<polygon fill="midnightblue" stroke="midnightblue" points="526.37,-81.69 534.98,-75.52 524.4,-74.97 526.37,-81.69"/>
</g>
<!-- Node11 -->
<g id="node11" class="node">
<title>Node11</title>
<g id="a_node11"><a xlink:title=" ">
<polygon fill="white" stroke="#bfbfbf" points="618.5,-56.5 618.5,-75.5 695.5,-75.5 695.5,-56.5 618.5,-56.5"/>
<text text-anchor="middle" x="657" y="-63.5" font-family="Helvetica,sans-Serif" font-size="10.00">sys/socket.h</text>
</a>
</g>
</g>
<!-- Node2&#45;&gt;Node11 -->
<g id="edge10" class="edge">
<title>Node2&#45;&gt;Node11</title>
<path fill="none" stroke="midnightblue" d="M423.89,-112.44C474.09,-102.66 556.05,-86.68 608.21,-76.51"/>
<polygon fill="midnightblue" stroke="midnightblue" points="609.08,-79.91 618.23,-74.56 607.75,-73.04 609.08,-79.91"/>
</g>
<!-- Node12 -->
<g id="node12" class="node">
<title>Node12</title>
<g id="a_node12"><a xlink:title=" ">
<polygon fill="white" stroke="#bfbfbf" points="714,-56.5 714,-75.5 786,-75.5 786,-56.5 714,-56.5"/>
<text text-anchor="middle" x="750" y="-63.5" font-family="Helvetica,sans-Serif" font-size="10.00">sys/types.h</text>
</a>
</g>
</g>
<!-- Node2&#45;&gt;Node12 -->
<g id="edge11" class="edge">
<title>Node2&#45;&gt;Node12</title>
<path fill="none" stroke="midnightblue" d="M439.77,-113.81C502.92,-105.97 605.65,-92.53 703.61,-76.15"/>
<polygon fill="midnightblue" stroke="midnightblue" points="704.41,-79.57 713.69,-74.46 703.24,-72.67 704.41,-79.57"/>
</g>
<!-- Node13 -->
<g id="node13" class="node">
<title>Node13</title>
<g id="a_node13"><a xlink:href="Message_8hpp.html" target="_top" xlink:title=" ">
<polygon fill="white" stroke="black" points="111.5,-56.5 111.5,-75.5 198.5,-75.5 198.5,-56.5 111.5,-56.5"/>
<text text-anchor="middle" x="155" y="-63.5" font-family="Helvetica,sans-Serif" font-size="10.00">./Message.hpp</text>
</a>
</g>
</g>
<!-- Node2&#45;&gt;Node13 -->
<g id="edge12" class="edge">
<title>Node2&#45;&gt;Node13</title>
<path fill="none" stroke="midnightblue" d="M344.35,-112.44C305.34,-103.08 242.73,-88.06 200.28,-77.87"/>
<polygon fill="midnightblue" stroke="midnightblue" points="201.03,-74.45 190.49,-75.52 199.39,-81.25 201.03,-74.45"/>
</g>
<!-- Node15 -->
<g id="node15" class="node">
<title>Node15</title>
<g id="a_node15"><a xlink:href="config_8hpp.html" target="_top" xlink:title=" ">
<polygon fill="white" stroke="black" points="804.5,-56.5 804.5,-75.5 877.5,-75.5 877.5,-56.5 804.5,-56.5"/>
<text text-anchor="middle" x="841" y="-63.5" font-family="Helvetica,sans-Serif" font-size="10.00">./config.hpp</text>
</a>
</g>
</g>
<!-- Node2&#45;&gt;Node15 -->
<g id="edge17" class="edge">
<title>Node2&#45;&gt;Node15</title>
<path fill="none" stroke="midnightblue" d="M439.65,-116.14C518.48,-109.36 661.86,-95.79 794.46,-75.96"/>
<polygon fill="midnightblue" stroke="midnightblue" points="795.03,-79.41 804.39,-74.45 793.98,-72.49 795.03,-79.41"/>
</g>
<!-- Node13&#45;&gt;Node3 -->
<g id="edge13" class="edge">
<title>Node13&#45;&gt;Node3</title>
<path fill="none" stroke="midnightblue" d="M134.4,-56.44C113.01,-47.56 79.32,-33.56 54.98,-23.45"/>
<polygon fill="midnightblue" stroke="midnightblue" points="56.08,-20.12 45.5,-19.52 53.39,-26.58 56.08,-20.12"/>
</g>
<!-- Node13&#45;&gt;Node4 -->
<g id="edge14" class="edge">
<title>Node13&#45;&gt;Node4</title>
<path fill="none" stroke="midnightblue" d="M145.84,-56.32C137.5,-48.42 124.97,-36.55 114.82,-26.94"/>
<polygon fill="midnightblue" stroke="midnightblue" points="116.99,-24.17 107.32,-19.83 112.18,-29.25 116.99,-24.17"/>
</g>
<!-- Node13&#45;&gt;Node5 -->
<g id="edge15" class="edge">
<title>Node13&#45;&gt;Node5</title>
<path fill="none" stroke="midnightblue" d="M166.57,-56.32C177.42,-48.18 193.88,-35.84 206.88,-26.09"/>
<polygon fill="midnightblue" stroke="midnightblue" points="209.32,-28.63 215.22,-19.83 205.12,-23.03 209.32,-28.63"/>
</g>
<!-- Node14 -->
<g id="node14" class="node">
<title>Node14</title>
<g id="a_node14"><a xlink:title=" ">
<polygon fill="white" stroke="#bfbfbf" points="146,-0.5 146,-19.5 190,-19.5 190,-0.5 146,-0.5"/>
<text text-anchor="middle" x="168" y="-7.5" font-family="Helvetica,sans-Serif" font-size="10.00">string</text>
</a>
</g>
</g>
<!-- Node13&#45;&gt;Node14 -->
<g id="edge16" class="edge">
<title>Node13&#45;&gt;Node14</title>
<path fill="none" stroke="midnightblue" d="M157.15,-56.08C158.87,-48.93 161.35,-38.64 163.5,-29.69"/>
<polygon fill="midnightblue" stroke="midnightblue" points="166.96,-30.29 165.89,-19.75 160.15,-28.65 166.96,-30.29"/>
</g>
</g>
</svg>
