<?xml version="1.0" encoding="UTF-8" standalone="no"?>
<!DOCTYPE svg PUBLIC "-//W3C//DTD SVG 1.1//EN"
 "http://www.w3.org/Graphics/SVG/1.1/DTD/svg11.dtd">
<!-- Generated by graphviz version 2.43.0 (0)
 -->
<!-- Title: includes/commands/Help.hpp Pages: 1 -->
<svg width="1129pt" height="364pt"
 viewBox="0.00 0.00 1129.00 364.00" xmlns="http://www.w3.org/2000/svg" xmlns:xlink="http://www.w3.org/1999/xlink">
<g id="graph0" class="graph" transform="scale(1 1) rotate(0) translate(4 360)">
<title>includes/commands/Help.hpp</title>
<polygon fill="white" stroke="transparent" points="-4,4 -4,-360 1125,-360 1125,4 -4,4"/>
<!-- Node1 -->
<g id="node1" class="node">
<title>Node1</title>
<g id="a_node1"><a xlink:title=" ">
<polygon fill="#bfbfbf" stroke="black" points="204,-336.5 204,-355.5 365,-355.5 365,-336.5 204,-336.5"/>
<text text-anchor="middle" x="284.5" y="-343.5" font-family="Helvetica,sans-Serif" font-size="10.00">includes/commands/Help.hpp</text>
</a>
</g>
</g>
<!-- Node2 -->
<g id="node2" class="node">
<title>Node2</title>
<g id="a_node2"><a xlink:href="Command_8hpp.html" target="_top" xlink:title=" ">
<polygon fill="white" stroke="black" points="236,-280.5 236,-299.5 333,-299.5 333,-280.5 236,-280.5"/>
<text text-anchor="middle" x="284.5" y="-287.5" font-family="Helvetica,sans-Serif" font-size="10.00">../Command.hpp</text>
</a>
</g>
</g>
<!-- Node1&#45;&gt;Node2 -->
<g id="edge1" class="edge">
<title>Node1&#45;&gt;Node2</title>
<path fill="none" stroke="midnightblue" d="M284.5,-336.08C284.5,-329.01 284.5,-318.86 284.5,-309.99"/>
<polygon fill="midnightblue" stroke="midnightblue" points="288,-309.75 284.5,-299.75 281,-309.75 288,-309.75"/>
</g>
<!-- Node3 -->
<g id="node3" class="node">
<title>Node3</title>
<g id="a_node3"><a xlink:href="Server_8hpp.html" target="_top" xlink:title=" ">
<polygon fill="white" stroke="black" points="247.5,-224.5 247.5,-243.5 321.5,-243.5 321.5,-224.5 247.5,-224.5"/>
<text text-anchor="middle" x="284.5" y="-231.5" font-family="Helvetica,sans-Serif" font-size="10.00">./Server.hpp</text>
</a>
</g>
</g>
<!-- Node2&#45;&gt;Node3 -->
<g id="edge2" class="edge">
<title>Node2&#45;&gt;Node3</title>
<path fill="none" stroke="midnightblue" d="M284.5,-280.08C284.5,-273.01 284.5,-262.86 284.5,-253.99"/>
<polygon fill="midnightblue" stroke="midnightblue" points="288,-253.75 284.5,-243.75 281,-253.75 288,-253.75"/>
</g>
<!-- Node4 -->
<g id="node4" class="node">
<title>Node4</title>
<g id="a_node4"><a xlink:title=" ">
<polygon fill="white" stroke="#bfbfbf" points="0,-168.5 0,-187.5 69,-187.5 69,-168.5 0,-168.5"/>
<text text-anchor="middle" x="34.5" y="-175.5" font-family="Helvetica,sans-Serif" font-size="10.00">arpa/inet.h</text>
</a>
</g>
</g>
<!-- Node3&#45;&gt;Node4 -->
<g id="edge3" class="edge">
<title>Node3&#45;&gt;Node4</title>
<path fill="none" stroke="midnightblue" d="M247.34,-224.97C202.39,-215.26 126.79,-198.93 78.83,-188.58"/>
<polygon fill="midnightblue" stroke="midnightblue" points="79.55,-185.15 69.04,-186.46 78.08,-191.99 79.55,-185.15"/>
</g>
<!-- Node5 -->
<g id="node5" class="node">
<title>Node5</title>
<g id="a_node5"><a xlink:title=" ">
<polygon fill="white" stroke="#bfbfbf" points="87,-168.5 87,-187.5 136,-187.5 136,-168.5 87,-168.5"/>
<text text-anchor="middle" x="111.5" y="-175.5" font-family="Helvetica,sans-Serif" font-size="10.00">cstdlib</text>
</a>
</g>
</g>
<!-- Node3&#45;&gt;Node5 -->
<g id="edge4" class="edge">
<title>Node3&#45;&gt;Node5</title>
<path fill="none" stroke="midnightblue" d="M257.09,-224.44C226.95,-215.04 178.49,-199.91 145.85,-189.72"/>
<polygon fill="midnightblue" stroke="midnightblue" points="146.85,-186.37 136.26,-186.73 144.76,-193.05 146.85,-186.37"/>
</g>
<!-- Node6 -->
<g id="node6" class="node">
<title>Node6</title>
<g id="a_node6"><a xlink:title=" ">
<polygon fill="white" stroke="#bfbfbf" points="154,-168.5 154,-187.5 201,-187.5 201,-168.5 154,-168.5"/>
<text text-anchor="middle" x="177.5" y="-175.5" font-family="Helvetica,sans-Serif" font-size="10.00">fcntl.h</text>
</a>
</g>
</g>
<!-- Node3&#45;&gt;Node6 -->
<g id="edge5" class="edge">
<title>Node3&#45;&gt;Node6</title>
<path fill="none" stroke="midnightblue" d="M267.31,-224.32C250.15,-215.66 223.55,-202.24 203.75,-192.25"/>
<polygon fill="midnightblue" stroke="midnightblue" points="205.15,-189.04 194.65,-187.65 202,-195.28 205.15,-189.04"/>
</g>
<!-- Node7 -->
<g id="node7" class="node">
<title>Node7</title>
<g id="a_node7"><a xlink:title=" ">
<polygon fill="white" stroke="#bfbfbf" points="227.5,-0.5 227.5,-19.5 271.5,-19.5 271.5,-0.5 227.5,-0.5"/>
<text text-anchor="middle" x="249.5" y="-7.5" font-family="Helvetica,sans-Serif" font-size="10.00">string</text>
</a>
</g>
</g>
<!-- Node3&#45;&gt;Node7 -->
<g id="edge6" class="edge">
<title>Node3&#45;&gt;Node7</title>
<path fill="none" stroke="midnightblue" d="M277.99,-224.42C265.78,-207.73 239.83,-169.22 230.5,-132 221.49,-96.05 233.56,-52.96 242.18,-29.12"/>
<polygon fill="midnightblue" stroke="midnightblue" points="245.51,-30.21 245.81,-19.61 238.97,-27.71 245.51,-30.21"/>
</g>
<!-- Node8 -->
<g id="node8" class="node">
<title>Node8</title>
<g id="a_node8"><a xlink:href="Channel_8hpp.html" target="_top" xlink:title=" ">
<polygon fill="white" stroke="black" points="341,-168.5 341,-187.5 424,-187.5 424,-168.5 341,-168.5"/>
<text text-anchor="middle" x="382.5" y="-175.5" font-family="Helvetica,sans-Serif" font-size="10.00">./Channel.hpp</text>
</a>
</g>
</g>
<!-- Node3&#45;&gt;Node8 -->
<g id="edge7" class="edge">
<title>Node3&#45;&gt;Node8</title>
<path fill="none" stroke="midnightblue" d="M300.25,-224.32C315.82,-215.74 339.88,-202.49 357.96,-192.52"/>
<polygon fill="midnightblue" stroke="midnightblue" points="359.72,-195.55 366.79,-187.65 356.35,-189.42 359.72,-195.55"/>
</g>
<!-- Node9 -->
<g id="node9" class="node">
<title>Node9</title>
<g id="a_node9"><a xlink:href="Client_8hpp.html" target="_top" xlink:title=" ">
<polygon fill="white" stroke="black" points="511.5,-112.5 511.5,-131.5 583.5,-131.5 583.5,-112.5 511.5,-112.5"/>
<text text-anchor="middle" x="547.5" y="-119.5" font-family="Helvetica,sans-Serif" font-size="10.00">./Client.hpp</text>
</a>
</g>
</g>
<!-- Node3&#45;&gt;Node9 -->
<g id="edge27" class="edge">
<title>Node3&#45;&gt;Node9</title>
<path fill="none" stroke="midnightblue" d="M320.26,-224.48C350.73,-216.67 395.35,-203.92 432.5,-188 466.59,-173.39 503.5,-151.3 526.07,-137.01"/>
<polygon fill="midnightblue" stroke="midnightblue" points="528,-139.93 534.53,-131.59 524.22,-134.04 528,-139.93"/>
</g>
<!-- Node21 -->
<g id="node21" class="node">
<title>Node21</title>
<g id="a_node21"><a xlink:href="config_8hpp.html" target="_top" xlink:title=" ">
<polygon fill="white" stroke="black" points="1048,-56.5 1048,-75.5 1121,-75.5 1121,-56.5 1048,-56.5"/>
<text text-anchor="middle" x="1084.5" y="-63.5" font-family="Helvetica,sans-Serif" font-size="10.00">./config.hpp</text>
</a>
</g>
</g>
<!-- Node3&#45;&gt;Node21 -->
<g id="edge29" class="edge">
<title>Node3&#45;&gt;Node21</title>
<path fill="none" stroke="midnightblue" d="M321.75,-225.27C452.93,-198.05 893.42,-106.65 1038.06,-76.64"/>
<polygon fill="midnightblue" stroke="midnightblue" points="1038.87,-80.04 1047.95,-74.58 1037.45,-73.19 1038.87,-80.04"/>
</g>
<!-- Node23 -->
<g id="node23" class="node">
<title>Node23</title>
<g id="a_node23"><a xlink:href="Color_8hpp.html" target="_top" xlink:title=" ">
<polygon fill="white" stroke="black" points="639.5,-168.5 639.5,-187.5 707.5,-187.5 707.5,-168.5 639.5,-168.5"/>
<text text-anchor="middle" x="673.5" y="-175.5" font-family="Helvetica,sans-Serif" font-size="10.00">./Color.hpp</text>
</a>
</g>
</g>
<!-- Node3&#45;&gt;Node23 -->
<g id="edge28" class="edge">
<title>Node3&#45;&gt;Node23</title>
<path fill="none" stroke="midnightblue" d="M321.68,-228.76C384.46,-221.46 515.38,-205.58 625.5,-188 626.77,-187.8 628.06,-187.59 629.36,-187.37"/>
<polygon fill="midnightblue" stroke="midnightblue" points="630.2,-190.78 639.45,-185.62 629,-183.88 630.2,-190.78"/>
</g>
<!-- Node24 -->
<g id="node24" class="node">
<title>Node24</title>
<g id="a_node24"><a xlink:href="functions_8hpp.html" target="_top" xlink:title=" ">
<polygon fill="white" stroke="black" points="240,-112.5 240,-131.5 329,-131.5 329,-112.5 240,-112.5"/>
<text text-anchor="middle" x="284.5" y="-119.5" font-family="Helvetica,sans-Serif" font-size="10.00">./functions.hpp</text>
</a>
</g>
</g>
<!-- Node3&#45;&gt;Node24 -->
<g id="edge30" class="edge">
<title>Node3&#45;&gt;Node24</title>
<path fill="none" stroke="midnightblue" d="M284.5,-224.37C284.5,-206.62 284.5,-165.67 284.5,-141.6"/>
<polygon fill="midnightblue" stroke="midnightblue" points="288,-141.59 284.5,-131.59 281,-141.59 288,-141.59"/>
</g>
<!-- Node8&#45;&gt;Node9 -->
<g id="edge8" class="edge">
<title>Node8&#45;&gt;Node9</title>
<path fill="none" stroke="midnightblue" d="M408.64,-168.44C436.52,-159.32 480.85,-144.81 511.9,-134.65"/>
<polygon fill="midnightblue" stroke="midnightblue" points="513.06,-137.95 521.48,-131.52 510.88,-131.3 513.06,-137.95"/>
</g>
<!-- Node15 -->
<g id="node15" class="node">
<title>Node15</title>
<g id="a_node15"><a xlink:title=" ">
<polygon fill="white" stroke="#bfbfbf" points="278,-56.5 278,-75.5 325,-75.5 325,-56.5 278,-56.5"/>
<text text-anchor="middle" x="301.5" y="-63.5" font-family="Helvetica,sans-Serif" font-size="10.00">vector</text>
</a>
</g>
</g>
<!-- Node8&#45;&gt;Node15 -->
<g id="edge26" class="edge">
<title>Node8&#45;&gt;Node15</title>
<path fill="none" stroke="midnightblue" d="M376.86,-168.45C368.51,-155.9 352.26,-131.81 337.5,-112 330.4,-102.47 322.14,-92.1 315.33,-83.72"/>
<polygon fill="midnightblue" stroke="midnightblue" points="317.9,-81.34 308.86,-75.82 312.49,-85.77 317.9,-81.34"/>
</g>
<!-- Node22 -->
<g id="node22" class="node">
<title>Node22</title>
<g id="a_node22"><a xlink:title=" ">
<polygon fill="white" stroke="#bfbfbf" points="385.5,-112.5 385.5,-131.5 429.5,-131.5 429.5,-112.5 385.5,-112.5"/>
<text text-anchor="middle" x="407.5" y="-119.5" font-family="Helvetica,sans-Serif" font-size="10.00">ctime</text>
</a>
</g>
</g>
<!-- Node8&#45;&gt;Node22 -->
<g id="edge25" class="edge">
<title>Node8&#45;&gt;Node22</title>
<path fill="none" stroke="midnightblue" d="M386.63,-168.08C390.01,-160.77 394.92,-150.18 399.12,-141.1"/>
<polygon fill="midnightblue" stroke="midnightblue" points="402.42,-142.3 403.45,-131.75 396.07,-139.36 402.42,-142.3"/>
</g>
<!-- Node10 -->
<g id="node10" class="node">
<title>Node10</title>
<g id="a_node10"><a xlink:title=" ">
<polygon fill="white" stroke="#bfbfbf" points="764.5,-0.5 764.5,-19.5 814.5,-19.5 814.5,-0.5 764.5,-0.5"/>
<text text-anchor="middle" x="789.5" y="-7.5" font-family="Helvetica,sans-Serif" font-size="10.00">cstring</text>
</a>
</g>
</g>
<!-- Node9&#45;&gt;Node10 -->
<g id="edge9" class="edge">
<title>Node9&#45;&gt;Node10</title>
<path fill="none" stroke="midnightblue" d="M583.76,-114.08C588.38,-113.32 593.04,-112.6 597.5,-112 642.06,-106.01 970.16,-109.17 1000.5,-76 1051.79,-19.93 897.1,-11.72 824.7,-10.87"/>
<polygon fill="midnightblue" stroke="midnightblue" points="824.67,-7.37 814.65,-10.79 824.62,-14.37 824.67,-7.37"/>
</g>
<!-- Node11 -->
<g id="node11" class="node">
<title>Node11</title>
<g id="a_node11"><a xlink:title=" ">
<polygon fill="white" stroke="#bfbfbf" points="343.5,-0.5 343.5,-19.5 403.5,-19.5 403.5,-0.5 343.5,-0.5"/>
<text text-anchor="middle" x="373.5" y="-7.5" font-family="Helvetica,sans-Serif" font-size="10.00">iostream</text>
</a>
</g>
</g>
<!-- Node9&#45;&gt;Node11 -->
<g id="edge10" class="edge">
<title>Node9&#45;&gt;Node11</title>
<path fill="none" stroke="midnightblue" d="M511.47,-116.9C465.35,-110.83 389.37,-97.75 372.5,-76 362.36,-62.92 364.16,-43.5 367.56,-29.3"/>
<polygon fill="midnightblue" stroke="midnightblue" points="370.93,-30.21 370.29,-19.64 364.2,-28.31 370.93,-30.21"/>
</g>
<!-- Node12 -->
<g id="node12" class="node">
<title>Node12</title>
<g id="a_node12"><a xlink:title=" ">
<polygon fill="white" stroke="#bfbfbf" points="442.5,-0.5 442.5,-19.5 480.5,-19.5 480.5,-0.5 442.5,-0.5"/>
<text text-anchor="middle" x="461.5" y="-7.5" font-family="Helvetica,sans-Serif" font-size="10.00">map</text>
</a>
</g>
</g>
<!-- Node9&#45;&gt;Node12 -->
<g id="edge11" class="edge">
<title>Node9&#45;&gt;Node12</title>
<path fill="none" stroke="midnightblue" d="M540.75,-112.37C526.5,-94.14 493.11,-51.43 474.54,-27.68"/>
<polygon fill="midnightblue" stroke="midnightblue" points="477.13,-25.31 468.22,-19.59 471.62,-29.63 477.13,-25.31"/>
</g>
<!-- Node13 -->
<g id="node13" class="node">
<title>Node13</title>
<g id="a_node13"><a xlink:title=" ">
<polygon fill="white" stroke="#bfbfbf" points="525.5,-56.5 525.5,-75.5 569.5,-75.5 569.5,-56.5 525.5,-56.5"/>
<text text-anchor="middle" x="547.5" y="-63.5" font-family="Helvetica,sans-Serif" font-size="10.00">poll.h</text>
</a>
</g>
</g>
<!-- Node9&#45;&gt;Node13 -->
<g id="edge12" class="edge">
<title>Node9&#45;&gt;Node13</title>
<path fill="none" stroke="midnightblue" d="M547.5,-112.08C547.5,-105.01 547.5,-94.86 547.5,-85.99"/>
<polygon fill="midnightblue" stroke="midnightblue" points="551,-85.75 547.5,-75.75 544,-85.75 551,-85.75"/>
</g>
<!-- Node14 -->
<g id="node14" class="node">
<title>Node14</title>
<g id="a_node14"><a xlink:title=" ">
<polygon fill="white" stroke="#bfbfbf" points="587.5,-56.5 587.5,-75.5 643.5,-75.5 643.5,-56.5 587.5,-56.5"/>
<text text-anchor="middle" x="615.5" y="-63.5" font-family="Helvetica,sans-Serif" font-size="10.00">unistd.h</text>
</a>
</g>
</g>
<!-- Node9&#45;&gt;Node14 -->
<g id="edge13" class="edge">
<title>Node9&#45;&gt;Node14</title>
<path fill="none" stroke="midnightblue" d="M558.43,-112.32C568.67,-104.18 584.22,-91.84 596.5,-82.09"/>
<polygon fill="midnightblue" stroke="midnightblue" points="598.72,-84.79 604.38,-75.83 594.37,-79.31 598.72,-84.79"/>
</g>
<!-- Node9&#45;&gt;Node15 -->
<g id="edge14" class="edge">
<title>Node9&#45;&gt;Node15</title>
<path fill="none" stroke="midnightblue" d="M511.38,-113.41C469.86,-104.63 399.68,-89.63 339.5,-76 338.05,-75.67 336.58,-75.33 335.09,-74.99"/>
<polygon fill="midnightblue" stroke="midnightblue" points="335.73,-71.55 325.2,-72.69 334.15,-78.37 335.73,-71.55"/>
</g>
<!-- Node16 -->
<g id="node16" class="node">
<title>Node16</title>
<g id="a_node16"><a xlink:title=" ">
<polygon fill="white" stroke="#bfbfbf" points="662,-56.5 662,-75.5 715,-75.5 715,-56.5 662,-56.5"/>
<text text-anchor="middle" x="688.5" y="-63.5" font-family="Helvetica,sans-Serif" font-size="10.00">netdb.h</text>
</a>
</g>
</g>
<!-- Node9&#45;&gt;Node16 -->
<g id="edge15" class="edge">
<title>Node9&#45;&gt;Node16</title>
<path fill="none" stroke="midnightblue" d="M569.84,-112.44C593.25,-103.48 630.24,-89.31 656.69,-79.18"/>
<polygon fill="midnightblue" stroke="midnightblue" points="658.18,-82.36 666.26,-75.52 655.67,-75.82 658.18,-82.36"/>
</g>
<!-- Node17 -->
<g id="node17" class="node">
<title>Node17</title>
<g id="a_node17"><a xlink:title=" ">
<polygon fill="white" stroke="#bfbfbf" points="733.5,-56.5 733.5,-75.5 805.5,-75.5 805.5,-56.5 733.5,-56.5"/>
<text text-anchor="middle" x="769.5" y="-63.5" font-family="Helvetica,sans-Serif" font-size="10.00">netinet/in.h</text>
</a>
</g>
</g>
<!-- Node9&#45;&gt;Node17 -->
<g id="edge16" class="edge">
<title>Node9&#45;&gt;Node17</title>
<path fill="none" stroke="midnightblue" d="M582.68,-112.44C621.08,-103.1 682.68,-88.12 724.56,-77.93"/>
<polygon fill="midnightblue" stroke="midnightblue" points="725.6,-81.28 734.49,-75.52 723.94,-74.48 725.6,-81.28"/>
</g>
<!-- Node18 -->
<g id="node18" class="node">
<title>Node18</title>
<g id="a_node18"><a xlink:title=" ">
<polygon fill="white" stroke="#bfbfbf" points="824,-56.5 824,-75.5 901,-75.5 901,-56.5 824,-56.5"/>
<text text-anchor="middle" x="862.5" y="-63.5" font-family="Helvetica,sans-Serif" font-size="10.00">sys/socket.h</text>
</a>
</g>
</g>
<!-- Node9&#45;&gt;Node18 -->
<g id="edge17" class="edge">
<title>Node9&#45;&gt;Node18</title>
<path fill="none" stroke="midnightblue" d="M583.54,-114.45C588.23,-113.62 592.98,-112.78 597.5,-112 690.73,-95.88 716.58,-93.17 813.79,-76.09"/>
<polygon fill="midnightblue" stroke="midnightblue" points="814.5,-79.52 823.74,-74.34 813.28,-72.63 814.5,-79.52"/>
</g>
<!-- Node19 -->
<g id="node19" class="node">
<title>Node19</title>
<g id="a_node19"><a xlink:title=" ">
<polygon fill="white" stroke="#bfbfbf" points="919.5,-56.5 919.5,-75.5 991.5,-75.5 991.5,-56.5 919.5,-56.5"/>
<text text-anchor="middle" x="955.5" y="-63.5" font-family="Helvetica,sans-Serif" font-size="10.00">sys/types.h</text>
</a>
</g>
</g>
<!-- Node9&#45;&gt;Node19 -->
<g id="edge18" class="edge">
<title>Node9&#45;&gt;Node19</title>
<path fill="none" stroke="midnightblue" d="M583.51,-114.24C588.21,-113.44 592.96,-112.67 597.5,-112 732.79,-92.06 770.42,-97.48 909.04,-76.11"/>
<polygon fill="midnightblue" stroke="midnightblue" points="909.86,-79.53 919.2,-74.53 908.78,-72.61 909.86,-79.53"/>
</g>
<!-- Node20 -->
<g id="node20" class="node">
<title>Node20</title>
<g id="a_node20"><a xlink:href="Message_8hpp.html" target="_top" xlink:title=" ">
<polygon fill="white" stroke="black" points="382,-56.5 382,-75.5 469,-75.5 469,-56.5 382,-56.5"/>
<text text-anchor="middle" x="425.5" y="-63.5" font-family="Helvetica,sans-Serif" font-size="10.00">./Message.hpp</text>
</a>
</g>
</g>
<!-- Node9&#45;&gt;Node20 -->
<g id="edge19" class="edge">
<title>Node9&#45;&gt;Node20</title>
<path fill="none" stroke="midnightblue" d="M528.17,-112.44C508.18,-103.6 476.76,-89.69 453.94,-79.59"/>
<polygon fill="midnightblue" stroke="midnightblue" points="455.3,-76.36 444.74,-75.52 452.47,-82.76 455.3,-76.36"/>
</g>
<!-- Node9&#45;&gt;Node21 -->
<g id="edge24" class="edge">
<title>Node9&#45;&gt;Node21</title>
<path fill="none" stroke="midnightblue" d="M583.76,-114.05C588.37,-113.29 593.04,-112.58 597.5,-112 790.29,-86.75 840.67,-100.92 1033.5,-76 1034.95,-75.81 1036.42,-75.61 1037.9,-75.4"/>
<polygon fill="midnightblue" stroke="midnightblue" points="1038.43,-78.86 1047.79,-73.9 1037.38,-71.94 1038.43,-78.86"/>
</g>
<!-- Node20&#45;&gt;Node7 -->
<g id="edge23" class="edge">
<title>Node20&#45;&gt;Node7</title>
<path fill="none" stroke="midnightblue" d="M397.61,-56.44C365.99,-46.74 314.53,-30.95 281.35,-20.77"/>
<polygon fill="midnightblue" stroke="midnightblue" points="282.27,-17.39 271.68,-17.81 280.22,-24.09 282.27,-17.39"/>
</g>
<!-- Node20&#45;&gt;Node10 -->
<g id="edge20" class="edge">
<title>Node20&#45;&gt;Node10</title>
<path fill="none" stroke="midnightblue" d="M469.05,-58.54C541.95,-47.72 687.28,-26.16 754.24,-16.23"/>
<polygon fill="midnightblue" stroke="midnightblue" points="754.91,-19.67 764.29,-14.74 753.88,-12.75 754.91,-19.67"/>
</g>
<!-- Node20&#45;&gt;Node11 -->
<g id="edge21" class="edge">
<title>Node20&#45;&gt;Node11</title>
<path fill="none" stroke="midnightblue" d="M416.91,-56.08C409.34,-48.22 398.12,-36.57 388.99,-27.08"/>
<polygon fill="midnightblue" stroke="midnightblue" points="391.38,-24.53 381.93,-19.75 386.34,-29.38 391.38,-24.53"/>
</g>
<!-- Node20&#45;&gt;Node12 -->
<g id="edge22" class="edge">
<title>Node20&#45;&gt;Node12</title>
<path fill="none" stroke="midnightblue" d="M431.44,-56.08C436.48,-48.53 443.84,-37.49 450.01,-28.23"/>
<polygon fill="midnightblue" stroke="midnightblue" points="453.03,-30.01 455.67,-19.75 447.21,-26.13 453.03,-30.01"/>
</g>
<!-- Node24&#45;&gt;Node7 -->
<g id="edge31" class="edge">
<title>Node24&#45;&gt;Node7</title>
<path fill="none" stroke="midnightblue" d="M281.29,-112.42C277.94,-103.41 272.64,-88.78 268.5,-76 263.47,-60.44 258.29,-42.61 254.62,-29.56"/>
<polygon fill="midnightblue" stroke="midnightblue" points="257.98,-28.57 251.92,-19.88 251.24,-30.45 257.98,-28.57"/>
</g>
<!-- Node24&#45;&gt;Node15 -->
<g id="edge32" class="edge">
<title>Node24&#45;&gt;Node15</title>
<path fill="none" stroke="midnightblue" d="M287.31,-112.08C289.58,-104.85 292.87,-94.41 295.71,-85.4"/>
<polygon fill="midnightblue" stroke="midnightblue" points="299.08,-86.34 298.75,-75.75 292.4,-84.24 299.08,-86.34"/>
</g>
</g>
</svg>
