<?xml version="1.0" encoding="UTF-8" standalone="no"?>
<!DOCTYPE svg PUBLIC "-//W3C//DTD SVG 1.1//EN"
 "http://www.w3.org/Graphics/SVG/1.1/DTD/svg11.dtd">
<!-- Generated by graphviz version 2.43.0 (0)
 -->
<!-- Title: includes/Command.hpp Pages: 1 -->
<!--zoomable 140 -->
<svg id="main" version="1.1" xmlns="http://www.w3.org/2000/svg" xmlns:xlink="http://www.w3.org/1999/xlink" xml:space="preserve" onload="init(evt)">
<style type="text/css"><![CDATA[
.edge:hover path { stroke: red; }
.edge:hover polygon { stroke: red; fill: red; }
]]></style>
<script type="text/javascript"><![CDATA[
var edges = document.getElementsByTagName('g');
if (edges && edges.length) {
  for (var i=0;i<edges.length;i++) {
    if (edges[i].id.substr(0,4)=='edge') {
      edges[i].setAttribute('class','edge');
    }
  }
}
]]></script>
        <defs>
                <circle id="rim" cx="0" cy="0" r="7"/>
                <circle id="rim2" cx="0" cy="0" r="3.5"/>
                <g id="zoomPlus">
                        <use xlink:href="#rim" fill="#404040">
                                <set attributeName="fill" to="#808080" begin="zoomplus.mouseover" end="zoomplus.mouseout"/>
                        </use>
                        <path d="M-4,0h8M0,-4v8" fill="none" stroke="white" stroke-width="1.5" pointer-events="none"/>
                </g>
                <g id="zoomMin">
                        <use xlink:href="#rim" fill="#404040">
                                <set attributeName="fill" to="#808080" begin="zoomminus.mouseover" end="zoomminus.mouseout"/>
                        </use>
                        <path d="M-4,0h8" fill="none" stroke="white" stroke-width="1.5" pointer-events="none"/>
                </g>
                <g id="dirArrow">
                        <path fill="none" stroke="white" stroke-width="1.5" d="M0,-3.0v7 M-2.5,-0.5L0,-3.0L2.5,-0.5"/>
                </g>
               <g id="resetDef">
                       <use xlink:href="#rim2" fill="#404040">
                               <set attributeName="fill" to="#808080" begin="reset.mouseover" end="reset.mouseout"/>
                       </use>
               </g>
        </defs>

<script type="text/javascript">
var viewWidth = 4535;
var viewHeight = 140;
var sectionId = 'dynsection-1';
</script>
<script xlink:href="svgpan.js"/>
<svg id="graph" class="graph">
<g id="viewport">
<title>includes/Command.hpp</title>
<polygon fill="white" stroke="transparent" points="-4,4 -4,-136 4530.5,-136 4530.5,4 -4,4"/>
<!-- Node1 -->
<g id="node1" class="node">
<title>Node1</title>
<g id="a_node1"><a xlink:title=" ">
<polygon fill="#bfbfbf" stroke="black" points="2083.5,-112.5 2083.5,-131.5 2214.5,-131.5 2214.5,-112.5 2083.5,-112.5"/>
<text text-anchor="middle" x="2149" y="-119.5" font-family="Helvetica,sans-Serif" font-size="10.00">includes/Command.hpp</text>
</a>
</g>
</g>
<!-- Node2 -->
<g id="node2" class="node">
<title>Node2</title>
<g id="a_node2"><a xlink:href="Away_8hpp.html" target="_top" xlink:title=" ">
<polygon fill="white" stroke="black" points="0,-56.5 0,-75.5 136,-75.5 136,-56.5 0,-56.5"/>
<text text-anchor="middle" x="68" y="-63.5" font-family="Helvetica,sans-Serif" font-size="10.00">includes/cmds/Away.hpp</text>
</a>
</g>
</g>
<!-- Node1&#45;&gt;Node2 -->
<g id="edge1" class="edge">
<title>Node1&#45;&gt;Node2</title>
<path fill="none" stroke="midnightblue" d="M2073.38,-120.25C1756.05,-116.98 530.62,-102.81 145,-76 142.18,-75.8 139.31,-75.58 136.4,-75.33"/>
<polygon fill="midnightblue" stroke="midnightblue" points="2073.36,-123.75 2083.39,-120.36 2073.43,-116.75 2073.36,-123.75"/>
</g>
<!-- Node3 -->
<g id="node3" class="node">
<title>Node3</title>
<g id="a_node3"><a xlink:href="Close_8hpp.html" target="_top" xlink:title=" ">
<polygon fill="white" stroke="black" points="154.5,-56.5 154.5,-75.5 291.5,-75.5 291.5,-56.5 154.5,-56.5"/>
<text text-anchor="middle" x="223" y="-63.5" font-family="Helvetica,sans-Serif" font-size="10.00">includes/cmds/Close.hpp</text>
</a>
</g>
</g>
<!-- Node1&#45;&gt;Node3 -->
<g id="edge2" class="edge">
<title>Node1&#45;&gt;Node3</title>
<path fill="none" stroke="midnightblue" d="M2072.61,-120.08C1769.79,-116.29 653.16,-100.88 300,-76 297.31,-75.81 294.58,-75.6 291.82,-75.36"/>
<polygon fill="midnightblue" stroke="midnightblue" points="2072.99,-123.58 2083.03,-120.21 2073.08,-116.59 2072.99,-123.58"/>
</g>
<!-- Node4 -->
<g id="node4" class="node">
<title>Node4</title>
<g id="a_node4"><a xlink:href="cmds_2Exit_8hpp.html" target="_top" xlink:title=" ">
<polygon fill="white" stroke="black" points="309.5,-56.5 309.5,-75.5 438.5,-75.5 438.5,-56.5 309.5,-56.5"/>
<text text-anchor="middle" x="374" y="-63.5" font-family="Helvetica,sans-Serif" font-size="10.00">includes/cmds/Exit.hpp</text>
</a>
</g>
</g>
<!-- Node1&#45;&gt;Node4 -->
<g id="edge3" class="edge">
<title>Node1&#45;&gt;Node4</title>
<path fill="none" stroke="midnightblue" d="M2072.83,-121.59C1833.24,-122.91 1073.65,-122.8 447,-76 444.33,-75.8 441.6,-75.57 438.85,-75.32"/>
<polygon fill="midnightblue" stroke="midnightblue" points="2073.19,-125.09 2083.17,-121.54 2073.15,-118.09 2073.19,-125.09"/>
</g>
<!-- Node5 -->
<g id="node5" class="node">
<title>Node5</title>
<g id="a_node5"><a xlink:href="cmds_2Help_8hpp.html" target="_top" xlink:title=" ">
<polygon fill="white" stroke="black" points="456.5,-56.5 456.5,-75.5 589.5,-75.5 589.5,-56.5 456.5,-56.5"/>
<text text-anchor="middle" x="523" y="-63.5" font-family="Helvetica,sans-Serif" font-size="10.00">includes/cmds/Help.hpp</text>
</a>
</g>
</g>
<!-- Node1&#45;&gt;Node5 -->
<g id="edge4" class="edge">
<title>Node1&#45;&gt;Node5</title>
<path fill="none" stroke="midnightblue" d="M2073.12,-121.18C1847.98,-121.21 1164.2,-117.59 599,-76 595.95,-75.78 592.84,-75.52 589.7,-75.24"/>
<polygon fill="midnightblue" stroke="midnightblue" points="2073.17,-124.68 2083.17,-121.18 2073.17,-117.68 2073.17,-124.68"/>
</g>
<!-- Node6 -->
<g id="node6" class="node">
<title>Node6</title>
<g id="a_node6"><a xlink:href="Invite_8hpp.html" target="_top" xlink:title=" ">
<polygon fill="white" stroke="black" points="608,-56.5 608,-75.5 746,-75.5 746,-56.5 608,-56.5"/>
<text text-anchor="middle" x="677" y="-63.5" font-family="Helvetica,sans-Serif" font-size="10.00">includes/cmds/Invite.hpp</text>
</a>
</g>
</g>
<!-- Node1&#45;&gt;Node6 -->
<g id="edge5" class="edge">
<title>Node1&#45;&gt;Node6</title>
<path fill="none" stroke="midnightblue" d="M2072.92,-120.75C1862.83,-119.58 1256.96,-113 755,-76 752.15,-75.79 749.23,-75.55 746.29,-75.3"/>
<polygon fill="midnightblue" stroke="midnightblue" points="2073.2,-124.25 2083.22,-120.8 2073.24,-117.25 2073.2,-124.25"/>
</g>
<!-- Node7 -->
<g id="node7" class="node">
<title>Node7</title>
<g id="a_node7"><a xlink:href="Join_8hpp.html" target="_top" xlink:title=" ">
<polygon fill="white" stroke="black" points="764,-56.5 764,-75.5 892,-75.5 892,-56.5 764,-56.5"/>
<text text-anchor="middle" x="828" y="-63.5" font-family="Helvetica,sans-Serif" font-size="10.00">includes/cmds/Join.hpp</text>
</a>
</g>
</g>
<!-- Node1&#45;&gt;Node7 -->
<g id="edge6" class="edge">
<title>Node1&#45;&gt;Node7</title>
<path fill="none" stroke="midnightblue" d="M2073.12,-120.55C1878.23,-118.9 1344.23,-111.25 901,-76 898.07,-75.77 895.08,-75.5 892.06,-75.22"/>
<polygon fill="midnightblue" stroke="midnightblue" points="2073.23,-124.05 2083.26,-120.63 2073.29,-117.05 2073.23,-124.05"/>
</g>
<!-- Node9 -->
<g id="node9" class="node">
<title>Node9</title>
<g id="a_node9"><a xlink:href="Kick_8hpp.html" target="_top" xlink:title=" ">
<polygon fill="white" stroke="black" points="910.5,-56.5 910.5,-75.5 1041.5,-75.5 1041.5,-56.5 910.5,-56.5"/>
<text text-anchor="middle" x="976" y="-63.5" font-family="Helvetica,sans-Serif" font-size="10.00">includes/cmds/Kick.hpp</text>
</a>
</g>
</g>
<!-- Node1&#45;&gt;Node9 -->
<g id="edge8" class="edge">
<title>Node1&#45;&gt;Node9</title>
<path fill="none" stroke="midnightblue" d="M2073.23,-119.94C1894.81,-117 1434.36,-106.81 1051,-76 1047.99,-75.76 1044.92,-75.49 1041.82,-75.19"/>
<polygon fill="midnightblue" stroke="midnightblue" points="2073.24,-123.44 2083.3,-120.1 2073.36,-116.44 2073.24,-123.44"/>
</g>
<!-- Node10 -->
<g id="node10" class="node">
<title>Node10</title>
<g id="a_node10"><a xlink:href="List_8hpp.html" target="_top" xlink:title=" ">
<polygon fill="white" stroke="black" points="1060,-56.5 1060,-75.5 1188,-75.5 1188,-56.5 1060,-56.5"/>
<text text-anchor="middle" x="1124" y="-63.5" font-family="Helvetica,sans-Serif" font-size="10.00">includes/cmds/List.hpp</text>
</a>
</g>
</g>
<!-- Node1&#45;&gt;Node10 -->
<g id="edge9" class="edge">
<title>Node1&#45;&gt;Node10</title>
<path fill="none" stroke="midnightblue" d="M2073.08,-119.36C1911.62,-115.43 1522.27,-103.7 1197,-76 1194.07,-75.75 1191.08,-75.47 1188.07,-75.18"/>
<polygon fill="midnightblue" stroke="midnightblue" points="2073.31,-122.86 2083.39,-119.6 2073.47,-115.86 2073.31,-122.86"/>
</g>
<!-- Node11 -->
<g id="node11" class="node">
<title>Node11</title>
<g id="a_node11"><a xlink:href="Mode_8hpp.html" target="_top" xlink:title=" ">
<polygon fill="white" stroke="black" points="1206.5,-56.5 1206.5,-75.5 1343.5,-75.5 1343.5,-56.5 1206.5,-56.5"/>
<text text-anchor="middle" x="1275" y="-63.5" font-family="Helvetica,sans-Serif" font-size="10.00">includes/cmds/Mode.hpp</text>
</a>
</g>
</g>
<!-- Node1&#45;&gt;Node11 -->
<g id="edge11" class="edge">
<title>Node1&#45;&gt;Node11</title>
<path fill="none" stroke="midnightblue" d="M2073.07,-118.19C1931.36,-112.6 1617.04,-98.68 1353,-76 1350.01,-75.74 1346.96,-75.46 1343.88,-75.17"/>
<polygon fill="midnightblue" stroke="midnightblue" points="2073.26,-121.7 2083.39,-118.59 2073.53,-114.7 2073.26,-121.7"/>
</g>
<!-- Node12 -->
<g id="node12" class="node">
<title>Node12</title>
<g id="a_node12"><a xlink:href="Nick_8hpp.html" target="_top" xlink:title=" ">
<polygon fill="white" stroke="black" points="1362,-56.5 1362,-75.5 1494,-75.5 1494,-56.5 1362,-56.5"/>
<text text-anchor="middle" x="1428" y="-63.5" font-family="Helvetica,sans-Serif" font-size="10.00">includes/cmds/Nick.hpp</text>
</a>
</g>
</g>
<!-- Node1&#45;&gt;Node12 -->
<g id="edge12" class="edge">
<title>Node1&#45;&gt;Node12</title>
<path fill="none" stroke="midnightblue" d="M2073.1,-116.94C1952.27,-110.21 1708.82,-95.51 1503,-76 1500.13,-75.73 1497.2,-75.44 1494.23,-75.13"/>
<polygon fill="midnightblue" stroke="midnightblue" points="2073.17,-120.45 2083.35,-117.51 2073.56,-113.46 2073.17,-120.45"/>
</g>
<!-- Node13 -->
<g id="node13" class="node">
<title>Node13</title>
<g id="a_node13"><a xlink:href="Notice_8hpp.html" target="_top" xlink:title=" ">
<polygon fill="white" stroke="black" points="1512,-56.5 1512,-75.5 1654,-75.5 1654,-56.5 1512,-56.5"/>
<text text-anchor="middle" x="1583" y="-63.5" font-family="Helvetica,sans-Serif" font-size="10.00">includes/cmds/Notice.hpp</text>
</a>
</g>
</g>
<!-- Node1&#45;&gt;Node13 -->
<g id="edge13" class="edge">
<title>Node1&#45;&gt;Node13</title>
<path fill="none" stroke="midnightblue" d="M2073.16,-114.44C1977.5,-106.07 1807.97,-90.86 1663,-76 1660.08,-75.7 1657.1,-75.39 1654.09,-75.07"/>
<polygon fill="midnightblue" stroke="midnightblue" points="2073.06,-117.95 2083.32,-115.33 2073.66,-110.97 2073.06,-117.95"/>
</g>
<!-- Node14 -->
<g id="node14" class="node">
<title>Node14</title>
<g id="a_node14"><a xlink:href="OpenHost_8hpp.html" target="_top" xlink:title=" ">
<polygon fill="white" stroke="black" points="1672,-56.5 1672,-75.5 1830,-75.5 1830,-56.5 1672,-56.5"/>
<text text-anchor="middle" x="1751" y="-63.5" font-family="Helvetica,sans-Serif" font-size="10.00">includes/cmds/OpenHost.hpp</text>
</a>
</g>
</g>
<!-- Node1&#45;&gt;Node14 -->
<g id="edge14" class="edge">
<title>Node1&#45;&gt;Node14</title>
<path fill="none" stroke="midnightblue" d="M2075.61,-111.04C2000.44,-100.84 1884.82,-85.16 1813.77,-75.52"/>
<polygon fill="midnightblue" stroke="midnightblue" points="2075.56,-114.57 2085.94,-112.44 2076.5,-107.63 2075.56,-114.57"/>
</g>
<!-- Node15 -->
<g id="node15" class="node">
<title>Node15</title>
<g id="a_node15"><a xlink:href="Part_8hpp.html" target="_top" xlink:title=" ">
<polygon fill="white" stroke="black" points="1848.5,-56.5 1848.5,-75.5 1977.5,-75.5 1977.5,-56.5 1848.5,-56.5"/>
<text text-anchor="middle" x="1913" y="-63.5" font-family="Helvetica,sans-Serif" font-size="10.00">includes/cmds/Part.hpp</text>
</a>
</g>
</g>
<!-- Node1&#45;&gt;Node15 -->
<g id="edge15" class="edge">
<title>Node1&#45;&gt;Node15</title>
<path fill="none" stroke="midnightblue" d="M2101.59,-110.15C2057,-99.95 1991.15,-84.88 1950.22,-75.52"/>
<polygon fill="midnightblue" stroke="midnightblue" points="2101.08,-113.62 2111.61,-112.44 2102.64,-106.8 2101.08,-113.62"/>
</g>
<!-- Node16 -->
<g id="node16" class="node">
<title>Node16</title>
<g id="a_node16"><a xlink:href="cmds_2PrivMsg_8hpp.html" target="_top" xlink:title=" ">
<polygon fill="white" stroke="black" points="1995.5,-56.5 1995.5,-75.5 2144.5,-75.5 2144.5,-56.5 1995.5,-56.5"/>
<text text-anchor="middle" x="2070" y="-63.5" font-family="Helvetica,sans-Serif" font-size="10.00">includes/cmds/PrivMsg.hpp</text>
</a>
</g>
</g>
<!-- Node1&#45;&gt;Node16 -->
<g id="edge16" class="edge">
<title>Node1&#45;&gt;Node16</title>
<path fill="none" stroke="midnightblue" d="M2127.97,-106.62C2113.53,-96.76 2094.86,-83.99 2082.66,-75.65"/>
<polygon fill="midnightblue" stroke="midnightblue" points="2126.08,-109.57 2136.31,-112.32 2130.03,-103.79 2126.08,-109.57"/>
</g>
<!-- Node17 -->
<g id="node17" class="node">
<title>Node17</title>
<g id="a_node17"><a xlink:href="Quit_8hpp.html" target="_top" xlink:title=" ">
<polygon fill="white" stroke="black" points="2162.5,-56.5 2162.5,-75.5 2293.5,-75.5 2293.5,-56.5 2162.5,-56.5"/>
<text text-anchor="middle" x="2228" y="-63.5" font-family="Helvetica,sans-Serif" font-size="10.00">includes/cmds/Quit.hpp</text>
</a>
</g>
</g>
<!-- Node1&#45;&gt;Node17 -->
<g id="edge18" class="edge">
<title>Node1&#45;&gt;Node17</title>
<path fill="none" stroke="midnightblue" d="M2170.03,-106.62C2184.47,-96.76 2203.14,-83.99 2215.34,-75.65"/>
<polygon fill="midnightblue" stroke="midnightblue" points="2167.97,-103.79 2161.69,-112.32 2171.92,-109.57 2167.97,-103.79"/>
</g>
<!-- Node18 -->
<g id="node18" class="node">
<title>Node18</title>
<g id="a_node18"><a xlink:href="Status_8hpp.html" target="_top" xlink:title=" ">
<polygon fill="white" stroke="black" points="2311.5,-56.5 2311.5,-75.5 2452.5,-75.5 2452.5,-56.5 2311.5,-56.5"/>
<text text-anchor="middle" x="2382" y="-63.5" font-family="Helvetica,sans-Serif" font-size="10.00">includes/cmds/Status.hpp</text>
</a>
</g>
</g>
<!-- Node1&#45;&gt;Node18 -->
<g id="edge19" class="edge">
<title>Node1&#45;&gt;Node18</title>
<path fill="none" stroke="midnightblue" d="M2195.8,-110.15C2239.83,-99.95 2304.85,-84.88 2345.25,-75.52"/>
<polygon fill="midnightblue" stroke="midnightblue" points="2194.87,-106.78 2185.92,-112.44 2196.45,-113.6 2194.87,-106.78"/>
</g>
<!-- Node19 -->
<g id="node19" class="node">
<title>Node19</title>
<g id="a_node19"><a xlink:href="User_8hpp.html" target="_top" xlink:title=" ">
<polygon fill="white" stroke="black" points="2471,-56.5 2471,-75.5 2603,-75.5 2603,-56.5 2471,-56.5"/>
<text text-anchor="middle" x="2537" y="-63.5" font-family="Helvetica,sans-Serif" font-size="10.00">includes/cmds/User.hpp</text>
</a>
</g>
</g>
<!-- Node1&#45;&gt;Node19 -->
<g id="edge20" class="edge">
<title>Node1&#45;&gt;Node19</title>
<path fill="none" stroke="midnightblue" d="M2220.55,-111.04C2293.83,-100.84 2406.54,-85.16 2475.81,-75.52"/>
<polygon fill="midnightblue" stroke="midnightblue" points="2219.9,-107.6 2210.48,-112.44 2220.87,-114.53 2219.9,-107.6"/>
</g>
<!-- Node20 -->
<g id="node20" class="node">
<title>Node20</title>
<g id="a_node20"><a xlink:href="Who_8hpp.html" target="_top" xlink:title=" ">
<polygon fill="white" stroke="black" points="2621,-56.5 2621,-75.5 2753,-75.5 2753,-56.5 2621,-56.5"/>
<text text-anchor="middle" x="2687" y="-63.5" font-family="Helvetica,sans-Serif" font-size="10.00">includes/cmds/Who.hpp</text>
</a>
</g>
</g>
<!-- Node1&#45;&gt;Node20 -->
<g id="edge21" class="edge">
<title>Node1&#45;&gt;Node20</title>
<path fill="none" stroke="midnightblue" d="M2224.63,-114.18C2316.34,-105.78 2475.6,-90.81 2612,-76 2614.87,-75.69 2617.8,-75.36 2620.76,-75.03"/>
<polygon fill="midnightblue" stroke="midnightblue" points="2224.24,-110.7 2214.6,-115.09 2224.88,-117.67 2224.24,-110.7"/>
</g>
<!-- Node21 -->
<g id="node21" class="node">
<title>Node21</title>
<g id="a_node21"><a xlink:href="Whois_8hpp.html" target="_top" xlink:title=" ">
<polygon fill="white" stroke="black" points="2771,-56.5 2771,-75.5 2911,-75.5 2911,-56.5 2771,-56.5"/>
<text text-anchor="middle" x="2841" y="-63.5" font-family="Helvetica,sans-Serif" font-size="10.00">includes/cmds/Whois.hpp</text>
</a>
</g>
</g>
<!-- Node1&#45;&gt;Node21 -->
<g id="edge22" class="edge">
<title>Node1&#45;&gt;Node21</title>
<path fill="none" stroke="midnightblue" d="M2225.03,-116.4C2340.97,-109.17 2568.88,-94.08 2762,-76 2764.89,-75.73 2767.83,-75.44 2770.8,-75.15"/>
<polygon fill="midnightblue" stroke="midnightblue" points="2224.6,-112.92 2214.84,-117.04 2225.04,-119.91 2224.6,-112.92"/>
</g>
<!-- Node22 -->
<g id="node22" class="node">
<title>Node22</title>
<g id="a_node22"><a xlink:href="Ban_8hpp.html" target="_top" xlink:title=" ">
<polygon fill="white" stroke="black" points="2929.5,-56.5 2929.5,-75.5 3086.5,-75.5 3086.5,-56.5 2929.5,-56.5"/>
<text text-anchor="middle" x="3008" y="-63.5" font-family="Helvetica,sans-Serif" font-size="10.00">includes/commands/Ban.hpp</text>
</a>
</g>
</g>
<!-- Node1&#45;&gt;Node22 -->
<g id="edge23" class="edge">
<title>Node1&#45;&gt;Node22</title>
<path fill="none" stroke="midnightblue" d="M2224.62,-117.68C2362.83,-111.38 2665.42,-96.44 2920,-76 2923.06,-75.75 2926.18,-75.49 2929.33,-75.22"/>
<polygon fill="midnightblue" stroke="midnightblue" points="2224.39,-114.19 2214.56,-118.14 2224.71,-121.18 2224.39,-114.19"/>
</g>
<!-- Node23 -->
<g id="node23" class="node">
<title>Node23</title>
<g id="a_node23"><a xlink:href="Echo_8hpp.html" target="_top" xlink:title=" ">
<polygon fill="white" stroke="black" points="3104.5,-56.5 3104.5,-75.5 3265.5,-75.5 3265.5,-56.5 3104.5,-56.5"/>
<text text-anchor="middle" x="3185" y="-63.5" font-family="Helvetica,sans-Serif" font-size="10.00">includes/commands/Echo.hpp</text>
</a>
</g>
</g>
<!-- Node1&#45;&gt;Node23 -->
<g id="edge25" class="edge">
<title>Node1&#45;&gt;Node23</title>
<path fill="none" stroke="midnightblue" d="M2224.77,-118.77C2385.49,-113.74 2772.36,-100.04 3096,-76 3098.79,-75.79 3101.62,-75.57 3104.49,-75.34"/>
<polygon fill="midnightblue" stroke="midnightblue" points="2224.4,-115.28 2214.52,-119.09 2224.62,-122.28 2224.4,-115.28"/>
</g>
<!-- Node24 -->
<g id="node24" class="node">
<title>Node24</title>
<g id="a_node24"><a xlink:href="commands_2Exit_8hpp.html" target="_top" xlink:title=" ">
<polygon fill="white" stroke="black" points="3283.5,-56.5 3283.5,-75.5 3440.5,-75.5 3440.5,-56.5 3283.5,-56.5"/>
<text text-anchor="middle" x="3362" y="-63.5" font-family="Helvetica,sans-Serif" font-size="10.00">includes/commands/Exit.hpp</text>
</a>
</g>
</g>
<!-- Node1&#45;&gt;Node24 -->
<g id="edge27" class="edge">
<title>Node1&#45;&gt;Node24</title>
<path fill="none" stroke="midnightblue" d="M2225.01,-119.62C2406.7,-115.95 2880.42,-104.27 3275,-76 3277.73,-75.8 3280.5,-75.59 3283.3,-75.37"/>
<polygon fill="midnightblue" stroke="midnightblue" points="2224.69,-116.12 2214.76,-119.82 2224.83,-123.12 2224.69,-116.12"/>
</g>
<!-- Node25 -->
<g id="node25" class="node">
<title>Node25</title>
<g id="a_node25"><a xlink:href="commands_2Help_8hpp.html" target="_top" xlink:title=" ">
<polygon fill="white" stroke="black" points="3458.5,-56.5 3458.5,-75.5 3619.5,-75.5 3619.5,-56.5 3458.5,-56.5"/>
<text text-anchor="middle" x="3539" y="-63.5" font-family="Helvetica,sans-Serif" font-size="10.00">includes/commands/Help.hpp</text>
</a>
</g>
</g>
<!-- Node1&#45;&gt;Node25 -->
<g id="edge29" class="edge">
<title>Node1&#45;&gt;Node25</title>
<path fill="none" stroke="midnightblue" d="M2224.86,-120.13C2425.23,-117.45 2985.13,-107.51 3450,-76 3452.79,-75.81 3455.63,-75.6 3458.49,-75.38"/>
<polygon fill="midnightblue" stroke="midnightblue" points="2224.69,-116.63 2214.74,-120.26 2224.78,-123.63 2224.69,-116.63"/>
</g>
<!-- Node26 -->
<g id="node26" class="node">
<title>Node26</title>
<g id="a_node26"><a xlink:href="Info_8hpp.html" target="_top" xlink:title=" ">
<polygon fill="white" stroke="black" points="3637.5,-56.5 3637.5,-75.5 3794.5,-75.5 3794.5,-56.5 3637.5,-56.5"/>
<text text-anchor="middle" x="3716" y="-63.5" font-family="Helvetica,sans-Serif" font-size="10.00">includes/commands/Info.hpp</text>
</a>
</g>
</g>
<!-- Node1&#45;&gt;Node26 -->
<g id="edge31" class="edge">
<title>Node1&#45;&gt;Node26</title>
<path fill="none" stroke="midnightblue" d="M2224.8,-120.64C2443.08,-119.18 3091.84,-111.9 3629,-76 3631.73,-75.82 3634.5,-75.62 3637.3,-75.4"/>
<polygon fill="midnightblue" stroke="midnightblue" points="2224.71,-117.14 2214.73,-120.7 2224.75,-124.14 2224.71,-117.14"/>
</g>
<!-- Node27 -->
<g id="node27" class="node">
<title>Node27</title>
<g id="a_node27"><a xlink:href="Name_8hpp.html" target="_top" xlink:title=" ">
<polygon fill="white" stroke="black" points="3812.5,-56.5 3812.5,-75.5 3979.5,-75.5 3979.5,-56.5 3812.5,-56.5"/>
<text text-anchor="middle" x="3896" y="-63.5" font-family="Helvetica,sans-Serif" font-size="10.00">includes/commands/Name.hpp</text>
</a>
</g>
</g>
<!-- Node1&#45;&gt;Node27 -->
<g id="edge33" class="edge">
<title>Node1&#45;&gt;Node27</title>
<path fill="none" stroke="midnightblue" d="M2224.64,-120.84C2459.28,-119.92 3195.55,-113.99 3804,-76 3806.72,-75.83 3809.49,-75.64 3812.28,-75.44"/>
<polygon fill="midnightblue" stroke="midnightblue" points="2224.5,-117.34 2214.52,-120.87 2224.53,-124.34 2224.5,-117.34"/>
</g>
<!-- Node28 -->
<g id="node28" class="node">
<title>Node28</title>
<g id="a_node28"><a xlink:href="Ope_8hpp.html" target="_top" xlink:title=" ">
<polygon fill="white" stroke="black" points="3997,-56.5 3997,-75.5 4155,-75.5 4155,-56.5 3997,-56.5"/>
<text text-anchor="middle" x="4076" y="-63.5" font-family="Helvetica,sans-Serif" font-size="10.00">includes/commands/Ope.hpp</text>
</a>
</g>
</g>
<!-- Node1&#45;&gt;Node28 -->
<g id="edge35" class="edge">
<title>Node1&#45;&gt;Node28</title>
<path fill="none" stroke="midnightblue" d="M2224.8,-121.28C2476.19,-121.75 3305.29,-119.66 3989,-76 3991.58,-75.84 3994.19,-75.65 3996.84,-75.46"/>
<polygon fill="midnightblue" stroke="midnightblue" points="2224.69,-117.78 2214.68,-121.26 2224.67,-124.78 2224.69,-117.78"/>
</g>
<!-- Node29 -->
<g id="node29" class="node">
<title>Node29</title>
<g id="a_node29"><a xlink:href="commands_2Ping_8hpp.html" target="_top" xlink:title=" ">
<polygon fill="white" stroke="black" points="4172.5,-56.5 4172.5,-75.5 4331.5,-75.5 4331.5,-56.5 4172.5,-56.5"/>
<text text-anchor="middle" x="4252" y="-63.5" font-family="Helvetica,sans-Serif" font-size="10.00">includes/commands/Ping.hpp</text>
</a>
</g>
</g>
<!-- Node1&#45;&gt;Node29 -->
<g id="edge37" class="edge">
<title>Node1&#45;&gt;Node29</title>
<path fill="none" stroke="midnightblue" d="M2225.08,-121.48C2491.75,-122.7 3408.82,-122.97 4164,-76 4166.76,-75.83 4169.57,-75.64 4172.4,-75.43"/>
<polygon fill="midnightblue" stroke="midnightblue" points="2224.76,-117.98 2214.75,-121.43 2224.73,-124.98 2224.76,-117.98"/>
</g>
<!-- Node30 -->
<g id="node30" class="node">
<title>Node30</title>
<g id="a_node30"><a xlink:href="commands_2PrivMsg_8hpp.html" target="_top" xlink:title=" ">
<polygon fill="white" stroke="black" points="4349.5,-56.5 4349.5,-75.5 4526.5,-75.5 4526.5,-56.5 4349.5,-56.5"/>
<text text-anchor="middle" x="4438" y="-63.5" font-family="Helvetica,sans-Serif" font-size="10.00">includes/commands/PrivMsg.hpp</text>
</a>
</g>
</g>
<!-- Node1&#45;&gt;Node30 -->
<g id="edge39" class="edge">
<title>Node1&#45;&gt;Node30</title>
<path fill="none" stroke="midnightblue" d="M2224.58,-121.42C2504.99,-122.55 3512.33,-122.89 4341,-76 4343.79,-75.84 4346.62,-75.67 4349.47,-75.48"/>
<polygon fill="midnightblue" stroke="midnightblue" points="2224.53,-117.92 2214.52,-121.38 2224.5,-124.92 2224.53,-117.92"/>
</g>
<!-- Node8 -->
<g id="node8" class="node">
<title>Node8</title>
<g id="a_node8"><a xlink:href="server_8cpp.html" target="_top" xlink:title=" ">
<polygon fill="white" stroke="black" points="3317.5,-0.5 3317.5,-19.5 3406.5,-19.5 3406.5,-0.5 3317.5,-0.5"/>
<text text-anchor="middle" x="3362" y="-7.5" font-family="Helvetica,sans-Serif" font-size="10.00">srcs/server.cpp</text>
</a>
</g>
</g>
<!-- Node7&#45;&gt;Node8 -->
<g id="edge7" class="edge">
<title>Node7&#45;&gt;Node8</title>
<path fill="none" stroke="midnightblue" d="M902.19,-56.02C1418.48,-20.87 3027.31,-12.43 3317.06,-11.18"/>
<polygon fill="midnightblue" stroke="midnightblue" points="901.79,-52.53 892.06,-56.72 902.28,-59.52 901.79,-52.53"/>
</g>
<!-- Node10&#45;&gt;Node8 -->
<g id="edge10" class="edge">
<title>Node10&#45;&gt;Node8</title>
<path fill="none" stroke="midnightblue" d="M1198.27,-56.01C1651.95,-24.67 3049.49,-13.24 3317.36,-11.31"/>
<polygon fill="midnightblue" stroke="midnightblue" points="1197.79,-52.53 1188.06,-56.73 1198.28,-59.52 1197.79,-52.53"/>
</g>
<!-- Node16&#45;&gt;Node8 -->
<g id="edge17" class="edge">
<title>Node16&#45;&gt;Node8</title>
<path fill="none" stroke="midnightblue" d="M2154.81,-55.92C2615.13,-22.84 3160.09,-13.6 3317.48,-11.52"/>
<polygon fill="midnightblue" stroke="midnightblue" points="2154.36,-52.44 2144.63,-56.66 2154.86,-59.42 2154.36,-52.44"/>
</g>
<!-- Node22&#45;&gt;Node8 -->
<g id="edge24" class="edge">
<title>Node22&#45;&gt;Node8</title>
<path fill="none" stroke="midnightblue" d="M3074.27,-54.89C3145.29,-44.06 3256.06,-27.16 3317.38,-17.81"/>
<polygon fill="midnightblue" stroke="midnightblue" points="3073.45,-51.48 3064.09,-56.44 3074.51,-58.4 3073.45,-51.48"/>
</g>
<!-- Node23&#45;&gt;Node8 -->
<g id="edge26" class="edge">
<title>Node23&#45;&gt;Node8</title>
<path fill="none" stroke="midnightblue" d="M3222.9,-53.44C3256.28,-43.26 3304.1,-28.66 3334.09,-19.52"/>
<polygon fill="midnightblue" stroke="midnightblue" points="3221.59,-50.18 3213.05,-56.44 3223.63,-56.87 3221.59,-50.18"/>
</g>
<!-- Node24&#45;&gt;Node8 -->
<g id="edge28" class="edge">
<title>Node24&#45;&gt;Node8</title>
<path fill="none" stroke="midnightblue" d="M3362,-45.8C3362,-36.91 3362,-26.78 3362,-19.75"/>
<polygon fill="midnightblue" stroke="midnightblue" points="3358.5,-46.08 3362,-56.08 3365.5,-46.08 3358.5,-46.08"/>
</g>
<!-- Node25&#45;&gt;Node8 -->
<g id="edge30" class="edge">
<title>Node25&#45;&gt;Node8</title>
<path fill="none" stroke="midnightblue" d="M3501.1,-53.44C3467.72,-43.26 3419.9,-28.66 3389.91,-19.52"/>
<polygon fill="midnightblue" stroke="midnightblue" points="3500.37,-56.87 3510.95,-56.44 3502.41,-50.18 3500.37,-56.87"/>
</g>
<!-- Node26&#45;&gt;Node8 -->
<g id="edge32" class="edge">
<title>Node26&#45;&gt;Node8</title>
<path fill="none" stroke="midnightblue" d="M3649.73,-54.89C3578.71,-44.06 3467.94,-27.16 3406.62,-17.81"/>
<polygon fill="midnightblue" stroke="midnightblue" points="3649.49,-58.4 3659.91,-56.44 3650.55,-51.48 3649.49,-58.4"/>
</g>
<!-- Node27&#45;&gt;Node8 -->
<g id="edge34" class="edge">
<title>Node27&#45;&gt;Node8</title>
<path fill="none" stroke="midnightblue" d="M3801.98,-55.49C3685.93,-43.76 3493.33,-24.28 3406.67,-15.52"/>
<polygon fill="midnightblue" stroke="midnightblue" points="3801.97,-59.01 3812.27,-56.53 3802.67,-52.04 3801.97,-59.01"/>
</g>
<!-- Node28&#45;&gt;Node8 -->
<g id="edge36" class="edge">
<title>Node28&#45;&gt;Node8</title>
<path fill="none" stroke="midnightblue" d="M3986.53,-55.8C3762.87,-36.38 3507.67,-19.98 3406.51,-13.71"/>
<polygon fill="midnightblue" stroke="midnightblue" points="3986.56,-59.32 3996.82,-56.7 3987.17,-52.35 3986.56,-59.32"/>
</g>
<!-- Node29&#45;&gt;Node8 -->
<g id="edge38" class="edge">
<title>Node29&#45;&gt;Node8</title>
<path fill="none" stroke="midnightblue" d="M4162.38,-55.9C3868.11,-32.85 3527.26,-17.77 3406.83,-12.79"/>
<polygon fill="midnightblue" stroke="midnightblue" points="4162.15,-59.4 4172.39,-56.69 4162.7,-52.42 4162.15,-59.4"/>
</g>
</g>
</svg>
        <g id="navigator" transform="translate(0 0)" fill="#404254">
                <rect fill="#f2f5e9" fill-opacity="0.5" stroke="#606060" stroke-width=".5" x="0" y="0" width="60" height="60"/>
                <use id="zoomplus" xlink:href="#zoomPlus" x="17" y="9" onmousedown="handleZoom(evt,'in')"/>
                <use id="zoomminus" xlink:href="#zoomMin" x="42" y="9" onmousedown="handleZoom(evt,'out')"/>
                <use id="reset" xlink:href="#resetDef" x="30" y="36" onmousedown="handleReset()"/>
                <g id="arrowUp" xlink:href="#dirArrow" transform="translate(30 24)" onmousedown="handlePan(0,-1)">
                  <use xlink:href="#rim" fill="#404040">
                        <set attributeName="fill" to="#808080" begin="arrowUp.mouseover" end="arrowUp.mouseout"/>
                  </use>
                  <path fill="none" stroke="white" stroke-width="1.5" d="M0,-3.0v7 M-2.5,-0.5L0,-3.0L2.5,-0.5"/>
                </g>
                <g id="arrowRight" xlink:href="#dirArrow" transform="rotate(90) translate(36 -43)" onmousedown="handlePan(1,0)">
                  <use xlink:href="#rim" fill="#404040">
                        <set attributeName="fill" to="#808080" begin="arrowRight.mouseover" end="arrowRight.mouseout"/>
                  </use>
                  <path fill="none" stroke="white" stroke-width="1.5" d="M0,-3.0v7 M-2.5,-0.5L0,-3.0L2.5,-0.5"/>
                </g>
                <g id="arrowDown" xlink:href="#dirArrow" transform="rotate(180) translate(-30 -48)" onmousedown="handlePan(0,1)">
                  <use xlink:href="#rim" fill="#404040">
                        <set attributeName="fill" to="#808080" begin="arrowDown.mouseover" end="arrowDown.mouseout"/>
                  </use>
                  <path fill="none" stroke="white" stroke-width="1.5" d="M0,-3.0v7 M-2.5,-0.5L0,-3.0L2.5,-0.5"/>
                </g>
                <g id="arrowLeft" xlink:href="#dirArrow" transform="rotate(270) translate(-36 17)" onmousedown="handlePan(-1,0)">
                  <use xlink:href="#rim" fill="#404040">
                        <set attributeName="fill" to="#808080" begin="arrowLeft.mouseover" end="arrowLeft.mouseout"/>
                  </use>
                  <path fill="none" stroke="white" stroke-width="1.5" d="M0,-3.0v7 M-2.5,-0.5L0,-3.0L2.5,-0.5"/>
                </g>
        </g>
        <svg viewBox="0 0 15 15" width="100%" height="30px" preserveAspectRatio="xMaxYMin meet">
         <g id="arrow_out" transform="scale(0.3 0.3)">
          <a xlink:href="Command_8hpp__dep__incl_org.svg" target="_base">
           <rect id="button" ry="5" rx="5" y="6" x="6" height="38" width="38"
                fill="#f2f5e9" fill-opacity="0.5" stroke="#606060" stroke-width="1.0"/>
           <path id="arrow"
             d="M 11.500037,31.436501 C 11.940474,20.09759 22.043105,11.32322 32.158766,21.979434 L 37.068811,17.246167 C 37.068811,17.246167 37.088388,32 37.088388,32 L 22.160133,31.978069 C 22.160133,31.978069 26.997745,27.140456 26.997745,27.140456 C 18.528582,18.264221 13.291696,25.230495 11.500037,31.436501 z"
             style="fill:#404040;"/>
          </a>
         </g>
        </svg>
</svg>
