<?xml version="1.0" encoding="UTF-8" standalone="no"?>
<!DOCTYPE svg PUBLIC "-//W3C//DTD SVG 1.1//EN"
 "http://www.w3.org/Graphics/SVG/1.1/DTD/svg11.dtd">
<!-- Generated by graphviz version 2.43.0 (0)
 -->
<!-- Title: split Pages: 1 -->
<svg width="183pt" height="180pt"
 viewBox="0.00 0.00 183.00 180.00" xmlns="http://www.w3.org/2000/svg" xmlns:xlink="http://www.w3.org/1999/xlink">
<g id="graph0" class="graph" transform="scale(1 1) rotate(0) translate(4 176)">
<title>split</title>
<polygon fill="white" stroke="transparent" points="-4,4 -4,-176 179,-176 179,4 -4,4"/>
<!-- Node1 -->
<g id="node1" class="node">
<title>Node1</title>
<g id="a_node1"><a xlink:title=" ">
<polygon fill="#bfbfbf" stroke="black" points="137,-76.5 137,-95.5 175,-95.5 175,-76.5 137,-76.5"/>
<text text-anchor="middle" x="156" y="-83.5" font-family="Helvetica,sans-Serif" font-size="10.00">split</text>
</a>
</g>
</g>
<!-- Node2 -->
<g id="node2" class="node">
<title>Node2</title>
<g id="a_node2"><a xlink:href="classList.html#aff51763e0db147807a8ba7d3f15e1559" target="_top" xlink:title=" ">
<polygon fill="white" stroke="black" points="11.5,-152.5 11.5,-171.5 89.5,-171.5 89.5,-152.5 11.5,-152.5"/>
<text text-anchor="middle" x="50.5" y="-159.5" font-family="Helvetica,sans-Serif" font-size="10.00">List::execute</text>
</a>
</g>
</g>
<!-- Node1&#45;&gt;Node2 -->
<g id="edge1" class="edge">
<title>Node1&#45;&gt;Node2</title>
<path fill="none" stroke="midnightblue" d="M141.56,-103.96C131.53,-116.33 116.87,-132.39 101,-143 95.41,-146.74 88.99,-149.89 82.66,-152.48"/>
<polygon fill="midnightblue" stroke="midnightblue" points="144.59,-105.77 148,-95.74 139.08,-101.46 144.59,-105.77"/>
</g>
<!-- Node3 -->
<g id="node3" class="node">
<title>Node3</title>
<g id="a_node3"><a xlink:href="classJoin.html#a77631ed35ab8829cd152d82db3b51578" target="_top" xlink:title=" ">
<polygon fill="white" stroke="black" points="11,-114.5 11,-133.5 90,-133.5 90,-114.5 11,-114.5"/>
<text text-anchor="middle" x="50.5" y="-121.5" font-family="Helvetica,sans-Serif" font-size="10.00">Join::execute</text>
</a>
</g>
</g>
<!-- Node1&#45;&gt;Node3 -->
<g id="edge2" class="edge">
<title>Node1&#45;&gt;Node3</title>
<path fill="none" stroke="midnightblue" d="M127.41,-96.13C111.91,-101.82 92.69,-108.88 77.47,-114.47"/>
<polygon fill="midnightblue" stroke="midnightblue" points="128.79,-99.35 136.97,-92.62 126.38,-92.78 128.79,-99.35"/>
</g>
<!-- Node4 -->
<g id="node4" class="node">
<title>Node4</title>
<g id="a_node4"><a xlink:href="classPrivMsg.html#adce8dbb65a1d11bc5b46e2ad77333404" target="_top" xlink:title=" ">
<polygon fill="white" stroke="black" points="0.5,-76.5 0.5,-95.5 100.5,-95.5 100.5,-76.5 0.5,-76.5"/>
<text text-anchor="middle" x="50.5" y="-83.5" font-family="Helvetica,sans-Serif" font-size="10.00">PrivMsg::execute</text>
</a>
</g>
</g>
<!-- Node1&#45;&gt;Node4 -->
<g id="edge3" class="edge">
<title>Node1&#45;&gt;Node4</title>
<path fill="none" stroke="midnightblue" d="M126.74,-86C118.73,-86 109.76,-86 100.89,-86"/>
<polygon fill="midnightblue" stroke="midnightblue" points="126.97,-89.5 136.97,-86 126.97,-82.5 126.97,-89.5"/>
</g>
<!-- Node5 -->
<g id="node5" class="node">
<title>Node5</title>
<g id="a_node5"><a xlink:href="classJoin.html#a207289889718fa33c1a6892241aa60d4" target="_top" xlink:title=" ">
<polygon fill="white" stroke="black" points="10.5,-38.5 10.5,-57.5 90.5,-57.5 90.5,-38.5 10.5,-38.5"/>
<text text-anchor="middle" x="50.5" y="-45.5" font-family="Helvetica,sans-Serif" font-size="10.00">Join::validate</text>
</a>
</g>
</g>
<!-- Node1&#45;&gt;Node5 -->
<g id="edge4" class="edge">
<title>Node1&#45;&gt;Node5</title>
<path fill="none" stroke="midnightblue" d="M127.41,-75.87C111.91,-70.18 92.69,-63.12 77.47,-57.53"/>
<polygon fill="midnightblue" stroke="midnightblue" points="126.38,-79.22 136.97,-79.38 128.79,-72.65 126.38,-79.22"/>
</g>
<!-- Node6 -->
<g id="node6" class="node">
<title>Node6</title>
<g id="a_node6"><a xlink:href="classPrivMsg.html#a5c569ecdef5c59b9aee0e6ee1156ffd5" target="_top" xlink:title=" ">
<polygon fill="white" stroke="black" points="0,-0.5 0,-19.5 101,-19.5 101,-0.5 0,-0.5"/>
<text text-anchor="middle" x="50.5" y="-7.5" font-family="Helvetica,sans-Serif" font-size="10.00">PrivMsg::validate</text>
</a>
</g>
</g>
<!-- Node1&#45;&gt;Node6 -->
<g id="edge5" class="edge">
<title>Node1&#45;&gt;Node6</title>
<path fill="none" stroke="midnightblue" d="M141.56,-68.04C131.53,-55.67 116.87,-39.61 101,-29 95.41,-25.26 88.99,-22.11 82.66,-19.52"/>
<polygon fill="midnightblue" stroke="midnightblue" points="139.08,-70.54 148,-76.26 144.59,-66.23 139.08,-70.54"/>
</g>
</g>
</svg>
