<?xml version="1.0" encoding="UTF-8" standalone="no"?>
<!DOCTYPE svg PUBLIC "-//W3C//DTD SVG 1.1//EN"
 "http://www.w3.org/Graphics/SVG/1.1/DTD/svg11.dtd">
<!-- Generated by graphviz version 2.43.0 (0)
 -->
<!-- Title: Graphical Class Hierarchy Pages: 1 -->
<svg width="174pt" height="940pt"
 viewBox="0.00 0.00 174.00 940.00" xmlns="http://www.w3.org/2000/svg" xmlns:xlink="http://www.w3.org/1999/xlink">
<g id="graph0" class="graph" transform="scale(1 1) rotate(0) translate(4 936)">
<title>Graphical Class Hierarchy</title>
<polygon fill="white" stroke="transparent" points="-4,4 -4,-936 170,-936 170,4 -4,4"/>
<!-- Node0 -->
<g id="node1" class="node">
<title>Node0</title>
<g id="a_node1"><a xlink:href="classCommand.html" target="_top" xlink:title=" ">
<polygon fill="white" stroke="black" points="0,-456.5 0,-475.5 67,-475.5 67,-456.5 0,-456.5"/>
<text text-anchor="middle" x="33.5" y="-463.5" font-family="Helvetica,sans-Serif" font-size="10.00">Command</text>
</a>
</g>
</g>
<!-- Node1 -->
<g id="node2" class="node">
<title>Node1</title>
<g id="a_node2"><a xlink:href="classAway.html" target="_top" xlink:title=" ">
<polygon fill="white" stroke="black" points="112.5,-912.5 112.5,-931.5 156.5,-931.5 156.5,-912.5 112.5,-912.5"/>
<text text-anchor="middle" x="134.5" y="-919.5" font-family="Helvetica,sans-Serif" font-size="10.00">Away</text>
</a>
</g>
</g>
<!-- Node0&#45;&gt;Node1 -->
<g id="edge1" class="edge">
<title>Node0&#45;&gt;Node1</title>
<path fill="none" stroke="midnightblue" d="M35.43,-485.6C39.34,-561.14 56.44,-832.64 103,-903 105.48,-906.75 108.98,-909.89 112.72,-912.47"/>
<polygon fill="midnightblue" stroke="midnightblue" points="38.93,-485.39 34.93,-475.57 31.93,-485.73 38.93,-485.39"/>
</g>
<!-- Node2 -->
<g id="node3" class="node">
<title>Node2</title>
<g id="a_node3"><a xlink:href="classBan.html" target="_top" xlink:title=" ">
<polygon fill="white" stroke="black" points="117,-874.5 117,-893.5 152,-893.5 152,-874.5 117,-874.5"/>
<text text-anchor="middle" x="134.5" y="-881.5" font-family="Helvetica,sans-Serif" font-size="10.00">Ban</text>
</a>
</g>
</g>
<!-- Node0&#45;&gt;Node2 -->
<g id="edge2" class="edge">
<title>Node0&#45;&gt;Node2</title>
<path fill="none" stroke="midnightblue" d="M35.8,-486.16C40.75,-558.14 60.38,-801.6 103,-865 106.41,-870.07 111.68,-874.05 116.88,-877.02"/>
<polygon fill="midnightblue" stroke="midnightblue" points="39.26,-485.53 35.1,-475.79 32.28,-486 39.26,-485.53"/>
</g>
<!-- Node3 -->
<g id="node4" class="node">
<title>Node3</title>
<g id="a_node4"><a xlink:href="classClose.html" target="_top" xlink:title=" ">
<polygon fill="white" stroke="black" points="112.5,-836.5 112.5,-855.5 156.5,-855.5 156.5,-836.5 112.5,-836.5"/>
<text text-anchor="middle" x="134.5" y="-843.5" font-family="Helvetica,sans-Serif" font-size="10.00">Close</text>
</a>
</g>
</g>
<!-- Node0&#45;&gt;Node3 -->
<g id="edge3" class="edge">
<title>Node0&#45;&gt;Node3</title>
<path fill="none" stroke="midnightblue" d="M36.14,-485.52C42.07,-552.23 64.06,-770.16 103,-827 105.54,-830.71 109.06,-833.83 112.81,-836.41"/>
<polygon fill="midnightblue" stroke="midnightblue" points="39.63,-485.18 35.28,-475.52 32.65,-485.79 39.63,-485.18"/>
</g>
<!-- Node4 -->
<g id="node5" class="node">
<title>Node4</title>
<g id="a_node5"><a xlink:href="classEcho.html" target="_top" xlink:title=" ">
<polygon fill="white" stroke="black" points="114.5,-798.5 114.5,-817.5 154.5,-817.5 154.5,-798.5 114.5,-798.5"/>
<text text-anchor="middle" x="134.5" y="-805.5" font-family="Helvetica,sans-Serif" font-size="10.00">Echo</text>
</a>
</g>
</g>
<!-- Node0&#45;&gt;Node4 -->
<g id="edge4" class="edge">
<title>Node0&#45;&gt;Node4</title>
<path fill="none" stroke="midnightblue" d="M36.66,-485.85C43.76,-548.19 67.92,-738.95 103,-789 105.94,-793.19 110.12,-796.64 114.45,-799.41"/>
<polygon fill="midnightblue" stroke="midnightblue" points="40.12,-485.31 35.53,-475.76 33.17,-486.09 40.12,-485.31"/>
</g>
<!-- Node5 -->
<g id="node6" class="node">
<title>Node5</title>
<g id="a_node6"><a xlink:href="classExit.html" target="_top" xlink:title=" ">
<polygon fill="white" stroke="black" points="117,-760.5 117,-779.5 152,-779.5 152,-760.5 117,-760.5"/>
<text text-anchor="middle" x="134.5" y="-767.5" font-family="Helvetica,sans-Serif" font-size="10.00">Exit</text>
</a>
</g>
</g>
<!-- Node0&#45;&gt;Node5 -->
<g id="edge5" class="edge">
<title>Node0&#45;&gt;Node5</title>
<path fill="none" stroke="midnightblue" d="M34.31,-485.98C34.82,-535.64 42.24,-666.74 103,-751 106.5,-755.86 111.67,-759.74 116.76,-762.7"/>
<polygon fill="midnightblue" stroke="midnightblue" points="37.81,-485.67 34.3,-475.67 30.81,-485.68 37.81,-485.67"/>
</g>
<!-- Node6 -->
<g id="node7" class="node">
<title>Node6</title>
<g id="a_node7"><a xlink:href="classHelp.html" target="_top" xlink:title=" ">
<polygon fill="white" stroke="black" points="115,-722.5 115,-741.5 154,-741.5 154,-722.5 115,-722.5"/>
<text text-anchor="middle" x="134.5" y="-729.5" font-family="Helvetica,sans-Serif" font-size="10.00">Help</text>
</a>
</g>
</g>
<!-- Node0&#45;&gt;Node6 -->
<g id="edge6" class="edge">
<title>Node0&#45;&gt;Node6</title>
<path fill="none" stroke="midnightblue" d="M35.23,-485.69C37.81,-530.46 49.55,-641.53 103,-713 106.14,-717.2 110.5,-720.68 114.95,-723.48"/>
<polygon fill="midnightblue" stroke="midnightblue" points="38.72,-485.4 34.74,-475.58 31.72,-485.73 38.72,-485.4"/>
</g>
<!-- Node7 -->
<g id="node8" class="node">
<title>Node7</title>
<g id="a_node8"><a xlink:href="classInfo.html" target="_top" xlink:title=" ">
<polygon fill="white" stroke="black" points="117,-684.5 117,-703.5 152,-703.5 152,-684.5 117,-684.5"/>
<text text-anchor="middle" x="134.5" y="-691.5" font-family="Helvetica,sans-Serif" font-size="10.00">Info</text>
</a>
</g>
</g>
<!-- Node0&#45;&gt;Node7 -->
<g id="edge7" class="edge">
<title>Node0&#45;&gt;Node7</title>
<path fill="none" stroke="midnightblue" d="M36.47,-485.85C41.32,-525.64 57,-616.36 103,-675 106.7,-679.71 111.91,-683.56 116.98,-686.53"/>
<polygon fill="midnightblue" stroke="midnightblue" points="39.94,-485.39 35.35,-475.84 32.99,-486.17 39.94,-485.39"/>
</g>
<!-- Node8 -->
<g id="node9" class="node">
<title>Node8</title>
<g id="a_node9"><a xlink:href="classInvite.html" target="_top" xlink:title=" ">
<polygon fill="white" stroke="black" points="112.5,-646.5 112.5,-665.5 156.5,-665.5 156.5,-646.5 112.5,-646.5"/>
<text text-anchor="middle" x="134.5" y="-653.5" font-family="Helvetica,sans-Serif" font-size="10.00">Invite</text>
</a>
</g>
</g>
<!-- Node0&#45;&gt;Node8 -->
<g id="edge8" class="edge">
<title>Node0&#45;&gt;Node8</title>
<path fill="none" stroke="midnightblue" d="M38.18,-485.66C45.41,-519.79 64.25,-590.75 103,-637 106.04,-640.63 109.97,-643.79 113.98,-646.42"/>
<polygon fill="midnightblue" stroke="midnightblue" points="41.56,-484.71 36.16,-475.59 34.7,-486.09 41.56,-484.71"/>
</g>
<!-- Node9 -->
<g id="node10" class="node">
<title>Node9</title>
<g id="a_node10"><a xlink:href="classJoin.html" target="_top" xlink:title=" ">
<polygon fill="white" stroke="black" points="117,-608.5 117,-627.5 152,-627.5 152,-608.5 117,-608.5"/>
<text text-anchor="middle" x="134.5" y="-615.5" font-family="Helvetica,sans-Serif" font-size="10.00">Join</text>
</a>
</g>
</g>
<!-- Node0&#45;&gt;Node9 -->
<g id="edge9" class="edge">
<title>Node0&#45;&gt;Node9</title>
<path fill="none" stroke="midnightblue" d="M40.78,-485.48C50.51,-513.29 71.46,-564.77 103,-599 106.89,-603.22 111.92,-606.86 116.77,-609.79"/>
<polygon fill="midnightblue" stroke="midnightblue" points="44.01,-484.11 37.5,-475.76 37.38,-486.35 44.01,-484.11"/>
</g>
<!-- Node10 -->
<g id="node11" class="node">
<title>Node10</title>
<g id="a_node11"><a xlink:href="classKick.html" target="_top" xlink:title=" ">
<polygon fill="white" stroke="black" points="115.5,-570.5 115.5,-589.5 153.5,-589.5 153.5,-570.5 115.5,-570.5"/>
<text text-anchor="middle" x="134.5" y="-577.5" font-family="Helvetica,sans-Serif" font-size="10.00">Kick</text>
</a>
</g>
</g>
<!-- Node0&#45;&gt;Node10 -->
<g id="edge10" class="edge">
<title>Node0&#45;&gt;Node10</title>
<path fill="none" stroke="midnightblue" d="M44.83,-484.48C56.89,-504.91 78.36,-537.97 103,-561 106.74,-564.49 111.21,-567.7 115.56,-570.44"/>
<polygon fill="midnightblue" stroke="midnightblue" points="47.72,-482.48 39.69,-475.56 41.66,-485.97 47.72,-482.48"/>
</g>
<!-- Node11 -->
<g id="node12" class="node">
<title>Node11</title>
<g id="a_node12"><a xlink:href="classList.html" target="_top" xlink:title=" ">
<polygon fill="white" stroke="black" points="117.5,-532.5 117.5,-551.5 151.5,-551.5 151.5,-532.5 117.5,-532.5"/>
<text text-anchor="middle" x="134.5" y="-539.5" font-family="Helvetica,sans-Serif" font-size="10.00">List</text>
</a>
</g>
</g>
<!-- Node0&#45;&gt;Node11 -->
<g id="edge11" class="edge">
<title>Node0&#45;&gt;Node11</title>
<path fill="none" stroke="midnightblue" d="M52.91,-482.5C66.39,-494.28 85.34,-510.25 103,-523 107.55,-526.29 112.67,-529.61 117.4,-532.54"/>
<polygon fill="midnightblue" stroke="midnightblue" points="55.09,-479.76 45.28,-475.76 50.46,-485 55.09,-479.76"/>
</g>
<!-- Node12 -->
<g id="node13" class="node">
<title>Node12</title>
<g id="a_node13"><a xlink:href="classMode.html" target="_top" xlink:title=" ">
<polygon fill="white" stroke="black" points="112.5,-494.5 112.5,-513.5 156.5,-513.5 156.5,-494.5 112.5,-494.5"/>
<text text-anchor="middle" x="134.5" y="-501.5" font-family="Helvetica,sans-Serif" font-size="10.00">Mode</text>
</a>
</g>
</g>
<!-- Node0&#45;&gt;Node12 -->
<g id="edge12" class="edge">
<title>Node0&#45;&gt;Node12</title>
<path fill="none" stroke="midnightblue" d="M69.06,-479.27C83.43,-484.78 99.65,-491.01 112.22,-495.83"/>
<polygon fill="midnightblue" stroke="midnightblue" points="70.07,-475.9 59.48,-475.59 67.56,-482.44 70.07,-475.9"/>
</g>
<!-- Node13 -->
<g id="node14" class="node">
<title>Node13</title>
<g id="a_node14"><a xlink:href="className.html" target="_top" xlink:title=" ">
<polygon fill="white" stroke="black" points="111.5,-456.5 111.5,-475.5 157.5,-475.5 157.5,-456.5 111.5,-456.5"/>
<text text-anchor="middle" x="134.5" y="-463.5" font-family="Helvetica,sans-Serif" font-size="10.00">Name</text>
</a>
</g>
</g>
<!-- Node0&#45;&gt;Node13 -->
<g id="edge13" class="edge">
<title>Node0&#45;&gt;Node13</title>
<path fill="none" stroke="midnightblue" d="M77.34,-466C89.11,-466 101.39,-466 111.46,-466"/>
<polygon fill="midnightblue" stroke="midnightblue" points="77.19,-462.5 67.19,-466 77.19,-469.5 77.19,-462.5"/>
</g>
<!-- Node14 -->
<g id="node15" class="node">
<title>Node14</title>
<g id="a_node15"><a xlink:href="classNick.html" target="_top" xlink:title=" ">
<polygon fill="white" stroke="black" points="115.5,-418.5 115.5,-437.5 153.5,-437.5 153.5,-418.5 115.5,-418.5"/>
<text text-anchor="middle" x="134.5" y="-425.5" font-family="Helvetica,sans-Serif" font-size="10.00">Nick</text>
</a>
</g>
</g>
<!-- Node0&#45;&gt;Node14 -->
<g id="edge14" class="edge">
<title>Node0&#45;&gt;Node14</title>
<path fill="none" stroke="midnightblue" d="M68.88,-452.8C84.53,-446.8 102.42,-439.93 115.4,-434.95"/>
<polygon fill="midnightblue" stroke="midnightblue" points="67.56,-449.56 59.48,-456.41 70.07,-456.1 67.56,-449.56"/>
</g>
<!-- Node15 -->
<g id="node16" class="node">
<title>Node15</title>
<g id="a_node16"><a xlink:href="classNotice.html" target="_top" xlink:title=" ">
<polygon fill="white" stroke="black" points="110.5,-380.5 110.5,-399.5 158.5,-399.5 158.5,-380.5 110.5,-380.5"/>
<text text-anchor="middle" x="134.5" y="-387.5" font-family="Helvetica,sans-Serif" font-size="10.00">Notice</text>
</a>
</g>
</g>
<!-- Node0&#45;&gt;Node15 -->
<g id="edge15" class="edge">
<title>Node0&#45;&gt;Node15</title>
<path fill="none" stroke="midnightblue" d="M52.91,-449.5C66.39,-437.72 85.34,-421.75 103,-409 107.45,-405.79 112.44,-402.54 117.08,-399.65"/>
<polygon fill="midnightblue" stroke="midnightblue" points="50.46,-447 45.28,-456.24 55.09,-452.24 50.46,-447"/>
</g>
<!-- Node16 -->
<g id="node17" class="node">
<title>Node16</title>
<g id="a_node17"><a xlink:href="classOpe.html" target="_top" xlink:title=" ">
<polygon fill="white" stroke="black" points="116.5,-342.5 116.5,-361.5 152.5,-361.5 152.5,-342.5 116.5,-342.5"/>
<text text-anchor="middle" x="134.5" y="-349.5" font-family="Helvetica,sans-Serif" font-size="10.00">Ope</text>
</a>
</g>
</g>
<!-- Node0&#45;&gt;Node16 -->
<g id="edge16" class="edge">
<title>Node0&#45;&gt;Node16</title>
<path fill="none" stroke="midnightblue" d="M44.83,-447.52C56.89,-427.09 78.36,-394.03 103,-371 106.92,-367.34 111.65,-363.99 116.2,-361.16"/>
<polygon fill="midnightblue" stroke="midnightblue" points="41.66,-446.03 39.69,-456.44 47.72,-449.52 41.66,-446.03"/>
</g>
<!-- Node17 -->
<g id="node18" class="node">
<title>Node17</title>
<g id="a_node18"><a xlink:href="classOpenhost.html" target="_top" xlink:title=" ">
<polygon fill="white" stroke="black" points="103,-304.5 103,-323.5 166,-323.5 166,-304.5 103,-304.5"/>
<text text-anchor="middle" x="134.5" y="-311.5" font-family="Helvetica,sans-Serif" font-size="10.00">Openhost</text>
</a>
</g>
</g>
<!-- Node0&#45;&gt;Node17 -->
<g id="edge17" class="edge">
<title>Node0&#45;&gt;Node17</title>
<path fill="none" stroke="midnightblue" d="M40.78,-446.52C50.51,-418.71 71.46,-367.23 103,-333 106.3,-329.42 110.42,-326.26 114.55,-323.59"/>
<polygon fill="midnightblue" stroke="midnightblue" points="37.38,-445.65 37.5,-456.24 44.01,-447.89 37.38,-445.65"/>
</g>
<!-- Node18 -->
<g id="node19" class="node">
<title>Node18</title>
<g id="a_node19"><a xlink:href="classPart.html" target="_top" xlink:title=" ">
<polygon fill="white" stroke="black" points="117,-266.5 117,-285.5 152,-285.5 152,-266.5 117,-266.5"/>
<text text-anchor="middle" x="134.5" y="-273.5" font-family="Helvetica,sans-Serif" font-size="10.00">Part</text>
</a>
</g>
</g>
<!-- Node0&#45;&gt;Node18 -->
<g id="edge18" class="edge">
<title>Node0&#45;&gt;Node18</title>
<path fill="none" stroke="midnightblue" d="M38.18,-446.34C45.41,-412.21 64.25,-341.25 103,-295 106.77,-290.5 111.88,-286.75 116.84,-283.8"/>
<polygon fill="midnightblue" stroke="midnightblue" points="34.7,-445.91 36.16,-456.41 41.56,-447.29 34.7,-445.91"/>
</g>
<!-- Node19 -->
<g id="node20" class="node">
<title>Node19</title>
<g id="a_node20"><a xlink:href="classPing.html" target="_top" xlink:title=" ">
<polygon fill="white" stroke="black" points="115.5,-228.5 115.5,-247.5 153.5,-247.5 153.5,-228.5 115.5,-228.5"/>
<text text-anchor="middle" x="134.5" y="-235.5" font-family="Helvetica,sans-Serif" font-size="10.00">Ping</text>
</a>
</g>
</g>
<!-- Node0&#45;&gt;Node19 -->
<g id="edge19" class="edge">
<title>Node0&#45;&gt;Node19</title>
<path fill="none" stroke="midnightblue" d="M36.47,-446.15C41.32,-406.36 57,-315.64 103,-257 106.31,-252.78 110.84,-249.25 115.39,-246.42"/>
<polygon fill="midnightblue" stroke="midnightblue" points="32.99,-445.83 35.35,-456.16 39.94,-446.61 32.99,-445.83"/>
</g>
<!-- Node20 -->
<g id="node21" class="node">
<title>Node20</title>
<g id="a_node21"><a xlink:href="classPrivMsg.html" target="_top" xlink:title=" ">
<polygon fill="white" stroke="black" points="106.5,-190.5 106.5,-209.5 162.5,-209.5 162.5,-190.5 106.5,-190.5"/>
<text text-anchor="middle" x="134.5" y="-197.5" font-family="Helvetica,sans-Serif" font-size="10.00">PrivMsg</text>
</a>
</g>
</g>
<!-- Node0&#45;&gt;Node20 -->
<g id="edge20" class="edge">
<title>Node0&#45;&gt;Node20</title>
<path fill="none" stroke="midnightblue" d="M35.23,-446.31C37.81,-401.54 49.55,-290.47 103,-219 105.76,-215.3 109.48,-212.16 113.36,-209.55"/>
<polygon fill="midnightblue" stroke="midnightblue" points="31.72,-446.27 34.74,-456.42 38.72,-446.6 31.72,-446.27"/>
</g>
<!-- Node21 -->
<g id="node22" class="node">
<title>Node21</title>
<g id="a_node22"><a xlink:href="classQuit.html" target="_top" xlink:title=" ">
<polygon fill="white" stroke="black" points="116,-152.5 116,-171.5 153,-171.5 153,-152.5 116,-152.5"/>
<text text-anchor="middle" x="134.5" y="-159.5" font-family="Helvetica,sans-Serif" font-size="10.00">Quit</text>
</a>
</g>
</g>
<!-- Node0&#45;&gt;Node21 -->
<g id="edge21" class="edge">
<title>Node0&#45;&gt;Node21</title>
<path fill="none" stroke="midnightblue" d="M34.31,-446.02C34.82,-396.36 42.24,-265.26 103,-181 106.28,-176.45 111.03,-172.75 115.8,-169.86"/>
<polygon fill="midnightblue" stroke="midnightblue" points="30.81,-446.32 34.3,-456.33 37.81,-446.33 30.81,-446.32"/>
</g>
<!-- Node22 -->
<g id="node23" class="node">
<title>Node22</title>
<g id="a_node23"><a xlink:href="classStatus.html" target="_top" xlink:title=" ">
<polygon fill="white" stroke="black" points="111,-114.5 111,-133.5 158,-133.5 158,-114.5 111,-114.5"/>
<text text-anchor="middle" x="134.5" y="-121.5" font-family="Helvetica,sans-Serif" font-size="10.00">Status</text>
</a>
</g>
</g>
<!-- Node0&#45;&gt;Node22 -->
<g id="edge22" class="edge">
<title>Node0&#45;&gt;Node22</title>
<path fill="none" stroke="midnightblue" d="M36.66,-446.15C43.76,-383.81 67.92,-193.05 103,-143 105.58,-139.32 109.12,-136.21 112.88,-133.64"/>
<polygon fill="midnightblue" stroke="midnightblue" points="33.17,-445.91 35.53,-456.24 40.12,-446.69 33.17,-445.91"/>
</g>
<!-- Node23 -->
<g id="node24" class="node">
<title>Node23</title>
<g id="a_node24"><a xlink:href="classUser.html" target="_top" xlink:title=" ">
<polygon fill="white" stroke="black" points="115,-76.5 115,-95.5 154,-95.5 154,-76.5 115,-76.5"/>
<text text-anchor="middle" x="134.5" y="-83.5" font-family="Helvetica,sans-Serif" font-size="10.00">User</text>
</a>
</g>
</g>
<!-- Node0&#45;&gt;Node23 -->
<g id="edge23" class="edge">
<title>Node0&#45;&gt;Node23</title>
<path fill="none" stroke="midnightblue" d="M36.14,-446.48C42.07,-379.77 64.06,-161.84 103,-105 105.96,-100.68 110.26,-97.14 114.71,-94.35"/>
<polygon fill="midnightblue" stroke="midnightblue" points="32.65,-446.21 35.28,-456.48 39.63,-446.82 32.65,-446.21"/>
</g>
<!-- Node24 -->
<g id="node25" class="node">
<title>Node24</title>
<g id="a_node25"><a xlink:href="classWho.html" target="_top" xlink:title=" ">
<polygon fill="white" stroke="black" points="115.5,-38.5 115.5,-57.5 153.5,-57.5 153.5,-38.5 115.5,-38.5"/>
<text text-anchor="middle" x="134.5" y="-45.5" font-family="Helvetica,sans-Serif" font-size="10.00">Who</text>
</a>
</g>
</g>
<!-- Node0&#45;&gt;Node24 -->
<g id="edge24" class="edge">
<title>Node0&#45;&gt;Node24</title>
<path fill="none" stroke="midnightblue" d="M35.8,-445.84C40.75,-373.86 60.38,-130.4 103,-67 106.06,-62.44 110.62,-58.77 115.29,-55.92"/>
<polygon fill="midnightblue" stroke="midnightblue" points="32.28,-446 35.1,-456.21 39.26,-446.47 32.28,-446"/>
</g>
<!-- Node25 -->
<g id="node26" class="node">
<title>Node25</title>
<g id="a_node26"><a xlink:href="classWhois.html" target="_top" xlink:title=" ">
<polygon fill="white" stroke="black" points="111,-0.5 111,-19.5 158,-19.5 158,-0.5 111,-0.5"/>
<text text-anchor="middle" x="134.5" y="-7.5" font-family="Helvetica,sans-Serif" font-size="10.00">Whois</text>
</a>
</g>
</g>
<!-- Node0&#45;&gt;Node25 -->
<g id="edge25" class="edge">
<title>Node0&#45;&gt;Node25</title>
<path fill="none" stroke="midnightblue" d="M35.43,-446.4C39.34,-370.86 56.44,-99.36 103,-29 105.48,-25.25 108.98,-22.11 112.72,-19.53"/>
<polygon fill="midnightblue" stroke="midnightblue" points="31.93,-446.27 34.93,-456.43 38.93,-446.61 31.93,-446.27"/>
</g>
</g>
</svg>
