<?xml version="1.0" encoding="UTF-8" standalone="no"?>
<!DOCTYPE svg PUBLIC "-//W3C//DTD SVG 1.1//EN"
 "http://www.w3.org/Graphics/SVG/1.1/DTD/svg11.dtd">
<!-- Generated by graphviz version 2.43.0 (0)
 -->
<!-- Title: includes/Message.hpp Pages: 1 -->
<!--zoomable 364 -->
<svg id="main" version="1.1" xmlns="http://www.w3.org/2000/svg" xmlns:xlink="http://www.w3.org/1999/xlink" xml:space="preserve" onload="init(evt)">
<style type="text/css"><![CDATA[
.edge:hover path { stroke: red; }
.edge:hover polygon { stroke: red; fill: red; }
]]></style>
<script type="text/javascript"><![CDATA[
var edges = document.getElementsByTagName('g');
if (edges && edges.length) {
  for (var i=0;i<edges.length;i++) {
    if (edges[i].id.substr(0,4)=='edge') {
      edges[i].setAttribute('class','edge');
    }
  }
}
]]></script>
        <defs>
                <circle id="rim" cx="0" cy="0" r="7"/>
                <circle id="rim2" cx="0" cy="0" r="3.5"/>
                <g id="zoomPlus">
                        <use xlink:href="#rim" fill="#404040">
                                <set attributeName="fill" to="#808080" begin="zoomplus.mouseover" end="zoomplus.mouseout"/>
                        </use>
                        <path d="M-4,0h8M0,-4v8" fill="none" stroke="white" stroke-width="1.5" pointer-events="none"/>
                </g>
                <g id="zoomMin">
                        <use xlink:href="#rim" fill="#404040">
                                <set attributeName="fill" to="#808080" begin="zoomminus.mouseover" end="zoomminus.mouseout"/>
                        </use>
                        <path d="M-4,0h8" fill="none" stroke="white" stroke-width="1.5" pointer-events="none"/>
                </g>
                <g id="dirArrow">
                        <path fill="none" stroke="white" stroke-width="1.5" d="M0,-3.0v7 M-2.5,-0.5L0,-3.0L2.5,-0.5"/>
                </g>
               <g id="resetDef">
                       <use xlink:href="#rim2" fill="#404040">
                               <set attributeName="fill" to="#808080" begin="reset.mouseover" end="reset.mouseout"/>
                       </use>
               </g>
        </defs>

<script type="text/javascript">
var viewWidth = 4784;
var viewHeight = 364;
var sectionId = 'dynsection-1';
</script>
<script xlink:href="svgpan.js"/>
<svg id="graph" class="graph">
<g id="viewport">
<title>includes/Message.hpp</title>
<polygon fill="white" stroke="transparent" points="-4,4 -4,-360 4780,-360 4780,4 -4,4"/>
<!-- Node1 -->
<g id="node1" class="node">
<title>Node1</title>
<g id="a_node1"><a xlink:title=" ">
<polygon fill="#bfbfbf" stroke="black" points="4598.5,-336.5 4598.5,-355.5 4723.5,-355.5 4723.5,-336.5 4598.5,-336.5"/>
<text text-anchor="middle" x="4661" y="-343.5" font-family="Helvetica,sans-Serif" font-size="10.00">includes/Message.hpp</text>
</a>
</g>
</g>
<!-- Node2 -->
<g id="node2" class="node">
<title>Node2</title>
<g id="a_node2"><a xlink:href="Client_8hpp.html" target="_top" xlink:title=" ">
<polygon fill="white" stroke="black" points="4544,-280.5 4544,-299.5 4654,-299.5 4654,-280.5 4544,-280.5"/>
<text text-anchor="middle" x="4599" y="-287.5" font-family="Helvetica,sans-Serif" font-size="10.00">includes/Client.hpp</text>
</a>
</g>
</g>
<!-- Node1&#45;&gt;Node2 -->
<g id="edge1" class="edge">
<title>Node1&#45;&gt;Node2</title>
<path fill="none" stroke="midnightblue" d="M4643.25,-329.54C4632.19,-319.91 4618.37,-307.87 4609.14,-299.83"/>
<polygon fill="midnightblue" stroke="midnightblue" points="4641.2,-332.4 4651.04,-336.32 4645.8,-327.12 4641.2,-332.4"/>
</g>
<!-- Node37 -->
<g id="node37" class="node">
<title>Node37</title>
<g id="a_node37"><a xlink:href="message_8cpp.html" target="_top" xlink:title=" ">
<polygon fill="white" stroke="black" points="4672,-280.5 4672,-299.5 4776,-299.5 4776,-280.5 4672,-280.5"/>
<text text-anchor="middle" x="4724" y="-287.5" font-family="Helvetica,sans-Serif" font-size="10.00">srcs/message.cpp</text>
</a>
</g>
</g>
<!-- Node1&#45;&gt;Node37 -->
<g id="edge48" class="edge">
<title>Node1&#45;&gt;Node37</title>
<path fill="none" stroke="midnightblue" d="M4679.04,-329.54C4690.27,-319.91 4704.32,-307.87 4713.69,-299.83"/>
<polygon fill="midnightblue" stroke="midnightblue" points="4676.44,-327.16 4671.12,-336.32 4680.99,-332.47 4676.44,-327.16"/>
</g>
<!-- Node3 -->
<g id="node3" class="node">
<title>Node3</title>
<g id="a_node3"><a xlink:href="Channel_8hpp.html" target="_top" xlink:title=" ">
<polygon fill="white" stroke="black" points="4449.5,-224.5 4449.5,-243.5 4570.5,-243.5 4570.5,-224.5 4449.5,-224.5"/>
<text text-anchor="middle" x="4510" y="-231.5" font-family="Helvetica,sans-Serif" font-size="10.00">includes/Channel.hpp</text>
</a>
</g>
</g>
<!-- Node2&#45;&gt;Node3 -->
<g id="edge2" class="edge">
<title>Node2&#45;&gt;Node3</title>
<path fill="none" stroke="midnightblue" d="M4575.76,-274.9C4559.44,-265 4538.13,-252.07 4524.26,-243.65"/>
<polygon fill="midnightblue" stroke="midnightblue" points="4574.34,-278.13 4584.7,-280.32 4577.97,-272.14 4574.34,-278.13"/>
</g>
<!-- Node4 -->
<g id="node4" class="node">
<title>Node4</title>
<g id="a_node4"><a xlink:href="Server_8hpp.html" target="_top" xlink:title=" ">
<polygon fill="white" stroke="black" points="4498,-168.5 4498,-187.5 4610,-187.5 4610,-168.5 4498,-168.5"/>
<text text-anchor="middle" x="4554" y="-175.5" font-family="Helvetica,sans-Serif" font-size="10.00">includes/Server.hpp</text>
</a>
</g>
</g>
<!-- Node2&#45;&gt;Node4 -->
<g id="edge46" class="edge">
<title>Node2&#45;&gt;Node4</title>
<path fill="none" stroke="midnightblue" d="M4594.44,-270.6C4590.9,-257.38 4585.51,-239.27 4579,-224 4573.39,-210.84 4565.03,-196.56 4559.55,-187.69"/>
<polygon fill="midnightblue" stroke="midnightblue" points="4591.08,-271.57 4596.96,-280.38 4597.86,-269.83 4591.08,-271.57"/>
</g>
<!-- Node36 -->
<g id="node36" class="node">
<title>Node36</title>
<g id="a_node36"><a xlink:href="client_8cpp.html" target="_top" xlink:title=" ">
<polygon fill="white" stroke="black" points="4627,-224.5 4627,-243.5 4713,-243.5 4713,-224.5 4627,-224.5"/>
<text text-anchor="middle" x="4670" y="-231.5" font-family="Helvetica,sans-Serif" font-size="10.00">srcs/client.cpp</text>
</a>
</g>
</g>
<!-- Node2&#45;&gt;Node36 -->
<g id="edge47" class="edge">
<title>Node2&#45;&gt;Node36</title>
<path fill="none" stroke="midnightblue" d="M4618.59,-274.1C4631.37,-264.38 4647.61,-252.03 4658.39,-243.83"/>
<polygon fill="midnightblue" stroke="midnightblue" points="4616.25,-271.48 4610.41,-280.32 4620.49,-277.06 4616.25,-271.48"/>
</g>
<!-- Node3&#45;&gt;Node4 -->
<g id="edge3" class="edge">
<title>Node3&#45;&gt;Node4</title>
<path fill="none" stroke="midnightblue" d="M4523.73,-216.14C4531.4,-206.74 4540.63,-195.4 4546.87,-187.75"/>
<polygon fill="midnightblue" stroke="midnightblue" points="4520.87,-214.12 4517.27,-224.08 4526.3,-218.54 4520.87,-214.12"/>
</g>
<!-- Node5 -->
<g id="node5" class="node">
<title>Node5</title>
<g id="a_node5"><a xlink:href="Command_8hpp.html" target="_top" xlink:title=" ">
<polygon fill="white" stroke="black" points="2162.5,-112.5 2162.5,-131.5 2293.5,-131.5 2293.5,-112.5 2162.5,-112.5"/>
<text text-anchor="middle" x="2228" y="-119.5" font-family="Helvetica,sans-Serif" font-size="10.00">includes/Command.hpp</text>
</a>
</g>
</g>
<!-- Node4&#45;&gt;Node5 -->
<g id="edge4" class="edge">
<title>Node4&#45;&gt;Node5</title>
<path fill="none" stroke="midnightblue" d="M4487.86,-175.46C4151.01,-167.64 2629.12,-132.31 2293.58,-124.52"/>
<polygon fill="midnightblue" stroke="midnightblue" points="4487.86,-178.97 4497.94,-175.7 4488.03,-171.97 4487.86,-178.97"/>
</g>
<!-- Node12 -->
<g id="node12" class="node">
<title>Node12</title>
<g id="a_node12"><a xlink:href="server_8cpp.html" target="_top" xlink:title=" ">
<polygon fill="white" stroke="black" points="3405.5,-0.5 3405.5,-19.5 3494.5,-19.5 3494.5,-0.5 3405.5,-0.5"/>
<text text-anchor="middle" x="3450" y="-7.5" font-family="Helvetica,sans-Serif" font-size="10.00">srcs/server.cpp</text>
</a>
</g>
</g>
<!-- Node4&#45;&gt;Node12 -->
<g id="edge44" class="edge">
<title>Node4&#45;&gt;Node12</title>
<path fill="none" stroke="midnightblue" d="M4557.51,-158.19C4561.35,-131.08 4563.61,-81.51 4535,-56 4495.6,-20.87 3694.45,-12.76 3494.77,-11.29"/>
<polygon fill="midnightblue" stroke="midnightblue" points="4554.02,-157.86 4555.85,-168.29 4560.92,-158.99 4554.02,-157.86"/>
</g>
<!-- Node35 -->
<g id="node35" class="node">
<title>Node35</title>
<g id="a_node35"><a xlink:href="validation_8cpp.html" target="_top" xlink:title=" ">
<polygon fill="white" stroke="black" points="4582,-112.5 4582,-131.5 4714,-131.5 4714,-112.5 4582,-112.5"/>
<text text-anchor="middle" x="4648" y="-119.5" font-family="Helvetica,sans-Serif" font-size="10.00">srcs/utils/validation.cpp</text>
</a>
</g>
</g>
<!-- Node4&#45;&gt;Node35 -->
<g id="edge45" class="edge">
<title>Node4&#45;&gt;Node35</title>
<path fill="none" stroke="midnightblue" d="M4578.06,-163.18C4595.36,-153.24 4618.15,-140.15 4632.93,-131.65"/>
<polygon fill="midnightblue" stroke="midnightblue" points="4576.03,-160.31 4569.1,-168.32 4579.52,-166.38 4576.03,-160.31"/>
</g>
<!-- Node6 -->
<g id="node6" class="node">
<title>Node6</title>
<g id="a_node6"><a xlink:href="Away_8hpp.html" target="_top" xlink:title=" ">
<polygon fill="white" stroke="black" points="0,-56.5 0,-75.5 136,-75.5 136,-56.5 0,-56.5"/>
<text text-anchor="middle" x="68" y="-63.5" font-family="Helvetica,sans-Serif" font-size="10.00">includes/cmds/Away.hpp</text>
</a>
</g>
</g>
<!-- Node5&#45;&gt;Node6 -->
<g id="edge5" class="edge">
<title>Node5&#45;&gt;Node6</title>
<path fill="none" stroke="midnightblue" d="M2152.13,-120.33C1826.66,-117.28 546.94,-103.77 145,-76 142.18,-75.81 139.31,-75.58 136.4,-75.34"/>
<polygon fill="midnightblue" stroke="midnightblue" points="2152.36,-123.83 2162.39,-120.42 2152.43,-116.83 2152.36,-123.83"/>
</g>
<!-- Node7 -->
<g id="node7" class="node">
<title>Node7</title>
<g id="a_node7"><a xlink:href="Close_8hpp.html" target="_top" xlink:title=" ">
<polygon fill="white" stroke="black" points="154.5,-56.5 154.5,-75.5 291.5,-75.5 291.5,-56.5 154.5,-56.5"/>
<text text-anchor="middle" x="223" y="-63.5" font-family="Helvetica,sans-Serif" font-size="10.00">includes/cmds/Close.hpp</text>
</a>
</g>
</g>
<!-- Node5&#45;&gt;Node7 -->
<g id="edge6" class="edge">
<title>Node5&#45;&gt;Node7</title>
<path fill="none" stroke="midnightblue" d="M2151.96,-120.17C1841.59,-116.64 669.67,-101.86 300,-76 297.31,-75.81 294.58,-75.6 291.82,-75.36"/>
<polygon fill="midnightblue" stroke="midnightblue" points="2152.16,-123.67 2162.2,-120.29 2152.24,-116.67 2152.16,-123.67"/>
</g>
<!-- Node8 -->
<g id="node8" class="node">
<title>Node8</title>
<g id="a_node8"><a xlink:href="cmds_2Exit_8hpp.html" target="_top" xlink:title=" ">
<polygon fill="white" stroke="black" points="309.5,-56.5 309.5,-75.5 438.5,-75.5 438.5,-56.5 309.5,-56.5"/>
<text text-anchor="middle" x="374" y="-63.5" font-family="Helvetica,sans-Serif" font-size="10.00">includes/cmds/Exit.hpp</text>
</a>
</g>
</g>
<!-- Node5&#45;&gt;Node8 -->
<g id="edge7" class="edge">
<title>Node5&#45;&gt;Node8</title>
<path fill="none" stroke="midnightblue" d="M2151.94,-120.07C1856.7,-116.29 786.13,-101.13 447,-76 444.33,-75.8 441.6,-75.58 438.85,-75.33"/>
<polygon fill="midnightblue" stroke="midnightblue" points="2152.07,-123.57 2162.12,-120.2 2152.16,-116.57 2152.07,-123.57"/>
</g>
<!-- Node9 -->
<g id="node9" class="node">
<title>Node9</title>
<g id="a_node9"><a xlink:href="cmds_2Help_8hpp.html" target="_top" xlink:title=" ">
<polygon fill="white" stroke="black" points="456.5,-56.5 456.5,-75.5 589.5,-75.5 589.5,-56.5 456.5,-56.5"/>
<text text-anchor="middle" x="523" y="-63.5" font-family="Helvetica,sans-Serif" font-size="10.00">includes/cmds/Help.hpp</text>
</a>
</g>
</g>
<!-- Node5&#45;&gt;Node9 -->
<g id="edge8" class="edge">
<title>Node5&#45;&gt;Node9</title>
<path fill="none" stroke="midnightblue" d="M2152.29,-121.33C1919.92,-121.84 1196.44,-119.54 599,-76 595.95,-75.78 592.84,-75.52 589.7,-75.24"/>
<polygon fill="midnightblue" stroke="midnightblue" points="2152.34,-124.83 2162.33,-121.31 2152.32,-117.83 2152.34,-124.83"/>
</g>
<!-- Node10 -->
<g id="node10" class="node">
<title>Node10</title>
<g id="a_node10"><a xlink:href="Invite_8hpp.html" target="_top" xlink:title=" ">
<polygon fill="white" stroke="black" points="608,-56.5 608,-75.5 746,-75.5 746,-56.5 608,-56.5"/>
<text text-anchor="middle" x="677" y="-63.5" font-family="Helvetica,sans-Serif" font-size="10.00">includes/cmds/Invite.hpp</text>
</a>
</g>
</g>
<!-- Node5&#45;&gt;Node10 -->
<g id="edge9" class="edge">
<title>Node5&#45;&gt;Node10</title>
<path fill="none" stroke="midnightblue" d="M2152.16,-120.94C1934.47,-120.27 1289.08,-114.9 755,-76 752.14,-75.79 749.23,-75.56 746.29,-75.3"/>
<polygon fill="midnightblue" stroke="midnightblue" points="2152.19,-124.44 2162.2,-120.97 2152.21,-117.44 2152.19,-124.44"/>
</g>
<!-- Node11 -->
<g id="node11" class="node">
<title>Node11</title>
<g id="a_node11"><a xlink:href="Join_8hpp.html" target="_top" xlink:title=" ">
<polygon fill="white" stroke="black" points="764,-56.5 764,-75.5 892,-75.5 892,-56.5 764,-56.5"/>
<text text-anchor="middle" x="828" y="-63.5" font-family="Helvetica,sans-Serif" font-size="10.00">includes/cmds/Join.hpp</text>
</a>
</g>
</g>
<!-- Node5&#45;&gt;Node11 -->
<g id="edge10" class="edge">
<title>Node5&#45;&gt;Node11</title>
<path fill="none" stroke="midnightblue" d="M2152.04,-120.78C1948.83,-119.69 1375.91,-113.25 901,-76 898.07,-75.77 895.08,-75.51 892.06,-75.22"/>
<polygon fill="midnightblue" stroke="midnightblue" points="2152.28,-124.28 2162.3,-120.83 2152.32,-117.28 2152.28,-124.28"/>
</g>
<!-- Node13 -->
<g id="node13" class="node">
<title>Node13</title>
<g id="a_node13"><a xlink:href="Kick_8hpp.html" target="_top" xlink:title=" ">
<polygon fill="white" stroke="black" points="910.5,-56.5 910.5,-75.5 1041.5,-75.5 1041.5,-56.5 910.5,-56.5"/>
<text text-anchor="middle" x="976" y="-63.5" font-family="Helvetica,sans-Serif" font-size="10.00">includes/cmds/Kick.hpp</text>
</a>
</g>
</g>
<!-- Node5&#45;&gt;Node13 -->
<g id="edge12" class="edge">
<title>Node5&#45;&gt;Node13</title>
<path fill="none" stroke="midnightblue" d="M2152.5,-120.24C1965.53,-117.89 1466.11,-108.79 1051,-76 1047.99,-75.76 1044.92,-75.5 1041.82,-75.2"/>
<polygon fill="midnightblue" stroke="midnightblue" points="2152.45,-123.74 2162.5,-120.36 2152.54,-116.74 2152.45,-123.74"/>
</g>
<!-- Node14 -->
<g id="node14" class="node">
<title>Node14</title>
<g id="a_node14"><a xlink:href="List_8hpp.html" target="_top" xlink:title=" ">
<polygon fill="white" stroke="black" points="1060,-56.5 1060,-75.5 1188,-75.5 1188,-56.5 1060,-56.5"/>
<text text-anchor="middle" x="1124" y="-63.5" font-family="Helvetica,sans-Serif" font-size="10.00">includes/cmds/List.hpp</text>
</a>
</g>
</g>
<!-- Node5&#45;&gt;Node14 -->
<g id="edge13" class="edge">
<title>Node5&#45;&gt;Node14</title>
<path fill="none" stroke="midnightblue" d="M2152.31,-119.74C1981.61,-116.46 1553.72,-105.73 1197,-76 1194.07,-75.76 1191.08,-75.48 1188.06,-75.19"/>
<polygon fill="midnightblue" stroke="midnightblue" points="2152.38,-123.25 2162.45,-119.94 2152.52,-116.25 2152.38,-123.25"/>
</g>
<!-- Node15 -->
<g id="node15" class="node">
<title>Node15</title>
<g id="a_node15"><a xlink:href="Mode_8hpp.html" target="_top" xlink:title=" ">
<polygon fill="white" stroke="black" points="1206.5,-56.5 1206.5,-75.5 1343.5,-75.5 1343.5,-56.5 1206.5,-56.5"/>
<text text-anchor="middle" x="1275" y="-63.5" font-family="Helvetica,sans-Serif" font-size="10.00">includes/cmds/Mode.hpp</text>
</a>
</g>
</g>
<!-- Node5&#45;&gt;Node15 -->
<g id="edge15" class="edge">
<title>Node5&#45;&gt;Node15</title>
<path fill="none" stroke="midnightblue" d="M2152.17,-118.72C2000.3,-113.8 1648.06,-100.59 1353,-76 1350.01,-75.75 1346.96,-75.48 1343.88,-75.19"/>
<polygon fill="midnightblue" stroke="midnightblue" points="2152.21,-122.22 2162.32,-119.05 2152.44,-115.23 2152.21,-122.22"/>
</g>
<!-- Node16 -->
<g id="node16" class="node">
<title>Node16</title>
<g id="a_node16"><a xlink:href="Nick_8hpp.html" target="_top" xlink:title=" ">
<polygon fill="white" stroke="black" points="1362,-56.5 1362,-75.5 1494,-75.5 1494,-56.5 1362,-56.5"/>
<text text-anchor="middle" x="1428" y="-63.5" font-family="Helvetica,sans-Serif" font-size="10.00">includes/cmds/Nick.hpp</text>
</a>
</g>
</g>
<!-- Node5&#45;&gt;Node16 -->
<g id="edge16" class="edge">
<title>Node5&#45;&gt;Node16</title>
<path fill="none" stroke="midnightblue" d="M2152.42,-117.74C2020.46,-111.73 1739.54,-97.52 1503,-76 1500.13,-75.74 1497.19,-75.46 1494.23,-75.16"/>
<polygon fill="midnightblue" stroke="midnightblue" points="2152.27,-121.24 2162.42,-118.19 2152.59,-114.24 2152.27,-121.24"/>
</g>
<!-- Node17 -->
<g id="node17" class="node">
<title>Node17</title>
<g id="a_node17"><a xlink:href="Notice_8hpp.html" target="_top" xlink:title=" ">
<polygon fill="white" stroke="black" points="1512,-56.5 1512,-75.5 1654,-75.5 1654,-56.5 1512,-56.5"/>
<text text-anchor="middle" x="1583" y="-63.5" font-family="Helvetica,sans-Serif" font-size="10.00">includes/cmds/Notice.hpp</text>
</a>
</g>
</g>
<!-- Node5&#45;&gt;Node17 -->
<g id="edge17" class="edge">
<title>Node5&#45;&gt;Node17</title>
<path fill="none" stroke="midnightblue" d="M2152.07,-115.74C2043.53,-108.04 1837.83,-92.79 1663,-76 1660.08,-75.72 1657.1,-75.42 1654.09,-75.12"/>
<polygon fill="midnightblue" stroke="midnightblue" points="2152.04,-119.25 2162.26,-116.46 2152.53,-112.26 2152.04,-119.25"/>
</g>
<!-- Node18 -->
<g id="node18" class="node">
<title>Node18</title>
<g id="a_node18"><a xlink:href="OpenHost_8hpp.html" target="_top" xlink:title=" ">
<polygon fill="white" stroke="black" points="1672,-56.5 1672,-75.5 1830,-75.5 1830,-56.5 1672,-56.5"/>
<text text-anchor="middle" x="1751" y="-63.5" font-family="Helvetica,sans-Serif" font-size="10.00">includes/cmds/OpenHost.hpp</text>
</a>
</g>
</g>
<!-- Node5&#45;&gt;Node18 -->
<g id="edge18" class="edge">
<title>Node5&#45;&gt;Node18</title>
<path fill="none" stroke="midnightblue" d="M2152.12,-112.41C2062.81,-102.3 1915.44,-85.62 1826.36,-75.53"/>
<polygon fill="midnightblue" stroke="midnightblue" points="2151.85,-115.9 2162.18,-113.55 2152.63,-108.95 2151.85,-115.9"/>
</g>
<!-- Node19 -->
<g id="node19" class="node">
<title>Node19</title>
<g id="a_node19"><a xlink:href="Part_8hpp.html" target="_top" xlink:title=" ">
<polygon fill="white" stroke="black" points="1848.5,-56.5 1848.5,-75.5 1977.5,-75.5 1977.5,-56.5 1848.5,-56.5"/>
<text text-anchor="middle" x="1913" y="-63.5" font-family="Helvetica,sans-Serif" font-size="10.00">includes/cmds/Part.hpp</text>
</a>
</g>
</g>
<!-- Node5&#45;&gt;Node19 -->
<g id="edge19" class="edge">
<title>Node5&#45;&gt;Node19</title>
<path fill="none" stroke="midnightblue" d="M2168.08,-110.73C2108.55,-100.52 2018.34,-85.06 1962.68,-75.52"/>
<polygon fill="midnightblue" stroke="midnightblue" points="2167.64,-114.2 2178.09,-112.44 2168.82,-107.3 2167.64,-114.2"/>
</g>
<!-- Node20 -->
<g id="node20" class="node">
<title>Node20</title>
<g id="a_node20"><a xlink:href="cmds_2PrivMsg_8hpp.html" target="_top" xlink:title=" ">
<polygon fill="white" stroke="black" points="1995.5,-56.5 1995.5,-75.5 2144.5,-75.5 2144.5,-56.5 1995.5,-56.5"/>
<text text-anchor="middle" x="2070" y="-63.5" font-family="Helvetica,sans-Serif" font-size="10.00">includes/cmds/PrivMsg.hpp</text>
</a>
</g>
</g>
<!-- Node5&#45;&gt;Node20 -->
<g id="edge20" class="edge">
<title>Node5&#45;&gt;Node20</title>
<path fill="none" stroke="midnightblue" d="M2193.39,-109.17C2163.64,-99 2121.45,-84.59 2094.92,-75.52"/>
<polygon fill="midnightblue" stroke="midnightblue" points="2192.37,-112.52 2202.96,-112.44 2194.63,-105.9 2192.37,-112.52"/>
</g>
<!-- Node21 -->
<g id="node21" class="node">
<title>Node21</title>
<g id="a_node21"><a xlink:href="Quit_8hpp.html" target="_top" xlink:title=" ">
<polygon fill="white" stroke="black" points="2162.5,-56.5 2162.5,-75.5 2293.5,-75.5 2293.5,-56.5 2162.5,-56.5"/>
<text text-anchor="middle" x="2228" y="-63.5" font-family="Helvetica,sans-Serif" font-size="10.00">includes/cmds/Quit.hpp</text>
</a>
</g>
</g>
<!-- Node5&#45;&gt;Node21 -->
<g id="edge22" class="edge">
<title>Node5&#45;&gt;Node21</title>
<path fill="none" stroke="midnightblue" d="M2228,-101.8C2228,-92.91 2228,-82.78 2228,-75.75"/>
<polygon fill="midnightblue" stroke="midnightblue" points="2224.5,-102.08 2228,-112.08 2231.5,-102.08 2224.5,-102.08"/>
</g>
<!-- Node22 -->
<g id="node22" class="node">
<title>Node22</title>
<g id="a_node22"><a xlink:href="Status_8hpp.html" target="_top" xlink:title=" ">
<polygon fill="white" stroke="black" points="2311.5,-56.5 2311.5,-75.5 2452.5,-75.5 2452.5,-56.5 2311.5,-56.5"/>
<text text-anchor="middle" x="2382" y="-63.5" font-family="Helvetica,sans-Serif" font-size="10.00">includes/cmds/Status.hpp</text>
</a>
</g>
</g>
<!-- Node5&#45;&gt;Node22 -->
<g id="edge23" class="edge">
<title>Node5&#45;&gt;Node22</title>
<path fill="none" stroke="midnightblue" d="M2262.11,-109.04C2291.09,-98.88 2331.96,-84.55 2357.71,-75.52"/>
<polygon fill="midnightblue" stroke="midnightblue" points="2260.68,-105.83 2252.4,-112.44 2263,-112.44 2260.68,-105.83"/>
</g>
<!-- Node23 -->
<g id="node23" class="node">
<title>Node23</title>
<g id="a_node23"><a xlink:href="User_8hpp.html" target="_top" xlink:title=" ">
<polygon fill="white" stroke="black" points="2471,-56.5 2471,-75.5 2603,-75.5 2603,-56.5 2471,-56.5"/>
<text text-anchor="middle" x="2537" y="-63.5" font-family="Helvetica,sans-Serif" font-size="10.00">includes/cmds/User.hpp</text>
</a>
</g>
</g>
<!-- Node5&#45;&gt;Node23 -->
<g id="edge24" class="edge">
<title>Node5&#45;&gt;Node23</title>
<path fill="none" stroke="midnightblue" d="M2287.14,-110.66C2345.54,-100.46 2433.78,-85.04 2488.27,-75.52"/>
<polygon fill="midnightblue" stroke="midnightblue" points="2286.21,-107.27 2276.96,-112.44 2287.42,-114.17 2286.21,-107.27"/>
</g>
<!-- Node24 -->
<g id="node24" class="node">
<title>Node24</title>
<g id="a_node24"><a xlink:href="Who_8hpp.html" target="_top" xlink:title=" ">
<polygon fill="white" stroke="black" points="2621,-56.5 2621,-75.5 2753,-75.5 2753,-56.5 2621,-56.5"/>
<text text-anchor="middle" x="2687" y="-63.5" font-family="Helvetica,sans-Serif" font-size="10.00">includes/cmds/Who.hpp</text>
</a>
</g>
</g>
<!-- Node5&#45;&gt;Node24 -->
<g id="edge25" class="edge">
<title>Node5&#45;&gt;Node24</title>
<path fill="none" stroke="midnightblue" d="M2303.72,-112.19C2381.18,-103.16 2504.99,-88.69 2612,-76 2614.87,-75.66 2617.79,-75.31 2620.75,-74.96"/>
<polygon fill="midnightblue" stroke="midnightblue" points="2303.1,-108.74 2293.57,-113.37 2303.91,-115.69 2303.1,-108.74"/>
</g>
<!-- Node25 -->
<g id="node25" class="node">
<title>Node25</title>
<g id="a_node25"><a xlink:href="Whois_8hpp.html" target="_top" xlink:title=" ">
<polygon fill="white" stroke="black" points="2771,-56.5 2771,-75.5 2911,-75.5 2911,-56.5 2771,-56.5"/>
<text text-anchor="middle" x="2841" y="-63.5" font-family="Helvetica,sans-Serif" font-size="10.00">includes/cmds/Whois.hpp</text>
</a>
</g>
</g>
<!-- Node5&#45;&gt;Node25 -->
<g id="edge26" class="edge">
<title>Node5&#45;&gt;Node25</title>
<path fill="none" stroke="midnightblue" d="M2303.88,-115.31C2407.47,-107.38 2598.93,-92.16 2762,-76 2764.88,-75.71 2767.83,-75.41 2770.8,-75.11"/>
<polygon fill="midnightblue" stroke="midnightblue" points="2303.53,-111.83 2293.82,-116.08 2304.06,-118.81 2303.53,-111.83"/>
</g>
<!-- Node26 -->
<g id="node26" class="node">
<title>Node26</title>
<g id="a_node26"><a xlink:href="Ban_8hpp.html" target="_top" xlink:title=" ">
<polygon fill="white" stroke="black" points="2929.5,-56.5 2929.5,-75.5 3086.5,-75.5 3086.5,-56.5 2929.5,-56.5"/>
<text text-anchor="middle" x="3008" y="-63.5" font-family="Helvetica,sans-Serif" font-size="10.00">includes/commands/Ban.hpp</text>
</a>
</g>
</g>
<!-- Node5&#45;&gt;Node26 -->
<g id="edge27" class="edge">
<title>Node5&#45;&gt;Node26</title>
<path fill="none" stroke="midnightblue" d="M2303.94,-116.98C2431.38,-110.03 2696.31,-94.71 2920,-76 2923.06,-75.74 2926.18,-75.47 2929.33,-75.19"/>
<polygon fill="midnightblue" stroke="midnightblue" points="2303.69,-113.49 2293.9,-117.53 2304.07,-120.48 2303.69,-113.49"/>
</g>
<!-- Node27 -->
<g id="node27" class="node">
<title>Node27</title>
<g id="a_node27"><a xlink:href="Echo_8hpp.html" target="_top" xlink:title=" ">
<polygon fill="white" stroke="black" points="3104.5,-56.5 3104.5,-75.5 3265.5,-75.5 3265.5,-56.5 3104.5,-56.5"/>
<text text-anchor="middle" x="3185" y="-63.5" font-family="Helvetica,sans-Serif" font-size="10.00">includes/commands/Echo.hpp</text>
</a>
</g>
</g>
<!-- Node5&#45;&gt;Node27 -->
<g id="edge29" class="edge">
<title>Node5&#45;&gt;Node27</title>
<path fill="none" stroke="midnightblue" d="M2303.67,-118.29C2454.41,-112.62 2802.82,-98.18 3095,-76 3097.97,-75.77 3101,-75.53 3104.06,-75.28"/>
<polygon fill="midnightblue" stroke="midnightblue" points="2303.46,-114.8 2293.6,-118.67 2303.72,-121.79 2303.46,-114.8"/>
</g>
<!-- Node28 -->
<g id="node28" class="node">
<title>Node28</title>
<g id="a_node28"><a xlink:href="commands_2Exit_8hpp.html" target="_top" xlink:title=" ">
<polygon fill="white" stroke="black" points="3283.5,-56.5 3283.5,-75.5 3440.5,-75.5 3440.5,-56.5 3283.5,-56.5"/>
<text text-anchor="middle" x="3362" y="-63.5" font-family="Helvetica,sans-Serif" font-size="10.00">includes/commands/Exit.hpp</text>
</a>
</g>
</g>
<!-- Node5&#45;&gt;Node28 -->
<g id="edge31" class="edge">
<title>Node5&#45;&gt;Node28</title>
<path fill="none" stroke="midnightblue" d="M2303.79,-119.27C2476.25,-115 2911.13,-102.34 3274,-76 3277.06,-75.78 3280.19,-75.54 3283.34,-75.28"/>
<polygon fill="midnightblue" stroke="midnightblue" points="2303.47,-115.78 2293.56,-119.52 2303.64,-122.78 2303.47,-115.78"/>
</g>
<!-- Node29 -->
<g id="node29" class="node">
<title>Node29</title>
<g id="a_node29"><a xlink:href="commands_2Help_8hpp.html" target="_top" xlink:title=" ">
<polygon fill="white" stroke="black" points="3458.5,-56.5 3458.5,-75.5 3619.5,-75.5 3619.5,-56.5 3458.5,-56.5"/>
<text text-anchor="middle" x="3539" y="-63.5" font-family="Helvetica,sans-Serif" font-size="10.00">includes/commands/Help.hpp</text>
</a>
</g>
</g>
<!-- Node5&#45;&gt;Node29 -->
<g id="edge33" class="edge">
<title>Node5&#45;&gt;Node29</title>
<path fill="none" stroke="midnightblue" d="M2303.85,-119.86C2495.78,-116.62 3016.24,-105.58 3449,-76 3451.98,-75.8 3455.01,-75.57 3458.07,-75.34"/>
<polygon fill="midnightblue" stroke="midnightblue" points="2303.53,-116.37 2293.59,-120.03 2303.65,-123.36 2303.53,-116.37"/>
</g>
<!-- Node30 -->
<g id="node30" class="node">
<title>Node30</title>
<g id="a_node30"><a xlink:href="Info_8hpp.html" target="_top" xlink:title=" ">
<polygon fill="white" stroke="black" points="3637.5,-56.5 3637.5,-75.5 3794.5,-75.5 3794.5,-56.5 3637.5,-56.5"/>
<text text-anchor="middle" x="3716" y="-63.5" font-family="Helvetica,sans-Serif" font-size="10.00">includes/commands/Info.hpp</text>
</a>
</g>
</g>
<!-- Node5&#45;&gt;Node30 -->
<g id="edge35" class="edge">
<title>Node5&#45;&gt;Node30</title>
<path fill="none" stroke="midnightblue" d="M2303.69,-120.42C2513.99,-118.42 3123.1,-109.89 3628,-76 3631.06,-75.79 3634.19,-75.57 3637.34,-75.32"/>
<polygon fill="midnightblue" stroke="midnightblue" points="2303.65,-116.92 2293.68,-120.52 2303.72,-123.92 2303.65,-116.92"/>
</g>
<!-- Node31 -->
<g id="node31" class="node">
<title>Node31</title>
<g id="a_node31"><a xlink:href="Name_8hpp.html" target="_top" xlink:title=" ">
<polygon fill="white" stroke="black" points="3812.5,-56.5 3812.5,-75.5 3979.5,-75.5 3979.5,-56.5 3812.5,-56.5"/>
<text text-anchor="middle" x="3896" y="-63.5" font-family="Helvetica,sans-Serif" font-size="10.00">includes/commands/Name.hpp</text>
</a>
</g>
</g>
<!-- Node5&#45;&gt;Node31 -->
<g id="edge37" class="edge">
<title>Node5&#45;&gt;Node31</title>
<path fill="none" stroke="midnightblue" d="M2303.87,-120.66C2531.29,-119.24 3227.26,-112.04 3803,-76 3806.08,-75.81 3809.21,-75.59 3812.37,-75.36"/>
<polygon fill="midnightblue" stroke="midnightblue" points="2303.69,-117.16 2293.71,-120.72 2303.73,-124.16 2303.69,-117.16"/>
</g>
<!-- Node32 -->
<g id="node32" class="node">
<title>Node32</title>
<g id="a_node32"><a xlink:href="Ope_8hpp.html" target="_top" xlink:title=" ">
<polygon fill="white" stroke="black" points="3997,-56.5 3997,-75.5 4155,-75.5 4155,-56.5 3997,-56.5"/>
<text text-anchor="middle" x="4076" y="-63.5" font-family="Helvetica,sans-Serif" font-size="10.00">includes/commands/Ope.hpp</text>
</a>
</g>
</g>
<!-- Node5&#45;&gt;Node32 -->
<g id="edge39" class="edge">
<title>Node5&#45;&gt;Node32</title>
<path fill="none" stroke="midnightblue" d="M2303.79,-121.13C2548.12,-121.1 3336.95,-117.55 3988,-76 3990.91,-75.81 3993.88,-75.61 3996.87,-75.38"/>
<polygon fill="midnightblue" stroke="midnightblue" points="2303.61,-117.63 2293.61,-121.13 2303.61,-124.63 2303.61,-117.63"/>
</g>
<!-- Node33 -->
<g id="node33" class="node">
<title>Node33</title>
<g id="a_node33"><a xlink:href="commands_2Ping_8hpp.html" target="_top" xlink:title=" ">
<polygon fill="white" stroke="black" points="4172.5,-56.5 4172.5,-75.5 4331.5,-75.5 4331.5,-56.5 4172.5,-56.5"/>
<text text-anchor="middle" x="4252" y="-63.5" font-family="Helvetica,sans-Serif" font-size="10.00">includes/commands/Ping.hpp</text>
</a>
</g>
</g>
<!-- Node5&#45;&gt;Node33 -->
<g id="edge41" class="edge">
<title>Node5&#45;&gt;Node33</title>
<path fill="none" stroke="midnightblue" d="M2303.75,-121.38C2563.35,-122.22 3440.92,-121.31 4164,-76 4166.76,-75.83 4169.56,-75.63 4172.4,-75.42"/>
<polygon fill="midnightblue" stroke="midnightblue" points="2303.69,-117.88 2293.68,-121.34 2303.67,-124.88 2303.69,-117.88"/>
</g>
<!-- Node34 -->
<g id="node34" class="node">
<title>Node34</title>
<g id="a_node34"><a xlink:href="commands_2PrivMsg_8hpp.html" target="_top" xlink:title=" ">
<polygon fill="white" stroke="black" points="4349.5,-56.5 4349.5,-75.5 4526.5,-75.5 4526.5,-56.5 4349.5,-56.5"/>
<text text-anchor="middle" x="4438" y="-63.5" font-family="Helvetica,sans-Serif" font-size="10.00">includes/commands/PrivMsg.hpp</text>
</a>
</g>
</g>
<!-- Node5&#45;&gt;Node34 -->
<g id="edge43" class="edge">
<title>Node5&#45;&gt;Node34</title>
<path fill="none" stroke="midnightblue" d="M2304,-121.31C2578.54,-122.01 3544.66,-120.94 4340,-76 4343.07,-75.83 4346.19,-75.63 4349.35,-75.42"/>
<polygon fill="midnightblue" stroke="midnightblue" points="2303.77,-117.81 2293.76,-121.28 2303.75,-124.81 2303.77,-117.81"/>
</g>
<!-- Node11&#45;&gt;Node12 -->
<g id="edge11" class="edge">
<title>Node11&#45;&gt;Node12</title>
<path fill="none" stroke="midnightblue" d="M902.17,-56.02C1437.35,-19.72 3110.49,-12.2 3405.39,-11.15"/>
<polygon fill="midnightblue" stroke="midnightblue" points="901.79,-52.54 892.06,-56.72 902.27,-59.52 901.79,-52.54"/>
</g>
<!-- Node14&#45;&gt;Node12 -->
<g id="edge14" class="edge">
<title>Node14&#45;&gt;Node12</title>
<path fill="none" stroke="midnightblue" d="M1198.35,-56C1670.79,-23.54 3131.07,-12.99 3405.35,-11.27"/>
<polygon fill="midnightblue" stroke="midnightblue" points="1197.79,-52.53 1188.06,-56.73 1198.28,-59.52 1197.79,-52.53"/>
</g>
<!-- Node20&#45;&gt;Node12 -->
<g id="edge21" class="edge">
<title>Node20&#45;&gt;Node12</title>
<path fill="none" stroke="midnightblue" d="M2154.87,-55.92C2651.34,-20.86 3240.79,-12.95 3405.42,-11.36"/>
<polygon fill="midnightblue" stroke="midnightblue" points="2154.36,-52.45 2144.63,-56.65 2154.86,-59.43 2154.36,-52.45"/>
</g>
<!-- Node26&#45;&gt;Node12 -->
<g id="edge28" class="edge">
<title>Node26&#45;&gt;Node12</title>
<path fill="none" stroke="midnightblue" d="M3088.24,-55.2C3181.14,-43.85 3330.89,-25.55 3405.2,-16.47"/>
<polygon fill="midnightblue" stroke="midnightblue" points="3087.54,-51.76 3078.04,-56.44 3088.39,-58.7 3087.54,-51.76"/>
</g>
<!-- Node27&#45;&gt;Node12 -->
<g id="edge30" class="edge">
<title>Node27&#45;&gt;Node12</title>
<path fill="none" stroke="midnightblue" d="M3236.97,-54.41C3287.05,-44.2 3361.86,-28.96 3408.21,-19.52"/>
<polygon fill="midnightblue" stroke="midnightblue" points="3236.09,-51.02 3226.99,-56.44 3237.49,-57.88 3236.09,-51.02"/>
</g>
<!-- Node28&#45;&gt;Node12 -->
<g id="edge32" class="edge">
<title>Node28&#45;&gt;Node12</title>
<path fill="none" stroke="midnightblue" d="M3384.98,-50.9C3401.11,-41 3422.18,-28.07 3435.9,-19.65"/>
<polygon fill="midnightblue" stroke="midnightblue" points="3382.83,-48.11 3376.14,-56.32 3386.49,-54.08 3382.83,-48.11"/>
</g>
<!-- Node29&#45;&gt;Node12 -->
<g id="edge34" class="edge">
<title>Node29&#45;&gt;Node12</title>
<path fill="none" stroke="midnightblue" d="M3515.76,-50.9C3499.44,-41 3478.13,-28.07 3464.26,-19.65"/>
<polygon fill="midnightblue" stroke="midnightblue" points="3514.34,-54.13 3524.7,-56.32 3517.97,-48.14 3514.34,-54.13"/>
</g>
<!-- Node30&#45;&gt;Node12 -->
<g id="edge36" class="edge">
<title>Node30&#45;&gt;Node12</title>
<path fill="none" stroke="midnightblue" d="M3663.83,-54.41C3613.56,-44.2 3538.47,-28.96 3491.95,-19.52"/>
<polygon fill="midnightblue" stroke="midnightblue" points="3663.36,-57.88 3673.85,-56.44 3664.75,-51.02 3663.36,-57.88"/>
</g>
<!-- Node31&#45;&gt;Node12 -->
<g id="edge38" class="edge">
<title>Node31&#45;&gt;Node12</title>
<path fill="none" stroke="midnightblue" d="M3815.29,-55.23C3721.31,-43.85 3569.43,-25.46 3494.59,-16.4"/>
<polygon fill="midnightblue" stroke="midnightblue" points="3814.98,-58.72 3825.33,-56.44 3815.82,-51.77 3814.98,-58.72"/>
</g>
<!-- Node32&#45;&gt;Node12 -->
<g id="edge40" class="edge">
<title>Node32&#45;&gt;Node12</title>
<path fill="none" stroke="midnightblue" d="M3986.72,-55.9C3797.45,-38.39 3585.27,-21.53 3494.66,-14.46"/>
<polygon fill="midnightblue" stroke="midnightblue" points="3986.57,-59.4 3996.85,-56.84 3987.22,-52.43 3986.57,-59.4"/>
</g>
<!-- Node33&#45;&gt;Node12 -->
<g id="edge42" class="edge">
<title>Node33&#45;&gt;Node12</title>
<path fill="none" stroke="midnightblue" d="M4162.42,-55.9C3903.49,-34.7 3605.85,-18.84 3494.74,-13.21"/>
<polygon fill="midnightblue" stroke="midnightblue" points="4162.13,-59.39 4172.39,-56.72 4162.71,-52.41 4162.13,-59.39"/>
</g>
</g>
</svg>
        <g id="navigator" transform="translate(0 0)" fill="#404254">
                <rect fill="#f2f5e9" fill-opacity="0.5" stroke="#606060" stroke-width=".5" x="0" y="0" width="60" height="60"/>
                <use id="zoomplus" xlink:href="#zoomPlus" x="17" y="9" onmousedown="handleZoom(evt,'in')"/>
                <use id="zoomminus" xlink:href="#zoomMin" x="42" y="9" onmousedown="handleZoom(evt,'out')"/>
                <use id="reset" xlink:href="#resetDef" x="30" y="36" onmousedown="handleReset()"/>
                <g id="arrowUp" xlink:href="#dirArrow" transform="translate(30 24)" onmousedown="handlePan(0,-1)">
                  <use xlink:href="#rim" fill="#404040">
                        <set attributeName="fill" to="#808080" begin="arrowUp.mouseover" end="arrowUp.mouseout"/>
                  </use>
                  <path fill="none" stroke="white" stroke-width="1.5" d="M0,-3.0v7 M-2.5,-0.5L0,-3.0L2.5,-0.5"/>
                </g>
                <g id="arrowRight" xlink:href="#dirArrow" transform="rotate(90) translate(36 -43)" onmousedown="handlePan(1,0)">
                  <use xlink:href="#rim" fill="#404040">
                        <set attributeName="fill" to="#808080" begin="arrowRight.mouseover" end="arrowRight.mouseout"/>
                  </use>
                  <path fill="none" stroke="white" stroke-width="1.5" d="M0,-3.0v7 M-2.5,-0.5L0,-3.0L2.5,-0.5"/>
                </g>
                <g id="arrowDown" xlink:href="#dirArrow" transform="rotate(180) translate(-30 -48)" onmousedown="handlePan(0,1)">
                  <use xlink:href="#rim" fill="#404040">
                        <set attributeName="fill" to="#808080" begin="arrowDown.mouseover" end="arrowDown.mouseout"/>
                  </use>
                  <path fill="none" stroke="white" stroke-width="1.5" d="M0,-3.0v7 M-2.5,-0.5L0,-3.0L2.5,-0.5"/>
                </g>
                <g id="arrowLeft" xlink:href="#dirArrow" transform="rotate(270) translate(-36 17)" onmousedown="handlePan(-1,0)">
                  <use xlink:href="#rim" fill="#404040">
                        <set attributeName="fill" to="#808080" begin="arrowLeft.mouseover" end="arrowLeft.mouseout"/>
                  </use>
                  <path fill="none" stroke="white" stroke-width="1.5" d="M0,-3.0v7 M-2.5,-0.5L0,-3.0L2.5,-0.5"/>
                </g>
        </g>
        <svg viewBox="0 0 15 15" width="100%" height="30px" preserveAspectRatio="xMaxYMin meet">
         <g id="arrow_out" transform="scale(0.3 0.3)">
          <a xlink:href="Message_8hpp__dep__incl_org.svg" target="_base">
           <rect id="button" ry="5" rx="5" y="6" x="6" height="38" width="38"
                fill="#f2f5e9" fill-opacity="0.5" stroke="#606060" stroke-width="1.0"/>
           <path id="arrow"
             d="M 11.500037,31.436501 C 11.940474,20.09759 22.043105,11.32322 32.158766,21.979434 L 37.068811,17.246167 C 37.068811,17.246167 37.088388,32 37.088388,32 L 22.160133,31.978069 C 22.160133,31.978069 26.997745,27.140456 26.997745,27.140456 C 18.528582,18.264221 13.291696,25.230495 11.500037,31.436501 z"
             style="fill:#404040;"/>
          </a>
         </g>
        </svg>
</svg>
