<?xml version="1.0" encoding="UTF-8" standalone="no"?>
<!DOCTYPE svg PUBLIC "-//W3C//DTD SVG 1.1//EN"
 "http://www.w3.org/Graphics/SVG/1.1/DTD/svg11.dtd">
<!-- Generated by graphviz version 2.43.0 (0)
 -->
<!-- Title: srcs/server.cpp Pages: 1 -->
<svg width="1631pt" height="431pt"
 viewBox="0.00 0.00 1631.06 431.00" xmlns="http://www.w3.org/2000/svg" xmlns:xlink="http://www.w3.org/1999/xlink">
<g id="graph0" class="graph" transform="scale(1 1) rotate(0) translate(4 427)">
<title>srcs/server.cpp</title>
<polygon fill="white" stroke="transparent" points="-4,4 -4,-427 1627.06,-427 1627.06,4 -4,4"/>
<!-- Node1 -->
<g id="node1" class="node">
<title>Node1</title>
<g id="a_node1"><a xlink:title=" ">
<polygon fill="#bfbfbf" stroke="black" points="681.06,-403.5 681.06,-422.5 770.06,-422.5 770.06,-403.5 681.06,-403.5"/>
<text text-anchor="middle" x="725.56" y="-410.5" font-family="Helvetica,sans-Serif" font-size="10.00">srcs/server.cpp</text>
</a>
</g>
</g>
<!-- Node2 -->
<g id="node2" class="node">
<title>Node2</title>
<g id="a_node2"><a xlink:href="Server_8hpp.html" target="_top" xlink:title=" ">
<polygon fill="white" stroke="black" points="264.06,-224.5 264.06,-243.5 385.06,-243.5 385.06,-224.5 264.06,-224.5"/>
<text text-anchor="middle" x="324.56" y="-231.5" font-family="Helvetica,sans-Serif" font-size="10.00">../includes/Server.hpp</text>
</a>
</g>
</g>
<!-- Node1&#45;&gt;Node2 -->
<g id="edge1" class="edge">
<title>Node1&#45;&gt;Node2</title>
<path fill="none" stroke="midnightblue" d="M680.97,-410.83C528.99,-406.64 39.36,-391.3 16.56,-367 -57.96,-287.61 141.1,-253.75 253.55,-241.28"/>
<polygon fill="midnightblue" stroke="midnightblue" points="254.25,-244.72 263.82,-240.17 253.5,-237.76 254.25,-244.72"/>
</g>
<!-- Node24 -->
<g id="node24" class="node">
<title>Node24</title>
<g id="a_node24"><a xlink:href="Ban_8hpp.html" target="_top" xlink:title=" ">
<polygon fill="white" stroke="black" points="1218.06,-336.5 1218.06,-366.5 1341.06,-366.5 1341.06,-336.5 1218.06,-336.5"/>
<text text-anchor="start" x="1226.06" y="-354.5" font-family="Helvetica,sans-Serif" font-size="10.00">../includes/commands</text>
<text text-anchor="middle" x="1279.56" y="-343.5" font-family="Helvetica,sans-Serif" font-size="10.00">/Ban.hpp</text>
</a>
</g>
</g>
<!-- Node1&#45;&gt;Node24 -->
<g id="edge32" class="edge">
<title>Node1&#45;&gt;Node24</title>
<path fill="none" stroke="midnightblue" d="M770.37,-409.46C854.22,-404.34 1040.72,-391.3 1208.08,-366.95"/>
<polygon fill="midnightblue" stroke="midnightblue" points="1208.67,-370.4 1218.05,-365.49 1207.65,-363.48 1208.67,-370.4"/>
</g>
<!-- Node26 -->
<g id="node26" class="node">
<title>Node26</title>
<g id="a_node26"><a xlink:href="Echo_8hpp.html" target="_top" xlink:title=" ">
<polygon fill="white" stroke="black" points="1359.06,-336.5 1359.06,-366.5 1482.06,-366.5 1482.06,-336.5 1359.06,-336.5"/>
<text text-anchor="start" x="1367.06" y="-354.5" font-family="Helvetica,sans-Serif" font-size="10.00">../includes/commands</text>
<text text-anchor="middle" x="1420.56" y="-343.5" font-family="Helvetica,sans-Serif" font-size="10.00">/Echo.hpp</text>
</a>
</g>
</g>
<!-- Node1&#45;&gt;Node26 -->
<g id="edge35" class="edge">
<title>Node1&#45;&gt;Node26</title>
<path fill="none" stroke="midnightblue" d="M770.1,-410.82C871.3,-407.69 1126.37,-397.38 1348.58,-367.16"/>
<polygon fill="midnightblue" stroke="midnightblue" points="1349.37,-370.59 1358.8,-365.76 1348.41,-363.65 1349.37,-370.59"/>
</g>
<!-- Node27 -->
<g id="node27" class="node">
<title>Node27</title>
<g id="a_node27"><a xlink:href="commands_2Exit_8hpp.html" target="_top" xlink:title=" ">
<polygon fill="white" stroke="black" points="1500.06,-336.5 1500.06,-366.5 1623.06,-366.5 1623.06,-336.5 1500.06,-336.5"/>
<text text-anchor="start" x="1508.06" y="-354.5" font-family="Helvetica,sans-Serif" font-size="10.00">../includes/commands</text>
<text text-anchor="middle" x="1561.56" y="-343.5" font-family="Helvetica,sans-Serif" font-size="10.00">/Exit.hpp</text>
</a>
</g>
</g>
<!-- Node1&#45;&gt;Node27 -->
<g id="edge37" class="edge">
<title>Node1&#45;&gt;Node27</title>
<path fill="none" stroke="midnightblue" d="M770.24,-411.64C887.04,-410.23 1211.13,-403.19 1489.5,-367.15"/>
<polygon fill="midnightblue" stroke="midnightblue" points="1490.34,-370.57 1499.8,-365.8 1489.43,-363.63 1490.34,-370.57"/>
</g>
<!-- Node28 -->
<g id="node28" class="node">
<title>Node28</title>
<g id="a_node28"><a xlink:href="commands_2Help_8hpp.html" target="_top" xlink:title=" ">
<polygon fill="white" stroke="black" points="26.06,-336.5 26.06,-366.5 149.06,-366.5 149.06,-336.5 26.06,-336.5"/>
<text text-anchor="start" x="34.06" y="-354.5" font-family="Helvetica,sans-Serif" font-size="10.00">../includes/commands</text>
<text text-anchor="middle" x="87.56" y="-343.5" font-family="Helvetica,sans-Serif" font-size="10.00">/Help.hpp</text>
</a>
</g>
</g>
<!-- Node1&#45;&gt;Node28 -->
<g id="edge39" class="edge">
<title>Node1&#45;&gt;Node28</title>
<path fill="none" stroke="midnightblue" d="M680.79,-410.36C586.2,-406.48 358.92,-395.01 159.4,-367.16"/>
<polygon fill="midnightblue" stroke="midnightblue" points="159.71,-363.66 149.32,-365.73 158.73,-370.6 159.71,-363.66"/>
</g>
<!-- Node29 -->
<g id="node29" class="node">
<title>Node29</title>
<g id="a_node29"><a xlink:href="Info_8hpp.html" target="_top" xlink:title=" ">
<polygon fill="white" stroke="black" points="167.06,-336.5 167.06,-366.5 290.06,-366.5 290.06,-336.5 167.06,-336.5"/>
<text text-anchor="start" x="175.06" y="-354.5" font-family="Helvetica,sans-Serif" font-size="10.00">../includes/commands</text>
<text text-anchor="middle" x="228.56" y="-343.5" font-family="Helvetica,sans-Serif" font-size="10.00">/Info.hpp</text>
</a>
</g>
</g>
<!-- Node1&#45;&gt;Node29 -->
<g id="edge41" class="edge">
<title>Node1&#45;&gt;Node29</title>
<path fill="none" stroke="midnightblue" d="M680.8,-408.75C604.59,-402.91 444.6,-389.24 300.26,-367.18"/>
<polygon fill="midnightblue" stroke="midnightblue" points="300.75,-363.71 290.33,-365.64 299.68,-370.63 300.75,-363.71"/>
</g>
<!-- Node30 -->
<g id="node30" class="node">
<title>Node30</title>
<g id="a_node30"><a xlink:href="Name_8hpp.html" target="_top" xlink:title=" ">
<polygon fill="white" stroke="black" points="308.06,-336.5 308.06,-366.5 431.06,-366.5 431.06,-336.5 308.06,-336.5"/>
<text text-anchor="start" x="316.06" y="-354.5" font-family="Helvetica,sans-Serif" font-size="10.00">../includes/commands</text>
<text text-anchor="middle" x="369.56" y="-343.5" font-family="Helvetica,sans-Serif" font-size="10.00">/Name.hpp</text>
</a>
</g>
</g>
<!-- Node1&#45;&gt;Node30 -->
<g id="edge43" class="edge">
<title>Node1&#45;&gt;Node30</title>
<path fill="none" stroke="midnightblue" d="M680.86,-405.65C626.46,-397.77 531.58,-383.54 441.22,-367.26"/>
<polygon fill="midnightblue" stroke="midnightblue" points="441.83,-363.81 431.36,-365.47 440.58,-370.7 441.83,-363.81"/>
</g>
<!-- Node31 -->
<g id="node31" class="node">
<title>Node31</title>
<g id="a_node31"><a xlink:href="Ope_8hpp.html" target="_top" xlink:title=" ">
<polygon fill="white" stroke="black" points="449.06,-336.5 449.06,-366.5 572.06,-366.5 572.06,-336.5 449.06,-336.5"/>
<text text-anchor="start" x="457.06" y="-354.5" font-family="Helvetica,sans-Serif" font-size="10.00">../includes/commands</text>
<text text-anchor="middle" x="510.56" y="-343.5" font-family="Helvetica,sans-Serif" font-size="10.00">/Ope.hpp</text>
</a>
</g>
</g>
<!-- Node1&#45;&gt;Node31 -->
<g id="edge45" class="edge">
<title>Node1&#45;&gt;Node31</title>
<path fill="none" stroke="midnightblue" d="M694.75,-403.48C662.57,-394.57 611.26,-380.37 570.96,-369.22"/>
<polygon fill="midnightblue" stroke="midnightblue" points="571.8,-365.82 561.23,-366.52 569.93,-372.56 571.8,-365.82"/>
</g>
<!-- Node32 -->
<g id="node32" class="node">
<title>Node32</title>
<g id="a_node32"><a xlink:href="commands_2Ping_8hpp.html" target="_top" xlink:title=" ">
<polygon fill="white" stroke="black" points="590.06,-336.5 590.06,-366.5 713.06,-366.5 713.06,-336.5 590.06,-336.5"/>
<text text-anchor="start" x="598.06" y="-354.5" font-family="Helvetica,sans-Serif" font-size="10.00">../includes/commands</text>
<text text-anchor="middle" x="651.56" y="-343.5" font-family="Helvetica,sans-Serif" font-size="10.00">/Ping.hpp</text>
</a>
</g>
</g>
<!-- Node1&#45;&gt;Node32 -->
<g id="edge47" class="edge">
<title>Node1&#45;&gt;Node32</title>
<path fill="none" stroke="midnightblue" d="M714.95,-403.48C705.12,-395.57 690.09,-383.48 677.14,-373.07"/>
<polygon fill="midnightblue" stroke="midnightblue" points="678.98,-370.06 669,-366.52 674.6,-375.52 678.98,-370.06"/>
</g>
<!-- Node33 -->
<g id="node33" class="node">
<title>Node33</title>
<g id="a_node33"><a xlink:href="Join_8hpp.html" target="_top" xlink:title=" ">
<polygon fill="white" stroke="black" points="731.06,-342 731.06,-361 868.06,-361 868.06,-342 731.06,-342"/>
<text text-anchor="middle" x="799.56" y="-349" font-family="Helvetica,sans-Serif" font-size="10.00">../includes/cmds/Join.hpp</text>
</a>
</g>
</g>
<!-- Node1&#45;&gt;Node33 -->
<g id="edge49" class="edge">
<title>Node1&#45;&gt;Node33</title>
<path fill="none" stroke="midnightblue" d="M736.16,-403.48C747.81,-394.11 766.74,-378.88 780.89,-367.51"/>
<polygon fill="midnightblue" stroke="midnightblue" points="783.37,-370 788.97,-361.01 778.99,-364.55 783.37,-370"/>
</g>
<!-- Node34 -->
<g id="node34" class="node">
<title>Node34</title>
<g id="a_node34"><a xlink:href="List_8hpp.html" target="_top" xlink:title=" ">
<polygon fill="white" stroke="black" points="886.06,-342 886.06,-361 1023.06,-361 1023.06,-342 886.06,-342"/>
<text text-anchor="middle" x="954.56" y="-349" font-family="Helvetica,sans-Serif" font-size="10.00">../includes/cmds/List.hpp</text>
</a>
</g>
</g>
<!-- Node1&#45;&gt;Node34 -->
<g id="edge51" class="edge">
<title>Node1&#45;&gt;Node34</title>
<path fill="none" stroke="midnightblue" d="M758.37,-403.48C798.75,-392.98 867.43,-375.14 911.89,-363.59"/>
<polygon fill="midnightblue" stroke="midnightblue" points="913.01,-366.91 921.81,-361.01 911.25,-360.14 913.01,-366.91"/>
</g>
<!-- Node35 -->
<g id="node35" class="node">
<title>Node35</title>
<g id="a_node35"><a xlink:href="cmds_2PrivMsg_8hpp.html" target="_top" xlink:title=" ">
<polygon fill="white" stroke="black" points="1041.56,-342 1041.56,-361 1199.56,-361 1199.56,-342 1041.56,-342"/>
<text text-anchor="middle" x="1120.56" y="-349" font-family="Helvetica,sans-Serif" font-size="10.00">../includes/cmds/PrivMsg.hpp</text>
</a>
</g>
</g>
<!-- Node1&#45;&gt;Node35 -->
<g id="edge53" class="edge">
<title>Node1&#45;&gt;Node35</title>
<path fill="none" stroke="midnightblue" d="M770.08,-405.73C829.84,-397.25 939.28,-381.52 1032.56,-367 1041.34,-365.63 1050.61,-364.15 1059.7,-362.67"/>
<polygon fill="midnightblue" stroke="midnightblue" points="1060.55,-366.08 1069.86,-361.01 1059.42,-359.17 1060.55,-366.08"/>
</g>
<!-- Node3 -->
<g id="node3" class="node">
<title>Node3</title>
<g id="a_node3"><a xlink:title=" ">
<polygon fill="white" stroke="#bfbfbf" points="40.06,-168.5 40.06,-187.5 109.06,-187.5 109.06,-168.5 40.06,-168.5"/>
<text text-anchor="middle" x="74.56" y="-175.5" font-family="Helvetica,sans-Serif" font-size="10.00">arpa/inet.h</text>
</a>
</g>
</g>
<!-- Node2&#45;&gt;Node3 -->
<g id="edge2" class="edge">
<title>Node2&#45;&gt;Node3</title>
<path fill="none" stroke="midnightblue" d="M284.94,-224.44C239.79,-214.69 166.17,-198.79 119.07,-188.62"/>
<polygon fill="midnightblue" stroke="midnightblue" points="119.67,-185.16 109.15,-186.47 118.19,-192.01 119.67,-185.16"/>
</g>
<!-- Node4 -->
<g id="node4" class="node">
<title>Node4</title>
<g id="a_node4"><a xlink:title=" ">
<polygon fill="white" stroke="#bfbfbf" points="127.06,-168.5 127.06,-187.5 176.06,-187.5 176.06,-168.5 127.06,-168.5"/>
<text text-anchor="middle" x="151.56" y="-175.5" font-family="Helvetica,sans-Serif" font-size="10.00">cstdlib</text>
</a>
</g>
</g>
<!-- Node2&#45;&gt;Node4 -->
<g id="edge3" class="edge">
<title>Node2&#45;&gt;Node4</title>
<path fill="none" stroke="midnightblue" d="M297.14,-224.44C267.01,-215.04 218.55,-199.91 185.9,-189.72"/>
<polygon fill="midnightblue" stroke="midnightblue" points="186.91,-186.37 176.32,-186.73 184.82,-193.05 186.91,-186.37"/>
</g>
<!-- Node5 -->
<g id="node5" class="node">
<title>Node5</title>
<g id="a_node5"><a xlink:title=" ">
<polygon fill="white" stroke="#bfbfbf" points="194.06,-168.5 194.06,-187.5 241.06,-187.5 241.06,-168.5 194.06,-168.5"/>
<text text-anchor="middle" x="217.56" y="-175.5" font-family="Helvetica,sans-Serif" font-size="10.00">fcntl.h</text>
</a>
</g>
</g>
<!-- Node2&#45;&gt;Node5 -->
<g id="edge4" class="edge">
<title>Node2&#45;&gt;Node5</title>
<path fill="none" stroke="midnightblue" d="M307.36,-224.32C290.21,-215.66 263.61,-202.24 243.81,-192.25"/>
<polygon fill="midnightblue" stroke="midnightblue" points="245.21,-189.04 234.7,-187.65 242.06,-195.28 245.21,-189.04"/>
</g>
<!-- Node6 -->
<g id="node6" class="node">
<title>Node6</title>
<g id="a_node6"><a xlink:title=" ">
<polygon fill="white" stroke="#bfbfbf" points="267.56,-0.5 267.56,-19.5 311.56,-19.5 311.56,-0.5 267.56,-0.5"/>
<text text-anchor="middle" x="289.56" y="-7.5" font-family="Helvetica,sans-Serif" font-size="10.00">string</text>
</a>
</g>
</g>
<!-- Node2&#45;&gt;Node6 -->
<g id="edge5" class="edge">
<title>Node2&#45;&gt;Node6</title>
<path fill="none" stroke="midnightblue" d="M318.05,-224.42C305.84,-207.73 279.88,-169.22 270.56,-132 261.55,-96.05 273.62,-52.96 282.23,-29.12"/>
<polygon fill="midnightblue" stroke="midnightblue" points="285.57,-30.21 285.86,-19.61 279.03,-27.71 285.57,-30.21"/>
</g>
<!-- Node7 -->
<g id="node7" class="node">
<title>Node7</title>
<g id="a_node7"><a xlink:href="Channel_8hpp.html" target="_top" xlink:title=" ">
<polygon fill="white" stroke="black" points="381.06,-168.5 381.06,-187.5 464.06,-187.5 464.06,-168.5 381.06,-168.5"/>
<text text-anchor="middle" x="422.56" y="-175.5" font-family="Helvetica,sans-Serif" font-size="10.00">./Channel.hpp</text>
</a>
</g>
</g>
<!-- Node2&#45;&gt;Node7 -->
<g id="edge6" class="edge">
<title>Node2&#45;&gt;Node7</title>
<path fill="none" stroke="midnightblue" d="M340.3,-224.32C355.87,-215.74 379.93,-202.49 398.02,-192.52"/>
<polygon fill="midnightblue" stroke="midnightblue" points="399.78,-195.55 406.85,-187.65 396.4,-189.42 399.78,-195.55"/>
</g>
<!-- Node8 -->
<g id="node8" class="node">
<title>Node8</title>
<g id="a_node8"><a xlink:href="Client_8hpp.html" target="_top" xlink:title=" ">
<polygon fill="white" stroke="black" points="551.56,-112.5 551.56,-131.5 623.56,-131.5 623.56,-112.5 551.56,-112.5"/>
<text text-anchor="middle" x="587.56" y="-119.5" font-family="Helvetica,sans-Serif" font-size="10.00">./Client.hpp</text>
</a>
</g>
</g>
<!-- Node2&#45;&gt;Node8 -->
<g id="edge26" class="edge">
<title>Node2&#45;&gt;Node8</title>
<path fill="none" stroke="midnightblue" d="M360.32,-224.48C390.78,-216.67 435.4,-203.92 472.56,-188 506.65,-173.39 543.56,-151.3 566.12,-137.01"/>
<polygon fill="midnightblue" stroke="midnightblue" points="568.06,-139.93 574.59,-131.59 564.28,-134.04 568.06,-139.93"/>
</g>
<!-- Node20 -->
<g id="node20" class="node">
<title>Node20</title>
<g id="a_node20"><a xlink:href="config_8hpp.html" target="_top" xlink:title=" ">
<polygon fill="white" stroke="black" points="1088.06,-56.5 1088.06,-75.5 1161.06,-75.5 1161.06,-56.5 1088.06,-56.5"/>
<text text-anchor="middle" x="1124.56" y="-63.5" font-family="Helvetica,sans-Serif" font-size="10.00">./config.hpp</text>
</a>
</g>
</g>
<!-- Node2&#45;&gt;Node20 -->
<g id="edge28" class="edge">
<title>Node2&#45;&gt;Node20</title>
<path fill="none" stroke="midnightblue" d="M365.61,-224.48C501.2,-196.35 934.25,-106.49 1077.82,-76.7"/>
<polygon fill="midnightblue" stroke="midnightblue" points="1078.56,-80.12 1087.64,-74.66 1077.14,-73.26 1078.56,-80.12"/>
</g>
<!-- Node22 -->
<g id="node22" class="node">
<title>Node22</title>
<g id="a_node22"><a xlink:href="Color_8hpp.html" target="_top" xlink:title=" ">
<polygon fill="white" stroke="black" points="679.56,-168.5 679.56,-187.5 747.56,-187.5 747.56,-168.5 679.56,-168.5"/>
<text text-anchor="middle" x="713.56" y="-175.5" font-family="Helvetica,sans-Serif" font-size="10.00">./Color.hpp</text>
</a>
</g>
</g>
<!-- Node2&#45;&gt;Node22 -->
<g id="edge27" class="edge">
<title>Node2&#45;&gt;Node22</title>
<path fill="none" stroke="midnightblue" d="M385.07,-226.02C453.35,-217.91 567.67,-203.62 665.56,-188 666.83,-187.8 668.12,-187.59 669.42,-187.37"/>
<polygon fill="midnightblue" stroke="midnightblue" points="670.25,-190.78 679.51,-185.62 669.06,-183.88 670.25,-190.78"/>
</g>
<!-- Node23 -->
<g id="node23" class="node">
<title>Node23</title>
<g id="a_node23"><a xlink:href="functions_8hpp.html" target="_top" xlink:title=" ">
<polygon fill="white" stroke="black" points="280.06,-112.5 280.06,-131.5 369.06,-131.5 369.06,-112.5 280.06,-112.5"/>
<text text-anchor="middle" x="324.56" y="-119.5" font-family="Helvetica,sans-Serif" font-size="10.00">./functions.hpp</text>
</a>
</g>
</g>
<!-- Node2&#45;&gt;Node23 -->
<g id="edge29" class="edge">
<title>Node2&#45;&gt;Node23</title>
<path fill="none" stroke="midnightblue" d="M324.56,-224.37C324.56,-206.62 324.56,-165.67 324.56,-141.6"/>
<polygon fill="midnightblue" stroke="midnightblue" points="328.06,-141.59 324.56,-131.59 321.06,-141.59 328.06,-141.59"/>
</g>
<!-- Node7&#45;&gt;Node8 -->
<g id="edge7" class="edge">
<title>Node7&#45;&gt;Node8</title>
<path fill="none" stroke="midnightblue" d="M448.7,-168.44C476.58,-159.32 520.9,-144.81 551.96,-134.65"/>
<polygon fill="midnightblue" stroke="midnightblue" points="553.12,-137.95 561.53,-131.52 550.94,-131.3 553.12,-137.95"/>
</g>
<!-- Node14 -->
<g id="node14" class="node">
<title>Node14</title>
<g id="a_node14"><a xlink:title=" ">
<polygon fill="white" stroke="#bfbfbf" points="318.06,-56.5 318.06,-75.5 365.06,-75.5 365.06,-56.5 318.06,-56.5"/>
<text text-anchor="middle" x="341.56" y="-63.5" font-family="Helvetica,sans-Serif" font-size="10.00">vector</text>
</a>
</g>
</g>
<!-- Node7&#45;&gt;Node14 -->
<g id="edge25" class="edge">
<title>Node7&#45;&gt;Node14</title>
<path fill="none" stroke="midnightblue" d="M416.91,-168.45C408.57,-155.9 392.31,-131.81 377.56,-112 370.46,-102.47 362.2,-92.1 355.38,-83.72"/>
<polygon fill="midnightblue" stroke="midnightblue" points="357.96,-81.34 348.91,-75.82 352.54,-85.77 357.96,-81.34"/>
</g>
<!-- Node21 -->
<g id="node21" class="node">
<title>Node21</title>
<g id="a_node21"><a xlink:title=" ">
<polygon fill="white" stroke="#bfbfbf" points="425.56,-112.5 425.56,-131.5 469.56,-131.5 469.56,-112.5 425.56,-112.5"/>
<text text-anchor="middle" x="447.56" y="-119.5" font-family="Helvetica,sans-Serif" font-size="10.00">ctime</text>
</a>
</g>
</g>
<!-- Node7&#45;&gt;Node21 -->
<g id="edge24" class="edge">
<title>Node7&#45;&gt;Node21</title>
<path fill="none" stroke="midnightblue" d="M426.68,-168.08C430.07,-160.77 434.97,-150.18 439.17,-141.1"/>
<polygon fill="midnightblue" stroke="midnightblue" points="442.48,-142.3 443.5,-131.75 436.13,-139.36 442.48,-142.3"/>
</g>
<!-- Node9 -->
<g id="node9" class="node">
<title>Node9</title>
<g id="a_node9"><a xlink:title=" ">
<polygon fill="white" stroke="#bfbfbf" points="804.56,-0.5 804.56,-19.5 854.56,-19.5 854.56,-0.5 804.56,-0.5"/>
<text text-anchor="middle" x="829.56" y="-7.5" font-family="Helvetica,sans-Serif" font-size="10.00">cstring</text>
</a>
</g>
</g>
<!-- Node8&#45;&gt;Node9 -->
<g id="edge8" class="edge">
<title>Node8&#45;&gt;Node9</title>
<path fill="none" stroke="midnightblue" d="M623.82,-114.08C628.43,-113.32 633.1,-112.6 637.56,-112 682.11,-106.01 1010.21,-109.17 1040.56,-76 1091.84,-19.93 937.16,-11.72 864.75,-10.87"/>
<polygon fill="midnightblue" stroke="midnightblue" points="864.73,-7.37 854.7,-10.79 864.68,-14.37 864.73,-7.37"/>
</g>
<!-- Node10 -->
<g id="node10" class="node">
<title>Node10</title>
<g id="a_node10"><a xlink:title=" ">
<polygon fill="white" stroke="#bfbfbf" points="383.56,-0.5 383.56,-19.5 443.56,-19.5 443.56,-0.5 383.56,-0.5"/>
<text text-anchor="middle" x="413.56" y="-7.5" font-family="Helvetica,sans-Serif" font-size="10.00">iostream</text>
</a>
</g>
</g>
<!-- Node8&#45;&gt;Node10 -->
<g id="edge9" class="edge">
<title>Node8&#45;&gt;Node10</title>
<path fill="none" stroke="midnightblue" d="M551.53,-116.9C505.41,-110.83 429.42,-97.75 412.56,-76 402.42,-62.92 404.22,-43.5 407.61,-29.3"/>
<polygon fill="midnightblue" stroke="midnightblue" points="410.99,-30.21 410.34,-19.64 404.25,-28.31 410.99,-30.21"/>
</g>
<!-- Node11 -->
<g id="node11" class="node">
<title>Node11</title>
<g id="a_node11"><a xlink:title=" ">
<polygon fill="white" stroke="#bfbfbf" points="482.56,-0.5 482.56,-19.5 520.56,-19.5 520.56,-0.5 482.56,-0.5"/>
<text text-anchor="middle" x="501.56" y="-7.5" font-family="Helvetica,sans-Serif" font-size="10.00">map</text>
</a>
</g>
</g>
<!-- Node8&#45;&gt;Node11 -->
<g id="edge10" class="edge">
<title>Node8&#45;&gt;Node11</title>
<path fill="none" stroke="midnightblue" d="M580.81,-112.37C566.55,-94.14 533.16,-51.43 514.59,-27.68"/>
<polygon fill="midnightblue" stroke="midnightblue" points="517.19,-25.31 508.27,-19.59 511.67,-29.63 517.19,-25.31"/>
</g>
<!-- Node12 -->
<g id="node12" class="node">
<title>Node12</title>
<g id="a_node12"><a xlink:title=" ">
<polygon fill="white" stroke="#bfbfbf" points="565.56,-56.5 565.56,-75.5 609.56,-75.5 609.56,-56.5 565.56,-56.5"/>
<text text-anchor="middle" x="587.56" y="-63.5" font-family="Helvetica,sans-Serif" font-size="10.00">poll.h</text>
</a>
</g>
</g>
<!-- Node8&#45;&gt;Node12 -->
<g id="edge11" class="edge">
<title>Node8&#45;&gt;Node12</title>
<path fill="none" stroke="midnightblue" d="M587.56,-112.08C587.56,-105.01 587.56,-94.86 587.56,-85.99"/>
<polygon fill="midnightblue" stroke="midnightblue" points="591.06,-85.75 587.56,-75.75 584.06,-85.75 591.06,-85.75"/>
</g>
<!-- Node13 -->
<g id="node13" class="node">
<title>Node13</title>
<g id="a_node13"><a xlink:title=" ">
<polygon fill="white" stroke="#bfbfbf" points="627.56,-56.5 627.56,-75.5 683.56,-75.5 683.56,-56.5 627.56,-56.5"/>
<text text-anchor="middle" x="655.56" y="-63.5" font-family="Helvetica,sans-Serif" font-size="10.00">unistd.h</text>
</a>
</g>
</g>
<!-- Node8&#45;&gt;Node13 -->
<g id="edge12" class="edge">
<title>Node8&#45;&gt;Node13</title>
<path fill="none" stroke="midnightblue" d="M598.48,-112.32C608.73,-104.18 624.28,-91.84 636.56,-82.09"/>
<polygon fill="midnightblue" stroke="midnightblue" points="638.78,-84.79 644.43,-75.83 634.42,-79.31 638.78,-84.79"/>
</g>
<!-- Node8&#45;&gt;Node14 -->
<g id="edge13" class="edge">
<title>Node8&#45;&gt;Node14</title>
<path fill="none" stroke="midnightblue" d="M551.44,-113.41C509.91,-104.63 439.73,-89.63 379.56,-76 378.11,-75.67 376.63,-75.33 375.14,-74.99"/>
<polygon fill="midnightblue" stroke="midnightblue" points="375.79,-71.55 365.26,-72.69 374.2,-78.37 375.79,-71.55"/>
</g>
<!-- Node15 -->
<g id="node15" class="node">
<title>Node15</title>
<g id="a_node15"><a xlink:title=" ">
<polygon fill="white" stroke="#bfbfbf" points="702.06,-56.5 702.06,-75.5 755.06,-75.5 755.06,-56.5 702.06,-56.5"/>
<text text-anchor="middle" x="728.56" y="-63.5" font-family="Helvetica,sans-Serif" font-size="10.00">netdb.h</text>
</a>
</g>
</g>
<!-- Node8&#45;&gt;Node15 -->
<g id="edge14" class="edge">
<title>Node8&#45;&gt;Node15</title>
<path fill="none" stroke="midnightblue" d="M609.9,-112.44C633.31,-103.48 670.29,-89.31 696.75,-79.18"/>
<polygon fill="midnightblue" stroke="midnightblue" points="698.23,-82.36 706.32,-75.52 695.73,-75.82 698.23,-82.36"/>
</g>
<!-- Node16 -->
<g id="node16" class="node">
<title>Node16</title>
<g id="a_node16"><a xlink:title=" ">
<polygon fill="white" stroke="#bfbfbf" points="773.56,-56.5 773.56,-75.5 845.56,-75.5 845.56,-56.5 773.56,-56.5"/>
<text text-anchor="middle" x="809.56" y="-63.5" font-family="Helvetica,sans-Serif" font-size="10.00">netinet/in.h</text>
</a>
</g>
</g>
<!-- Node8&#45;&gt;Node16 -->
<g id="edge15" class="edge">
<title>Node8&#45;&gt;Node16</title>
<path fill="none" stroke="midnightblue" d="M622.73,-112.44C661.14,-103.1 722.73,-88.12 764.61,-77.93"/>
<polygon fill="midnightblue" stroke="midnightblue" points="765.65,-81.28 774.54,-75.52 764,-74.48 765.65,-81.28"/>
</g>
<!-- Node17 -->
<g id="node17" class="node">
<title>Node17</title>
<g id="a_node17"><a xlink:title=" ">
<polygon fill="white" stroke="#bfbfbf" points="864.06,-56.5 864.06,-75.5 941.06,-75.5 941.06,-56.5 864.06,-56.5"/>
<text text-anchor="middle" x="902.56" y="-63.5" font-family="Helvetica,sans-Serif" font-size="10.00">sys/socket.h</text>
</a>
</g>
</g>
<!-- Node8&#45;&gt;Node17 -->
<g id="edge16" class="edge">
<title>Node8&#45;&gt;Node17</title>
<path fill="none" stroke="midnightblue" d="M623.6,-114.45C628.29,-113.62 633.04,-112.78 637.56,-112 730.78,-95.88 756.64,-93.17 853.84,-76.09"/>
<polygon fill="midnightblue" stroke="midnightblue" points="854.56,-79.52 863.8,-74.34 853.34,-72.63 854.56,-79.52"/>
</g>
<!-- Node18 -->
<g id="node18" class="node">
<title>Node18</title>
<g id="a_node18"><a xlink:title=" ">
<polygon fill="white" stroke="#bfbfbf" points="959.56,-56.5 959.56,-75.5 1031.56,-75.5 1031.56,-56.5 959.56,-56.5"/>
<text text-anchor="middle" x="995.56" y="-63.5" font-family="Helvetica,sans-Serif" font-size="10.00">sys/types.h</text>
</a>
</g>
</g>
<!-- Node8&#45;&gt;Node18 -->
<g id="edge17" class="edge">
<title>Node8&#45;&gt;Node18</title>
<path fill="none" stroke="midnightblue" d="M623.56,-114.24C628.26,-113.44 633.02,-112.67 637.56,-112 772.84,-92.06 810.48,-97.48 949.1,-76.11"/>
<polygon fill="midnightblue" stroke="midnightblue" points="949.91,-79.53 959.25,-74.53 948.83,-72.61 949.91,-79.53"/>
</g>
<!-- Node19 -->
<g id="node19" class="node">
<title>Node19</title>
<g id="a_node19"><a xlink:href="Message_8hpp.html" target="_top" xlink:title=" ">
<polygon fill="white" stroke="black" points="422.06,-56.5 422.06,-75.5 509.06,-75.5 509.06,-56.5 422.06,-56.5"/>
<text text-anchor="middle" x="465.56" y="-63.5" font-family="Helvetica,sans-Serif" font-size="10.00">./Message.hpp</text>
</a>
</g>
</g>
<!-- Node8&#45;&gt;Node19 -->
<g id="edge18" class="edge">
<title>Node8&#45;&gt;Node19</title>
<path fill="none" stroke="midnightblue" d="M568.22,-112.44C548.24,-103.6 516.81,-89.69 493.99,-79.59"/>
<polygon fill="midnightblue" stroke="midnightblue" points="495.36,-76.36 484.8,-75.52 492.52,-82.76 495.36,-76.36"/>
</g>
<!-- Node8&#45;&gt;Node20 -->
<g id="edge23" class="edge">
<title>Node8&#45;&gt;Node20</title>
<path fill="none" stroke="midnightblue" d="M623.81,-114.05C628.43,-113.29 633.1,-112.58 637.56,-112 830.35,-86.75 880.72,-100.92 1073.56,-76 1075.01,-75.81 1076.48,-75.61 1077.96,-75.4"/>
<polygon fill="midnightblue" stroke="midnightblue" points="1078.49,-78.86 1087.85,-73.9 1077.43,-71.94 1078.49,-78.86"/>
</g>
<!-- Node19&#45;&gt;Node6 -->
<g id="edge22" class="edge">
<title>Node19&#45;&gt;Node6</title>
<path fill="none" stroke="midnightblue" d="M437.67,-56.44C406.05,-46.74 354.58,-30.95 321.41,-20.77"/>
<polygon fill="midnightblue" stroke="midnightblue" points="322.33,-17.39 311.74,-17.81 320.27,-24.09 322.33,-17.39"/>
</g>
<!-- Node19&#45;&gt;Node9 -->
<g id="edge19" class="edge">
<title>Node19&#45;&gt;Node9</title>
<path fill="none" stroke="midnightblue" d="M509.1,-58.54C582,-47.72 727.34,-26.16 794.29,-16.23"/>
<polygon fill="midnightblue" stroke="midnightblue" points="794.96,-19.67 804.34,-14.74 793.94,-12.75 794.96,-19.67"/>
</g>
<!-- Node19&#45;&gt;Node10 -->
<g id="edge20" class="edge">
<title>Node19&#45;&gt;Node10</title>
<path fill="none" stroke="midnightblue" d="M456.97,-56.08C449.4,-48.22 438.18,-36.57 429.04,-27.08"/>
<polygon fill="midnightblue" stroke="midnightblue" points="431.44,-24.53 421.98,-19.75 426.4,-29.38 431.44,-24.53"/>
</g>
<!-- Node19&#45;&gt;Node11 -->
<g id="edge21" class="edge">
<title>Node19&#45;&gt;Node11</title>
<path fill="none" stroke="midnightblue" d="M471.5,-56.08C476.53,-48.53 483.89,-37.49 490.07,-28.23"/>
<polygon fill="midnightblue" stroke="midnightblue" points="493.09,-30.01 495.72,-19.75 487.26,-26.13 493.09,-30.01"/>
</g>
<!-- Node23&#45;&gt;Node6 -->
<g id="edge30" class="edge">
<title>Node23&#45;&gt;Node6</title>
<path fill="none" stroke="midnightblue" d="M321.34,-112.42C318,-103.41 312.69,-88.78 308.56,-76 303.52,-60.44 298.35,-42.61 294.68,-29.56"/>
<polygon fill="midnightblue" stroke="midnightblue" points="298.03,-28.57 291.98,-19.88 291.29,-30.45 298.03,-28.57"/>
</g>
<!-- Node23&#45;&gt;Node14 -->
<g id="edge31" class="edge">
<title>Node23&#45;&gt;Node14</title>
<path fill="none" stroke="midnightblue" d="M327.36,-112.08C329.64,-104.85 332.93,-94.41 335.76,-85.4"/>
<polygon fill="midnightblue" stroke="midnightblue" points="339.14,-86.34 338.8,-75.75 332.46,-84.24 339.14,-86.34"/>
</g>
<!-- Node25 -->
<g id="node25" class="node">
<title>Node25</title>
<g id="a_node25"><a xlink:href="Command_8hpp.html" target="_top" xlink:title=" ">
<polygon fill="white" stroke="black" points="677.06,-280.5 677.06,-299.5 774.06,-299.5 774.06,-280.5 677.06,-280.5"/>
<text text-anchor="middle" x="725.56" y="-287.5" font-family="Helvetica,sans-Serif" font-size="10.00">../Command.hpp</text>
</a>
</g>
</g>
<!-- Node24&#45;&gt;Node25 -->
<g id="edge33" class="edge">
<title>Node24&#45;&gt;Node25</title>
<path fill="none" stroke="midnightblue" d="M1218.05,-337.51C1214.85,-336.97 1211.67,-336.46 1208.56,-336 1056.35,-313.44 875.37,-300.16 784.23,-294.4"/>
<polygon fill="midnightblue" stroke="midnightblue" points="784.29,-290.9 774.1,-293.77 783.86,-297.89 784.29,-290.9"/>
</g>
<!-- Node25&#45;&gt;Node2 -->
<g id="edge34" class="edge">
<title>Node25&#45;&gt;Node2</title>
<path fill="none" stroke="midnightblue" d="M676.79,-282.43C606.43,-272.96 476.04,-255.4 395.16,-244.51"/>
<polygon fill="midnightblue" stroke="midnightblue" points="395.44,-241.01 385.07,-243.15 394.51,-247.95 395.44,-241.01"/>
</g>
<!-- Node26&#45;&gt;Node25 -->
<g id="edge36" class="edge">
<title>Node26&#45;&gt;Node25</title>
<path fill="none" stroke="midnightblue" d="M1358.8,-337.24C1356.02,-336.79 1353.26,-336.38 1350.56,-336 1143.66,-307.25 895.54,-296.31 784.41,-292.64"/>
<polygon fill="midnightblue" stroke="midnightblue" points="784.52,-289.14 774.41,-292.32 784.29,-296.14 784.52,-289.14"/>
</g>
<!-- Node27&#45;&gt;Node25 -->
<g id="edge38" class="edge">
<title>Node27&#45;&gt;Node25</title>
<path fill="none" stroke="midnightblue" d="M1499.8,-337.2C1497.02,-336.76 1494.26,-336.36 1491.56,-336 1229.25,-301.31 912.86,-293.36 784.22,-291.54"/>
<polygon fill="midnightblue" stroke="midnightblue" points="784.23,-288.04 774.18,-291.41 784.14,-295.04 784.23,-288.04"/>
</g>
<!-- Node28&#45;&gt;Node25 -->
<g id="edge40" class="edge">
<title>Node28&#45;&gt;Node25</title>
<path fill="none" stroke="midnightblue" d="M149.32,-337.27C152.1,-336.81 154.85,-336.39 157.56,-336 342.18,-309.67 562.92,-297.72 666.46,-293.24"/>
<polygon fill="midnightblue" stroke="midnightblue" points="666.86,-296.73 676.7,-292.81 666.56,-289.74 666.86,-296.73"/>
</g>
<!-- Node29&#45;&gt;Node25 -->
<g id="edge42" class="edge">
<title>Node29&#45;&gt;Node25</title>
<path fill="none" stroke="midnightblue" d="M290.33,-337.36C293.11,-336.88 295.86,-336.42 298.56,-336 429.4,-315.6 584.28,-301.85 666.82,-295.33"/>
<polygon fill="midnightblue" stroke="midnightblue" points="667.31,-298.81 677.01,-294.54 666.76,-291.83 667.31,-298.81"/>
</g>
<!-- Node30&#45;&gt;Node25 -->
<g id="edge44" class="edge">
<title>Node30&#45;&gt;Node25</title>
<path fill="none" stroke="midnightblue" d="M431.36,-337.53C434.13,-337 436.87,-336.49 439.56,-336 517.93,-321.73 608.87,-307.88 666.79,-299.4"/>
<polygon fill="midnightblue" stroke="midnightblue" points="667.47,-302.84 676.86,-297.93 666.45,-295.91 667.47,-302.84"/>
</g>
<!-- Node31&#45;&gt;Node25 -->
<g id="edge46" class="edge">
<title>Node31&#45;&gt;Node25</title>
<path fill="none" stroke="midnightblue" d="M561.24,-336.47C598.98,-326.03 649.83,-311.96 684.92,-302.25"/>
<polygon fill="midnightblue" stroke="midnightblue" points="686.11,-305.55 694.82,-299.51 684.25,-298.8 686.11,-305.55"/>
</g>
<!-- Node32&#45;&gt;Node25 -->
<g id="edge48" class="edge">
<title>Node32&#45;&gt;Node25</title>
<path fill="none" stroke="midnightblue" d="M669.09,-336.4C680.4,-327.31 695.1,-315.49 706.66,-306.19"/>
<polygon fill="midnightblue" stroke="midnightblue" points="709.19,-308.65 714.79,-299.66 704.8,-303.2 709.19,-308.65"/>
</g>
<!-- Node33&#45;&gt;Node25 -->
<g id="edge50" class="edge">
<title>Node33&#45;&gt;Node25</title>
<path fill="none" stroke="midnightblue" d="M788.95,-341.98C777.3,-332.61 758.37,-317.38 744.22,-306.01"/>
<polygon fill="midnightblue" stroke="midnightblue" points="746.13,-303.05 736.14,-299.51 741.74,-308.5 746.13,-303.05"/>
</g>
<!-- Node34&#45;&gt;Node25 -->
<g id="edge52" class="edge">
<title>Node34&#45;&gt;Node25</title>
<path fill="none" stroke="midnightblue" d="M921.75,-341.98C881.36,-331.48 812.68,-313.64 768.23,-302.09"/>
<polygon fill="midnightblue" stroke="midnightblue" points="768.86,-298.64 758.31,-299.51 767.1,-305.41 768.86,-298.64"/>
</g>
<!-- Node35&#45;&gt;Node25 -->
<g id="edge54" class="edge">
<title>Node35&#45;&gt;Node25</title>
<path fill="none" stroke="midnightblue" d="M1069.86,-341.99C1057.65,-339.98 1044.64,-337.88 1032.56,-336 946.21,-322.56 846.02,-308.08 784.21,-299.28"/>
<polygon fill="midnightblue" stroke="midnightblue" points="784.64,-295.81 774.25,-297.86 783.66,-302.74 784.64,-295.81"/>
</g>
</g>
</svg>
